G04 #@! TF.GenerationSoftware,KiCad,Pcbnew,5.0.2-bee76a0~70~ubuntu16.04.1*
G04 #@! TF.CreationDate,2021-09-15T08:57:49+02:00*
G04 #@! TF.ProjectId,axis2,61786973-322e-46b6-9963-61645f706362,rev?*
G04 #@! TF.SameCoordinates,Original*
G04 #@! TF.FileFunction,Copper,L1,Top*
G04 #@! TF.FilePolarity,Positive*
%FSLAX46Y46*%
G04 Gerber Fmt 4.6, Leading zero omitted, Abs format (unit mm)*
G04 Created by KiCad (PCBNEW 5.0.2-bee76a0~70~ubuntu16.04.1) date mer 15 set 2021 08:57:49 CEST*
%MOMM*%
%LPD*%
G01*
G04 APERTURE LIST*
G04 #@! TA.AperFunction,ComponentPad*
%ADD10R,1.700000X1.700000*%
G04 #@! TD*
G04 #@! TA.AperFunction,ComponentPad*
%ADD11O,1.700000X1.700000*%
G04 #@! TD*
G04 #@! TA.AperFunction,ComponentPad*
%ADD12C,3.200000*%
G04 #@! TD*
G04 #@! TA.AperFunction,ComponentPad*
%ADD13C,11.000000*%
G04 #@! TD*
G04 #@! TA.AperFunction,Conductor*
%ADD14C,11.000000*%
G04 #@! TD*
G04 #@! TA.AperFunction,ComponentPad*
%ADD15R,1.600000X1.600000*%
G04 #@! TD*
G04 #@! TA.AperFunction,ComponentPad*
%ADD16C,1.600000*%
G04 #@! TD*
G04 #@! TA.AperFunction,ComponentPad*
%ADD17R,2.200000X2.200000*%
G04 #@! TD*
G04 #@! TA.AperFunction,ComponentPad*
%ADD18O,2.200000X2.200000*%
G04 #@! TD*
G04 #@! TA.AperFunction,Conductor*
%ADD19C,0.100000*%
G04 #@! TD*
G04 #@! TA.AperFunction,ComponentPad*
%ADD20C,1.700000*%
G04 #@! TD*
G04 #@! TA.AperFunction,ComponentPad*
%ADD21O,1.700000X2.000000*%
G04 #@! TD*
G04 #@! TA.AperFunction,Conductor*
%ADD22C,1.700000*%
G04 #@! TD*
G04 #@! TA.AperFunction,ComponentPad*
%ADD23C,1.524000*%
G04 #@! TD*
G04 #@! TA.AperFunction,ComponentPad*
%ADD24C,3.000000*%
G04 #@! TD*
G04 #@! TA.AperFunction,ViaPad*
%ADD25C,0.800000*%
G04 #@! TD*
G04 #@! TA.AperFunction,Conductor*
%ADD26C,0.250000*%
G04 #@! TD*
G04 #@! TA.AperFunction,Conductor*
%ADD27C,0.254000*%
G04 #@! TD*
G04 APERTURE END LIST*
D10*
G04 #@! TO.P,J15,1*
G04 #@! TO.N,/GND*
X102670347Y-87232392D03*
D11*
G04 #@! TO.P,J15,2*
G04 #@! TO.N,+5V*
X102670347Y-84692392D03*
G04 #@! TO.P,J15,3*
G04 #@! TO.N,M6S*
X102670347Y-82152392D03*
G04 #@! TD*
D12*
G04 #@! TO.P,U3,1*
G04 #@! TO.N,N/C*
X177600000Y-45000000D03*
G04 #@! TO.P,U3,2*
X194000000Y-61400000D03*
G04 #@! TO.P,U3,4*
X115500000Y-140000000D03*
G04 #@! TO.P,U3,3*
X99100000Y-123600000D03*
G04 #@! TO.P,U3,8*
X178000000Y-139700000D03*
G04 #@! TO.P,U3,5*
X98500000Y-61000000D03*
G04 #@! TO.P,U3,6*
X114900000Y-44600000D03*
G04 #@! TO.P,U3,7*
X194400000Y-123300000D03*
G04 #@! TO.P,U3,9*
X115200000Y-112400000D03*
G04 #@! TO.P,U3,10*
X126700000Y-123900000D03*
G04 #@! TO.P,U3,11*
X166800000Y-123700000D03*
G04 #@! TO.P,U3,12*
X178300000Y-112200000D03*
G04 #@! TO.P,U3,15*
X126400000Y-61100000D03*
G04 #@! TO.P,U3,16*
X115100000Y-72400000D03*
G04 #@! TO.P,U3,13*
X177800000Y-72400000D03*
G04 #@! TO.P,U3,14*
X166300000Y-60900000D03*
D13*
G04 #@! TO.P,U3,17*
X178900000Y-59800000D03*
D14*
G04 #@! TD*
G04 #@! TO.N,N/C*
G04 #@! TO.C,U3*
X174657359Y-64042641D02*
X183142641Y-55557359D01*
D13*
G04 #@! TO.P,U3,18*
G04 #@! TO.N,N/C*
X113900000Y-59800000D03*
D14*
G04 #@! TD*
G04 #@! TO.N,N/C*
G04 #@! TO.C,U3*
X118142641Y-64042641D02*
X109657359Y-55557359D01*
D13*
G04 #@! TO.P,U3,19*
G04 #@! TO.N,N/C*
X114000000Y-124600000D03*
D14*
G04 #@! TD*
G04 #@! TO.N,N/C*
G04 #@! TO.C,U3*
X118242641Y-120357359D02*
X109757359Y-128842641D01*
D13*
G04 #@! TO.P,U3,20*
G04 #@! TO.N,N/C*
X179100000Y-125000000D03*
D14*
G04 #@! TD*
G04 #@! TO.N,N/C*
G04 #@! TO.C,U3*
X174857359Y-120757359D02*
X183342641Y-129242641D01*
D15*
G04 #@! TO.P,C2,1*
G04 #@! TO.N,+5V*
X143300000Y-63200000D03*
D16*
G04 #@! TO.P,C2,2*
G04 #@! TO.N,/GND*
X145800000Y-63200000D03*
G04 #@! TD*
D17*
G04 #@! TO.P,D1,1*
G04 #@! TO.N,+5V*
X153900000Y-62100000D03*
D18*
G04 #@! TO.P,D1,2*
G04 #@! TO.N,/GND*
X153900000Y-51940000D03*
G04 #@! TD*
D11*
G04 #@! TO.P,J1,20*
G04 #@! TO.N,Net-(J1-Pad20)*
X162160000Y-103760000D03*
G04 #@! TO.P,J1,19*
G04 #@! TO.N,Net-(J1-Pad19)*
X164700000Y-103760000D03*
G04 #@! TO.P,J1,18*
G04 #@! TO.N,Net-(J1-Pad18)*
X162160000Y-101220000D03*
G04 #@! TO.P,J1,17*
G04 #@! TO.N,Net-(J1-Pad17)*
X164700000Y-101220000D03*
G04 #@! TO.P,J1,16*
G04 #@! TO.N,/GND*
X162160000Y-98680000D03*
G04 #@! TO.P,J1,15*
G04 #@! TO.N,MOSI*
X164700000Y-98680000D03*
G04 #@! TO.P,J1,14*
G04 #@! TO.N,SCL*
X162160000Y-96140000D03*
G04 #@! TO.P,J1,13*
G04 #@! TO.N,MISO*
X164700000Y-96140000D03*
G04 #@! TO.P,J1,12*
G04 #@! TO.N,Net-(J1-Pad12)*
X162160000Y-93600000D03*
G04 #@! TO.P,J1,11*
G04 #@! TO.N,Net-(J1-Pad11)*
X164700000Y-93600000D03*
G04 #@! TO.P,J1,10*
G04 #@! TO.N,Net-(J1-Pad10)*
X162160000Y-91060000D03*
G04 #@! TO.P,J1,9*
G04 #@! TO.N,Net-(J1-Pad9)*
X164700000Y-91060000D03*
G04 #@! TO.P,J1,8*
G04 #@! TO.N,Net-(J1-Pad8)*
X162160000Y-88520000D03*
G04 #@! TO.P,J1,7*
G04 #@! TO.N,Net-(J1-Pad7)*
X164700000Y-88520000D03*
G04 #@! TO.P,J1,6*
G04 #@! TO.N,Net-(J1-Pad6)*
X162160000Y-85980000D03*
G04 #@! TO.P,J1,5*
G04 #@! TO.N,Net-(J1-Pad5)*
X164700000Y-85980000D03*
G04 #@! TO.P,J1,4*
G04 #@! TO.N,Net-(J1-Pad4)*
X162160000Y-83440000D03*
G04 #@! TO.P,J1,3*
G04 #@! TO.N,Net-(J1-Pad3)*
X164700000Y-83440000D03*
G04 #@! TO.P,J1,2*
G04 #@! TO.N,/GND*
X162160000Y-80900000D03*
D10*
G04 #@! TO.P,J1,1*
G04 #@! TO.N,+3V3*
X164700000Y-80900000D03*
G04 #@! TD*
G04 #@! TO.P,J2,1*
G04 #@! TO.N,/GND*
X131600000Y-80900000D03*
D11*
G04 #@! TO.P,J2,2*
G04 #@! TO.N,RCS*
X129060000Y-80900000D03*
G04 #@! TO.P,J2,3*
G04 #@! TO.N,M1S*
X131600000Y-83440000D03*
G04 #@! TO.P,J2,4*
G04 #@! TO.N,Net-(J17-Pad4)*
X129060000Y-83440000D03*
G04 #@! TO.P,J2,5*
G04 #@! TO.N,Net-(J17-Pad5)*
X131600000Y-85980000D03*
G04 #@! TO.P,J2,6*
G04 #@! TO.N,M4S*
X129060000Y-85980000D03*
G04 #@! TO.P,J2,7*
G04 #@! TO.N,/GND*
X131600000Y-88520000D03*
G04 #@! TO.P,J2,8*
G04 #@! TO.N,M3S*
X129060000Y-88520000D03*
G04 #@! TO.P,J2,9*
G04 #@! TO.N,M2S*
X131600000Y-91060000D03*
G04 #@! TO.P,J2,10*
G04 #@! TO.N,M6S*
X129060000Y-91060000D03*
G04 #@! TO.P,J2,11*
G04 #@! TO.N,/GND*
X131600000Y-93600000D03*
G04 #@! TO.P,J2,12*
X129060000Y-93600000D03*
G04 #@! TO.P,J2,13*
G04 #@! TO.N,M5S*
X131600000Y-96140000D03*
G04 #@! TO.P,J2,14*
G04 #@! TO.N,Net-(J17-Pad14)*
X129060000Y-96140000D03*
G04 #@! TO.P,J2,15*
G04 #@! TO.N,INT*
X131600000Y-98680000D03*
G04 #@! TO.P,J2,16*
G04 #@! TO.N,NCS*
X129060000Y-98680000D03*
G04 #@! TO.P,J2,17*
G04 #@! TO.N,Net-(J17-Pad17)*
X131600000Y-101220000D03*
G04 #@! TO.P,J2,18*
G04 #@! TO.N,Net-(J17-Pad18)*
X129060000Y-101220000D03*
G04 #@! TO.P,J2,19*
G04 #@! TO.N,Net-(J17-Pad19)*
X131600000Y-103760000D03*
G04 #@! TO.P,J2,20*
G04 #@! TO.N,+5V*
X129060000Y-103760000D03*
G04 #@! TD*
D19*
G04 #@! TO.N,/GND*
G04 #@! TO.C,J3*
G36*
X161626504Y-133096704D02*
X161650773Y-133100304D01*
X161674571Y-133106265D01*
X161697671Y-133114530D01*
X161719849Y-133125020D01*
X161740893Y-133137633D01*
X161760598Y-133152247D01*
X161778777Y-133168723D01*
X161795253Y-133186902D01*
X161809867Y-133206607D01*
X161822480Y-133227651D01*
X161832970Y-133249829D01*
X161841235Y-133272929D01*
X161847196Y-133296727D01*
X161850796Y-133320996D01*
X161852000Y-133345500D01*
X161852000Y-134845500D01*
X161850796Y-134870004D01*
X161847196Y-134894273D01*
X161841235Y-134918071D01*
X161832970Y-134941171D01*
X161822480Y-134963349D01*
X161809867Y-134984393D01*
X161795253Y-135004098D01*
X161778777Y-135022277D01*
X161760598Y-135038753D01*
X161740893Y-135053367D01*
X161719849Y-135065980D01*
X161697671Y-135076470D01*
X161674571Y-135084735D01*
X161650773Y-135090696D01*
X161626504Y-135094296D01*
X161602000Y-135095500D01*
X160402000Y-135095500D01*
X160377496Y-135094296D01*
X160353227Y-135090696D01*
X160329429Y-135084735D01*
X160306329Y-135076470D01*
X160284151Y-135065980D01*
X160263107Y-135053367D01*
X160243402Y-135038753D01*
X160225223Y-135022277D01*
X160208747Y-135004098D01*
X160194133Y-134984393D01*
X160181520Y-134963349D01*
X160171030Y-134941171D01*
X160162765Y-134918071D01*
X160156804Y-134894273D01*
X160153204Y-134870004D01*
X160152000Y-134845500D01*
X160152000Y-133345500D01*
X160153204Y-133320996D01*
X160156804Y-133296727D01*
X160162765Y-133272929D01*
X160171030Y-133249829D01*
X160181520Y-133227651D01*
X160194133Y-133206607D01*
X160208747Y-133186902D01*
X160225223Y-133168723D01*
X160243402Y-133152247D01*
X160263107Y-133137633D01*
X160284151Y-133125020D01*
X160306329Y-133114530D01*
X160329429Y-133106265D01*
X160353227Y-133100304D01*
X160377496Y-133096704D01*
X160402000Y-133095500D01*
X161602000Y-133095500D01*
X161626504Y-133096704D01*
X161626504Y-133096704D01*
G37*
D20*
G04 #@! TD*
G04 #@! TO.P,J3,1*
G04 #@! TO.N,/GND*
X161002000Y-134095500D03*
D21*
G04 #@! TO.P,J3,2*
G04 #@! TO.N,+5V*
X158502000Y-134095500D03*
G04 #@! TD*
D20*
G04 #@! TO.P,J7,1*
G04 #@! TO.N,/GND*
X163700000Y-51700000D03*
D19*
G04 #@! TD*
G04 #@! TO.N,/GND*
G04 #@! TO.C,J7*
G36*
X163700000Y-52902082D02*
X162497918Y-51700000D01*
X163700000Y-50497918D01*
X164902082Y-51700000D01*
X163700000Y-52902082D01*
X163700000Y-52902082D01*
G37*
D20*
G04 #@! TO.P,J7,2*
G04 #@! TO.N,+5V*
X165496051Y-53496051D03*
D22*
G04 #@! TD*
G04 #@! TO.N,+5V*
G04 #@! TO.C,J7*
X165496051Y-53496051D02*
X165496051Y-53496051D01*
D20*
G04 #@! TO.P,J7,3*
G04 #@! TO.N,M3S*
X167292102Y-55292102D03*
D22*
G04 #@! TD*
G04 #@! TO.N,M3S*
G04 #@! TO.C,J7*
X167292102Y-55292102D02*
X167292102Y-55292102D01*
D20*
G04 #@! TO.P,J8,3*
G04 #@! TO.N,M2S*
X108892102Y-71107898D03*
D22*
G04 #@! TD*
G04 #@! TO.N,M2S*
G04 #@! TO.C,J8*
X108892102Y-71107898D02*
X108892102Y-71107898D01*
D20*
G04 #@! TO.P,J8,2*
G04 #@! TO.N,+5V*
X107096051Y-72903949D03*
D22*
G04 #@! TD*
G04 #@! TO.N,+5V*
G04 #@! TO.C,J8*
X107096051Y-72903949D02*
X107096051Y-72903949D01*
D20*
G04 #@! TO.P,J8,1*
G04 #@! TO.N,/GND*
X105300000Y-74700000D03*
D19*
G04 #@! TD*
G04 #@! TO.N,/GND*
G04 #@! TO.C,J8*
G36*
X106502082Y-74700000D02*
X105300000Y-75902082D01*
X104097918Y-74700000D01*
X105300000Y-73497918D01*
X106502082Y-74700000D01*
X106502082Y-74700000D01*
G37*
D10*
G04 #@! TO.P,J9,1*
G04 #@! TO.N,/GND*
X143600000Y-48900000D03*
D11*
G04 #@! TO.P,J9,2*
G04 #@! TO.N,+5V*
X146140000Y-48900000D03*
G04 #@! TO.P,J9,3*
G04 #@! TO.N,RCS*
X148680000Y-48900000D03*
G04 #@! TD*
D20*
G04 #@! TO.P,J12,3*
G04 #@! TO.N,M4S*
X125707898Y-129907898D03*
D22*
G04 #@! TD*
G04 #@! TO.N,M4S*
G04 #@! TO.C,J12*
X125707898Y-129907898D02*
X125707898Y-129907898D01*
D20*
G04 #@! TO.P,J12,2*
G04 #@! TO.N,+5V*
X127503949Y-131703949D03*
D22*
G04 #@! TD*
G04 #@! TO.N,+5V*
G04 #@! TO.C,J12*
X127503949Y-131703949D02*
X127503949Y-131703949D01*
D20*
G04 #@! TO.P,J12,1*
G04 #@! TO.N,/GND*
X129300000Y-133500000D03*
D19*
G04 #@! TD*
G04 #@! TO.N,/GND*
G04 #@! TO.C,J12*
G36*
X129300000Y-132297918D02*
X130502082Y-133500000D01*
X129300000Y-134702082D01*
X128097918Y-133500000D01*
X129300000Y-132297918D01*
X129300000Y-132297918D01*
G37*
D11*
G04 #@! TO.P,J13,3*
G04 #@! TO.N,M5S*
X102670347Y-97252392D03*
G04 #@! TO.P,J13,2*
G04 #@! TO.N,+5V*
X102670347Y-99792392D03*
D10*
G04 #@! TO.P,J13,1*
G04 #@! TO.N,/GND*
X102670347Y-102332392D03*
G04 #@! TD*
D20*
G04 #@! TO.P,J14,3*
G04 #@! TO.N,M1S*
X184007898Y-113392102D03*
D22*
G04 #@! TD*
G04 #@! TO.N,M1S*
G04 #@! TO.C,J14*
X184007898Y-113392102D02*
X184007898Y-113392102D01*
D20*
G04 #@! TO.P,J14,2*
G04 #@! TO.N,+5V*
X185803949Y-111596051D03*
D22*
G04 #@! TD*
G04 #@! TO.N,+5V*
G04 #@! TO.C,J14*
X185803949Y-111596051D02*
X185803949Y-111596051D01*
D20*
G04 #@! TO.P,J14,1*
G04 #@! TO.N,/GND*
X187600000Y-109800000D03*
D19*
G04 #@! TD*
G04 #@! TO.N,/GND*
G04 #@! TO.C,J14*
G36*
X186397918Y-109800000D02*
X187600000Y-108597918D01*
X188802082Y-109800000D01*
X187600000Y-111002082D01*
X186397918Y-109800000D01*
X186397918Y-109800000D01*
G37*
D11*
G04 #@! TO.P,J16,20*
G04 #@! TO.N,Net-(J1-Pad20)*
X179860000Y-103760000D03*
G04 #@! TO.P,J16,19*
G04 #@! TO.N,Net-(J1-Pad19)*
X182400000Y-103760000D03*
G04 #@! TO.P,J16,18*
G04 #@! TO.N,Net-(J1-Pad18)*
X179860000Y-101220000D03*
G04 #@! TO.P,J16,17*
G04 #@! TO.N,Net-(J1-Pad17)*
X182400000Y-101220000D03*
G04 #@! TO.P,J16,16*
G04 #@! TO.N,/GND*
X179860000Y-98680000D03*
G04 #@! TO.P,J16,15*
G04 #@! TO.N,MOSI*
X182400000Y-98680000D03*
G04 #@! TO.P,J16,14*
G04 #@! TO.N,SCL*
X179860000Y-96140000D03*
G04 #@! TO.P,J16,13*
G04 #@! TO.N,MISO*
X182400000Y-96140000D03*
G04 #@! TO.P,J16,12*
G04 #@! TO.N,Net-(J1-Pad12)*
X179860000Y-93600000D03*
G04 #@! TO.P,J16,11*
G04 #@! TO.N,Net-(J1-Pad11)*
X182400000Y-93600000D03*
G04 #@! TO.P,J16,10*
G04 #@! TO.N,Net-(J1-Pad10)*
X179860000Y-91060000D03*
G04 #@! TO.P,J16,9*
G04 #@! TO.N,Net-(J1-Pad9)*
X182400000Y-91060000D03*
G04 #@! TO.P,J16,8*
G04 #@! TO.N,Net-(J1-Pad8)*
X179860000Y-88520000D03*
G04 #@! TO.P,J16,7*
G04 #@! TO.N,Net-(J1-Pad7)*
X182400000Y-88520000D03*
G04 #@! TO.P,J16,6*
G04 #@! TO.N,Net-(J1-Pad6)*
X179860000Y-85980000D03*
G04 #@! TO.P,J16,5*
G04 #@! TO.N,Net-(J1-Pad5)*
X182400000Y-85980000D03*
G04 #@! TO.P,J16,4*
G04 #@! TO.N,Net-(J1-Pad4)*
X179860000Y-83440000D03*
G04 #@! TO.P,J16,3*
G04 #@! TO.N,Net-(J1-Pad3)*
X182400000Y-83440000D03*
G04 #@! TO.P,J16,2*
G04 #@! TO.N,/GND*
X179860000Y-80900000D03*
D10*
G04 #@! TO.P,J16,1*
G04 #@! TO.N,+3V3*
X182400000Y-80900000D03*
G04 #@! TD*
D11*
G04 #@! TO.P,J17,20*
G04 #@! TO.N,+5V*
X110960000Y-103760000D03*
G04 #@! TO.P,J17,19*
G04 #@! TO.N,Net-(J17-Pad19)*
X113500000Y-103760000D03*
G04 #@! TO.P,J17,18*
G04 #@! TO.N,Net-(J17-Pad18)*
X110960000Y-101220000D03*
G04 #@! TO.P,J17,17*
G04 #@! TO.N,Net-(J17-Pad17)*
X113500000Y-101220000D03*
G04 #@! TO.P,J17,16*
G04 #@! TO.N,NCS*
X110960000Y-98680000D03*
G04 #@! TO.P,J17,15*
G04 #@! TO.N,INT*
X113500000Y-98680000D03*
G04 #@! TO.P,J17,14*
G04 #@! TO.N,Net-(J17-Pad14)*
X110960000Y-96140000D03*
G04 #@! TO.P,J17,13*
G04 #@! TO.N,M5S*
X113500000Y-96140000D03*
G04 #@! TO.P,J17,12*
G04 #@! TO.N,/GND*
X110960000Y-93600000D03*
G04 #@! TO.P,J17,11*
X113500000Y-93600000D03*
G04 #@! TO.P,J17,10*
G04 #@! TO.N,M6S*
X110960000Y-91060000D03*
G04 #@! TO.P,J17,9*
G04 #@! TO.N,M2S*
X113500000Y-91060000D03*
G04 #@! TO.P,J17,8*
G04 #@! TO.N,M3S*
X110960000Y-88520000D03*
G04 #@! TO.P,J17,7*
G04 #@! TO.N,/GND*
X113500000Y-88520000D03*
G04 #@! TO.P,J17,6*
G04 #@! TO.N,M4S*
X110960000Y-85980000D03*
G04 #@! TO.P,J17,5*
G04 #@! TO.N,Net-(J17-Pad5)*
X113500000Y-85980000D03*
G04 #@! TO.P,J17,4*
G04 #@! TO.N,Net-(J17-Pad4)*
X110960000Y-83440000D03*
G04 #@! TO.P,J17,3*
G04 #@! TO.N,M1S*
X113500000Y-83440000D03*
G04 #@! TO.P,J17,2*
G04 #@! TO.N,RCS*
X110960000Y-80900000D03*
D10*
G04 #@! TO.P,J17,1*
G04 #@! TO.N,/GND*
X113500000Y-80900000D03*
G04 #@! TD*
D23*
G04 #@! TO.P,U1,1*
G04 #@! TO.N,+3V3*
X140600000Y-80900000D03*
G04 #@! TO.P,U1,2*
G04 #@! TO.N,/GND*
X140600000Y-83440000D03*
G04 #@! TO.P,U1,3*
G04 #@! TO.N,SCL*
X140600000Y-85980000D03*
G04 #@! TO.P,U1,4*
G04 #@! TO.N,MOSI*
X140600000Y-88520000D03*
G04 #@! TO.P,U1,5*
G04 #@! TO.N,N/C*
X140600000Y-91060000D03*
G04 #@! TO.P,U1,6*
X140600000Y-93600000D03*
G04 #@! TO.P,U1,7*
G04 #@! TO.N,MISO*
X140600000Y-96140000D03*
G04 #@! TO.P,U1,8*
G04 #@! TO.N,INT*
X140600000Y-98680000D03*
G04 #@! TO.P,U1,9*
G04 #@! TO.N,NCS*
X140600000Y-101220000D03*
G04 #@! TO.P,U1,10*
G04 #@! TO.N,N/C*
X140600000Y-103760000D03*
D24*
G04 #@! TO.P,U1,11*
X152100000Y-82000000D03*
G04 #@! TO.P,U1,12*
X152100000Y-102600000D03*
G04 #@! TD*
D25*
G04 #@! TO.N,MISO*
X156900000Y-93400000D03*
G04 #@! TO.N,RCS*
X130700000Y-65300000D03*
G04 #@! TO.N,M4S*
X135200000Y-97200000D03*
X135100000Y-101700000D03*
X132500000Y-122000000D03*
G04 #@! TO.N,M3S*
X124600000Y-72700000D03*
G04 #@! TO.N,M1S*
X137000000Y-97300000D03*
X137300000Y-102900000D03*
X166600000Y-108800000D03*
G04 #@! TD*
D26*
G04 #@! TO.N,+5V*
X106992392Y-99792392D02*
X110960000Y-103760000D01*
X102670347Y-99792392D02*
X106992392Y-99792392D01*
X101820348Y-98942393D02*
X102670347Y-99792392D01*
X101495346Y-98617391D02*
X101820348Y-98942393D01*
X101495346Y-85867393D02*
X101495346Y-98617391D01*
X102670347Y-84692392D02*
X101495346Y-85867393D01*
X105893970Y-72903949D02*
X107096051Y-72903949D01*
X105434333Y-72903949D02*
X105893970Y-72903949D01*
X101495346Y-76842936D02*
X105434333Y-72903949D01*
X101495346Y-83517391D02*
X101495346Y-76842936D01*
X102670347Y-84692392D02*
X101495346Y-83517391D01*
X142250000Y-63200000D02*
X143300000Y-63200000D01*
X143300000Y-51740000D02*
X143300000Y-63200000D01*
X146140000Y-48900000D02*
X143300000Y-51740000D01*
X161153949Y-53496051D02*
X153900000Y-60750000D01*
X153900000Y-60750000D02*
X153900000Y-62100000D01*
X165496051Y-53496051D02*
X161153949Y-53496051D01*
X152524999Y-62074999D02*
X152550000Y-62100000D01*
X143375001Y-62074999D02*
X152524999Y-62074999D01*
X152550000Y-62100000D02*
X153900000Y-62100000D01*
X143300000Y-62150000D02*
X143375001Y-62074999D01*
X143300000Y-63200000D02*
X143300000Y-62150000D01*
X112135001Y-104935001D02*
X127884999Y-104935001D01*
X128210001Y-104609999D02*
X129060000Y-103760000D01*
X127884999Y-104935001D02*
X128210001Y-104609999D01*
X110960000Y-103760000D02*
X112135001Y-104935001D01*
X129060000Y-130147898D02*
X129060000Y-103760000D01*
X127503949Y-131703949D02*
X129060000Y-130147898D01*
X158502000Y-133945500D02*
X158502000Y-134095500D01*
X156260449Y-131703949D02*
X158502000Y-133945500D01*
X127503949Y-131703949D02*
X156260449Y-131703949D01*
X158502000Y-134095500D02*
X158502000Y-120098000D01*
X158502000Y-120098000D02*
X172500000Y-106100000D01*
X180307898Y-106100000D02*
X185803949Y-111596051D01*
X172500000Y-106100000D02*
X180307898Y-106100000D01*
X123450000Y-69750000D02*
X135700000Y-69750000D01*
X117600000Y-75600000D02*
X123450000Y-69750000D01*
X112300000Y-69993444D02*
X112300000Y-75600000D01*
X112153278Y-69846722D02*
X112300000Y-69993444D01*
X108414276Y-69846722D02*
X112153278Y-69846722D01*
X135700000Y-69750000D02*
X142250000Y-63200000D01*
X112300000Y-75600000D02*
X117600000Y-75600000D01*
X107096051Y-72903949D02*
X107096051Y-71164947D01*
X107096051Y-71164947D02*
X108414276Y-69846722D01*
G04 #@! TO.N,Net-(J1-Pad20)*
X176410002Y-103760000D02*
X179860000Y-103760000D01*
X175235001Y-104935001D02*
X176410002Y-103760000D01*
X163335001Y-104935001D02*
X175235001Y-104935001D01*
X162160000Y-103760000D02*
X163335001Y-104935001D01*
G04 #@! TO.N,Net-(J1-Pad19)*
X181224999Y-102584999D02*
X181550001Y-102910001D01*
X179295999Y-102584999D02*
X181224999Y-102584999D01*
X178970997Y-102910001D02*
X179295999Y-102584999D01*
X165549999Y-102910001D02*
X178970997Y-102910001D01*
X181550001Y-102910001D02*
X182400000Y-103760000D01*
X164700000Y-103760000D02*
X165549999Y-102910001D01*
G04 #@! TO.N,Net-(J1-Pad18)*
X179010001Y-102069999D02*
X179860000Y-101220000D01*
X178684999Y-102395001D02*
X179010001Y-102069999D01*
X163335001Y-102395001D02*
X178684999Y-102395001D01*
X162160000Y-101220000D02*
X163335001Y-102395001D01*
G04 #@! TO.N,Net-(J1-Pad17)*
X181550001Y-100370001D02*
X182400000Y-101220000D01*
X181224999Y-100044999D02*
X181550001Y-100370001D01*
X167077082Y-100044999D02*
X181224999Y-100044999D01*
X165902081Y-101220000D02*
X167077082Y-100044999D01*
X164700000Y-101220000D02*
X165902081Y-101220000D01*
G04 #@! TO.N,MOSI*
X163850001Y-97830001D02*
X164700000Y-98680000D01*
X163524999Y-97504999D02*
X163850001Y-97830001D01*
X149584999Y-97504999D02*
X163524999Y-97504999D01*
X140600000Y-88520000D02*
X149584999Y-97504999D01*
X181224999Y-97504999D02*
X181550001Y-97830001D01*
X179295999Y-97504999D02*
X181224999Y-97504999D01*
X178120998Y-98680000D02*
X179295999Y-97504999D01*
X181550001Y-97830001D02*
X182400000Y-98680000D01*
X164700000Y-98680000D02*
X178120998Y-98680000D01*
G04 #@! TO.N,SCL*
X150760000Y-96140000D02*
X162160000Y-96140000D01*
X140600000Y-85980000D02*
X150760000Y-96140000D01*
X163810997Y-96989999D02*
X164320998Y-97500000D01*
X163009999Y-96989999D02*
X163810997Y-96989999D01*
X162160000Y-96140000D02*
X163009999Y-96989999D01*
X164320998Y-97500000D02*
X176300000Y-97500000D01*
X177660000Y-96140000D02*
X179860000Y-96140000D01*
X176300000Y-97500000D02*
X177660000Y-96140000D01*
G04 #@! TO.N,MISO*
X181550001Y-95290001D02*
X182400000Y-96140000D01*
X181224999Y-94964999D02*
X181550001Y-95290001D01*
X179295999Y-94964999D02*
X181224999Y-94964999D01*
X166352090Y-95689991D02*
X178571007Y-95689991D01*
X178571007Y-95689991D02*
X179295999Y-94964999D01*
X165902081Y-96140000D02*
X166352090Y-95689991D01*
X164700000Y-96140000D02*
X165902081Y-96140000D01*
X164063590Y-96140000D02*
X164700000Y-96140000D01*
X158275001Y-94775001D02*
X162698591Y-94775001D01*
X162698591Y-94775001D02*
X164063590Y-96140000D01*
X156900000Y-93400000D02*
X158275001Y-94775001D01*
G04 #@! TO.N,Net-(J1-Pad12)*
X175635001Y-94964999D02*
X177000000Y-93600000D01*
X177000000Y-93600000D02*
X179860000Y-93600000D01*
X163524999Y-94964999D02*
X175635001Y-94964999D01*
X162160000Y-93600000D02*
X163524999Y-94964999D01*
G04 #@! TO.N,Net-(J1-Pad11)*
X181550001Y-92750001D02*
X182400000Y-93600000D01*
X181224999Y-92424999D02*
X181550001Y-92750001D01*
X179295999Y-92424999D02*
X181224999Y-92424999D01*
X166502081Y-93000000D02*
X178720998Y-93000000D01*
X165902081Y-93600000D02*
X166502081Y-93000000D01*
X178720998Y-93000000D02*
X179295999Y-92424999D01*
X164700000Y-93600000D02*
X165902081Y-93600000D01*
G04 #@! TO.N,Net-(J1-Pad10)*
X163335001Y-92235001D02*
X175964999Y-92235001D01*
X162160000Y-91060000D02*
X163335001Y-92235001D01*
X177140000Y-91060000D02*
X179860000Y-91060000D01*
X175964999Y-92235001D02*
X177140000Y-91060000D01*
G04 #@! TO.N,Net-(J1-Pad9)*
X181224999Y-89884999D02*
X181550001Y-90210001D01*
X179295999Y-89884999D02*
X181224999Y-89884999D01*
X166562081Y-90400000D02*
X178780998Y-90400000D01*
X165902081Y-91060000D02*
X166562081Y-90400000D01*
X181550001Y-90210001D02*
X182400000Y-91060000D01*
X178780998Y-90400000D02*
X179295999Y-89884999D01*
X164700000Y-91060000D02*
X165902081Y-91060000D01*
G04 #@! TO.N,Net-(J1-Pad8)*
X178495001Y-89884999D02*
X179010001Y-89369999D01*
X179010001Y-89369999D02*
X179860000Y-88520000D01*
X163524999Y-89884999D02*
X178495001Y-89884999D01*
X162160000Y-88520000D02*
X163524999Y-89884999D01*
G04 #@! TO.N,Net-(J1-Pad7)*
X181550001Y-87670001D02*
X182400000Y-88520000D01*
X181224999Y-87344999D02*
X181550001Y-87670001D01*
X179295999Y-87344999D02*
X181224999Y-87344999D01*
X178120998Y-88520000D02*
X179295999Y-87344999D01*
X164700000Y-88520000D02*
X178120998Y-88520000D01*
G04 #@! TO.N,Net-(J1-Pad6)*
X179740000Y-86100000D02*
X179860000Y-85980000D01*
X178637408Y-86100000D02*
X179740000Y-86100000D01*
X177582407Y-87155001D02*
X178637408Y-86100000D01*
X163335001Y-87155001D02*
X177582407Y-87155001D01*
X162160000Y-85980000D02*
X163335001Y-87155001D01*
G04 #@! TO.N,Net-(J1-Pad5)*
X181550001Y-85130001D02*
X182400000Y-85980000D01*
X179295999Y-84804999D02*
X181224999Y-84804999D01*
X181224999Y-84804999D02*
X181550001Y-85130001D01*
X178120998Y-85980000D02*
X179295999Y-84804999D01*
X164700000Y-85980000D02*
X178120998Y-85980000D01*
G04 #@! TO.N,Net-(J1-Pad4)*
X178495001Y-84804999D02*
X179010001Y-84289999D01*
X179010001Y-84289999D02*
X179860000Y-83440000D01*
X163524999Y-84804999D02*
X178495001Y-84804999D01*
X162160000Y-83440000D02*
X163524999Y-84804999D01*
G04 #@! TO.N,Net-(J1-Pad3)*
X181550001Y-82590001D02*
X182400000Y-83440000D01*
X181224999Y-82264999D02*
X181550001Y-82590001D01*
X165875001Y-82264999D02*
X181224999Y-82264999D01*
X164700000Y-83440000D02*
X165875001Y-82264999D01*
G04 #@! TO.N,+3V3*
X164700000Y-79800000D02*
X164700000Y-80900000D01*
X163400000Y-78500000D02*
X164700000Y-79800000D01*
X143000000Y-78500000D02*
X163400000Y-78500000D01*
X140600000Y-80900000D02*
X143000000Y-78500000D01*
X182400000Y-79800000D02*
X182400000Y-80900000D01*
X182324999Y-79724999D02*
X182400000Y-79800000D01*
X166975001Y-79724999D02*
X182324999Y-79724999D01*
X165800000Y-80900000D02*
X166975001Y-79724999D01*
X164700000Y-80900000D02*
X165800000Y-80900000D01*
G04 #@! TO.N,RCS*
X128210001Y-80050001D02*
X129060000Y-80900000D01*
X127884999Y-79724999D02*
X128210001Y-80050001D01*
X112135001Y-79724999D02*
X127884999Y-79724999D01*
X110960000Y-80900000D02*
X112135001Y-79724999D01*
X147504999Y-47724999D02*
X138875001Y-47724999D01*
X148680000Y-48900000D02*
X147504999Y-47724999D01*
X130700000Y-55900000D02*
X130700000Y-65300000D01*
X138875001Y-47724999D02*
X130700000Y-55900000D01*
G04 #@! TO.N,M4S*
X127884999Y-84804999D02*
X128210001Y-85130001D01*
X112135001Y-84804999D02*
X127884999Y-84804999D01*
X128210001Y-85130001D02*
X129060000Y-85980000D01*
X110960000Y-85980000D02*
X112135001Y-84804999D01*
X131035999Y-84804999D02*
X132904999Y-84804999D01*
X129974989Y-85065011D02*
X130775987Y-85065011D01*
X130775987Y-85065011D02*
X131035999Y-84804999D01*
X129060000Y-85980000D02*
X129974989Y-85065011D01*
X135200000Y-87100000D02*
X135200000Y-97200000D01*
X132904999Y-84804999D02*
X135200000Y-87100000D01*
X135100000Y-101700000D02*
X135100000Y-116200000D01*
X135100000Y-119400000D02*
X132500000Y-122000000D01*
X135100000Y-116200000D02*
X135100000Y-119400000D01*
G04 #@! TO.N,Net-(J17-Pad4)*
X128210001Y-82590001D02*
X129060000Y-83440000D01*
X127884999Y-82264999D02*
X128210001Y-82590001D01*
X112135001Y-82264999D02*
X127884999Y-82264999D01*
X110960000Y-83440000D02*
X112135001Y-82264999D01*
G04 #@! TO.N,Net-(J17-Pad5)*
X130750001Y-86829999D02*
X131600000Y-85980000D01*
X128495999Y-87155001D02*
X130424999Y-87155001D01*
X130424999Y-87155001D02*
X130750001Y-86829999D01*
X127320998Y-85980000D02*
X128495999Y-87155001D01*
X113500000Y-85980000D02*
X127320998Y-85980000D01*
G04 #@! TO.N,M3S*
X128210001Y-87670001D02*
X129060000Y-88520000D01*
X127884999Y-87344999D02*
X128210001Y-87670001D01*
X112135001Y-87344999D02*
X127884999Y-87344999D01*
X110960000Y-88520000D02*
X112135001Y-87344999D01*
X126800000Y-70500000D02*
X152084204Y-70500000D01*
X152084204Y-70500000D02*
X167292102Y-55292102D01*
X124600000Y-72700000D02*
X126800000Y-70500000D01*
G04 #@! TO.N,M1S*
X130750001Y-84289999D02*
X131600000Y-83440000D01*
X130424999Y-84615001D02*
X130750001Y-84289999D01*
X128495999Y-84615001D02*
X130424999Y-84615001D01*
X127320998Y-83440000D02*
X128495999Y-84615001D01*
X113500000Y-83440000D02*
X127320998Y-83440000D01*
X143200000Y-108800000D02*
X166600000Y-108800000D01*
X137300000Y-102900000D02*
X143200000Y-108800000D01*
X132449999Y-84289999D02*
X135589999Y-84289999D01*
X131600000Y-83440000D02*
X132449999Y-84289999D01*
X137000000Y-85700000D02*
X137000000Y-86000000D01*
X135589999Y-84289999D02*
X137000000Y-85700000D01*
X137000000Y-85800000D02*
X137000000Y-86000000D01*
X137000000Y-96734315D02*
X137000000Y-94200000D01*
X137000000Y-97300000D02*
X137000000Y-96734315D01*
X137000000Y-94200000D02*
X137000000Y-94260000D01*
X137000000Y-86000000D02*
X137000000Y-94200000D01*
G04 #@! TO.N,M2S*
X130750001Y-90210001D02*
X131600000Y-91060000D01*
X130424999Y-89884999D02*
X130750001Y-90210001D01*
X115877082Y-89884999D02*
X130424999Y-89884999D01*
X114702081Y-91060000D02*
X115877082Y-89884999D01*
X113500000Y-91060000D02*
X114702081Y-91060000D01*
X112324999Y-89884999D02*
X112650001Y-90210001D01*
X110585997Y-89884999D02*
X112324999Y-89884999D01*
X112650001Y-90210001D02*
X113500000Y-91060000D01*
X108892102Y-88191104D02*
X110585997Y-89884999D01*
X108892102Y-71107898D02*
X108892102Y-88191104D01*
G04 #@! TO.N,M6S*
X128210001Y-91909999D02*
X129060000Y-91060000D01*
X127695001Y-92424999D02*
X128210001Y-91909999D01*
X112324999Y-92424999D02*
X127695001Y-92424999D01*
X110960000Y-91060000D02*
X112324999Y-92424999D01*
X110110001Y-90210001D02*
X110960000Y-91060000D01*
X103845348Y-83945348D02*
X110110001Y-90210001D01*
X103845348Y-83327393D02*
X103845348Y-83945348D01*
X102670347Y-82152392D02*
X103845348Y-83327393D01*
G04 #@! TO.N,M5S*
X114349999Y-95290001D02*
X113500000Y-96140000D01*
X114675001Y-94964999D02*
X114349999Y-95290001D01*
X130424999Y-94964999D02*
X114675001Y-94964999D01*
X131600000Y-96140000D02*
X130424999Y-94964999D01*
X112135001Y-94775001D02*
X112650001Y-95290001D01*
X105147738Y-94775001D02*
X112135001Y-94775001D01*
X112650001Y-95290001D02*
X113500000Y-96140000D01*
X102670347Y-97252392D02*
X105147738Y-94775001D01*
G04 #@! TO.N,Net-(J17-Pad14)*
X128210001Y-96989999D02*
X129060000Y-96140000D01*
X127884999Y-97315001D02*
X128210001Y-96989999D01*
X112135001Y-97315001D02*
X127884999Y-97315001D01*
X110960000Y-96140000D02*
X112135001Y-97315001D01*
G04 #@! TO.N,INT*
X130750001Y-97830001D02*
X131600000Y-98680000D01*
X130424999Y-97504999D02*
X130750001Y-97830001D01*
X128495999Y-97504999D02*
X130424999Y-97504999D01*
X127320998Y-98680000D02*
X128495999Y-97504999D01*
X113500000Y-98680000D02*
X127320998Y-98680000D01*
X132802081Y-98680000D02*
X140600000Y-98680000D01*
X131600000Y-98680000D02*
X132802081Y-98680000D01*
G04 #@! TO.N,NCS*
X127695001Y-100044999D02*
X128210001Y-99529999D01*
X112324999Y-100044999D02*
X127695001Y-100044999D01*
X128210001Y-99529999D02*
X129060000Y-98680000D01*
X110960000Y-98680000D02*
X112324999Y-100044999D01*
X139838001Y-100458001D02*
X140600000Y-101220000D01*
X139424999Y-100044999D02*
X139838001Y-100458001D01*
X130710997Y-99529999D02*
X131225997Y-100044999D01*
X129909999Y-99529999D02*
X130710997Y-99529999D01*
X131225997Y-100044999D02*
X139424999Y-100044999D01*
X129060000Y-98680000D02*
X129909999Y-99529999D01*
G04 #@! TO.N,Net-(J17-Pad17)*
X130750001Y-100370001D02*
X131600000Y-101220000D01*
X130424999Y-100044999D02*
X130750001Y-100370001D01*
X128495999Y-100044999D02*
X130424999Y-100044999D01*
X127320998Y-101220000D02*
X128495999Y-100044999D01*
X113500000Y-101220000D02*
X127320998Y-101220000D01*
G04 #@! TO.N,Net-(J17-Pad18)*
X128210001Y-102069999D02*
X129060000Y-101220000D01*
X127884999Y-102395001D02*
X128210001Y-102069999D01*
X112135001Y-102395001D02*
X127884999Y-102395001D01*
X110960000Y-101220000D02*
X112135001Y-102395001D01*
G04 #@! TO.N,Net-(J17-Pad19)*
X130750001Y-102910001D02*
X131600000Y-103760000D01*
X130424999Y-102584999D02*
X130750001Y-102910001D01*
X128495999Y-102584999D02*
X130424999Y-102584999D01*
X127320998Y-103760000D02*
X128495999Y-102584999D01*
X113500000Y-103760000D02*
X127320998Y-103760000D01*
G04 #@! TD*
D27*
G04 #@! TO.N,+5V*
G36*
X201173000Y-61951971D02*
X201173000Y-123548044D01*
X178652875Y-146465000D01*
X144310008Y-146465000D01*
X115153096Y-146373167D01*
X108394645Y-139555431D01*
X113265000Y-139555431D01*
X113265000Y-140444569D01*
X113605259Y-141266026D01*
X114233974Y-141894741D01*
X115055431Y-142235000D01*
X115944569Y-142235000D01*
X116766026Y-141894741D01*
X117394741Y-141266026D01*
X117735000Y-140444569D01*
X117735000Y-139555431D01*
X117610736Y-139255431D01*
X175765000Y-139255431D01*
X175765000Y-140144569D01*
X176105259Y-140966026D01*
X176733974Y-141594741D01*
X177555431Y-141935000D01*
X178444569Y-141935000D01*
X179266026Y-141594741D01*
X179894741Y-140966026D01*
X180235000Y-140144569D01*
X180235000Y-139255431D01*
X179894741Y-138433974D01*
X179266026Y-137805259D01*
X178444569Y-137465000D01*
X177555431Y-137465000D01*
X176733974Y-137805259D01*
X176105259Y-138433974D01*
X175765000Y-139255431D01*
X117610736Y-139255431D01*
X117394741Y-138733974D01*
X116766026Y-138105259D01*
X115944569Y-137765000D01*
X115055431Y-137765000D01*
X114233974Y-138105259D01*
X113605259Y-138733974D01*
X113265000Y-139555431D01*
X108394645Y-139555431D01*
X97775010Y-128842641D01*
X103502168Y-128842641D01*
X103978316Y-131236398D01*
X105334272Y-133265728D01*
X107363602Y-134621684D01*
X109757359Y-135097832D01*
X112151116Y-134621684D01*
X113668196Y-133608004D01*
X114548958Y-132727242D01*
X126660261Y-132727242D01*
X126737031Y-132975586D01*
X127147057Y-133145435D01*
X127558374Y-133164516D01*
X127499761Y-133252235D01*
X127450478Y-133500000D01*
X127499761Y-133747765D01*
X127640109Y-133957809D01*
X128842191Y-135159891D01*
X129052235Y-135300239D01*
X129300000Y-135349522D01*
X129547765Y-135300239D01*
X129757809Y-135159891D01*
X130462458Y-134455242D01*
X157030716Y-134455242D01*
X157222976Y-135002312D01*
X157609955Y-135434164D01*
X158132740Y-135685053D01*
X158145110Y-135686976D01*
X158375000Y-135565655D01*
X158375000Y-134222500D01*
X157174769Y-134222500D01*
X157030716Y-134455242D01*
X130462458Y-134455242D01*
X130959891Y-133957809D01*
X131100239Y-133747765D01*
X131102627Y-133735758D01*
X157030716Y-133735758D01*
X157174769Y-133968500D01*
X158375000Y-133968500D01*
X158375000Y-132625345D01*
X158629000Y-132625345D01*
X158629000Y-133968500D01*
X158649000Y-133968500D01*
X158649000Y-134222500D01*
X158629000Y-134222500D01*
X158629000Y-135565655D01*
X158858890Y-135686976D01*
X158871260Y-135685053D01*
X159394045Y-135434164D01*
X159590352Y-135215093D01*
X159767414Y-135480086D01*
X160058565Y-135674626D01*
X160402000Y-135742940D01*
X161602000Y-135742940D01*
X161945435Y-135674626D01*
X162236586Y-135480086D01*
X162431126Y-135188935D01*
X162499440Y-134845500D01*
X162499440Y-133345500D01*
X162496456Y-133330500D01*
X162847657Y-133330500D01*
X163301571Y-133142482D01*
X163648982Y-132795071D01*
X163837000Y-132341157D01*
X163837000Y-131849843D01*
X163648982Y-131395929D01*
X163301571Y-131048518D01*
X162847657Y-130860500D01*
X162356343Y-130860500D01*
X161902429Y-131048518D01*
X161555018Y-131395929D01*
X161367000Y-131849843D01*
X161367000Y-132341157D01*
X161411281Y-132448060D01*
X160402000Y-132448060D01*
X160058565Y-132516374D01*
X159767414Y-132710914D01*
X159590352Y-132975907D01*
X159394045Y-132756836D01*
X158871260Y-132505947D01*
X158858890Y-132504024D01*
X158629000Y-132625345D01*
X158375000Y-132625345D01*
X158145110Y-132504024D01*
X158132740Y-132505947D01*
X157609955Y-132756836D01*
X157222976Y-133188688D01*
X157030716Y-133735758D01*
X131102627Y-133735758D01*
X131149522Y-133500000D01*
X131100239Y-133252235D01*
X130959891Y-133042191D01*
X129757809Y-131840109D01*
X129547765Y-131699761D01*
X129300000Y-131650478D01*
X129052235Y-131699761D01*
X128964516Y-131758374D01*
X128945435Y-131347057D01*
X128775586Y-130937031D01*
X128527242Y-130860261D01*
X127683554Y-131703949D01*
X127697697Y-131718092D01*
X127518092Y-131897697D01*
X127503949Y-131883554D01*
X126660261Y-132727242D01*
X114548958Y-132727242D01*
X117368302Y-129907898D01*
X124193806Y-129907898D01*
X124309059Y-130487316D01*
X124637273Y-130978523D01*
X125128480Y-131306737D01*
X125561642Y-131392898D01*
X125854154Y-131392898D01*
X126084305Y-131347118D01*
X126035613Y-131482041D01*
X126062463Y-132060841D01*
X126232312Y-132470867D01*
X126480656Y-132547637D01*
X127324344Y-131703949D01*
X127310202Y-131689807D01*
X127489807Y-131510202D01*
X127503949Y-131524344D01*
X128347637Y-130680656D01*
X128270867Y-130432312D01*
X127860841Y-130262463D01*
X127282041Y-130235613D01*
X127147118Y-130284305D01*
X127221990Y-129907898D01*
X127106737Y-129328480D01*
X126778523Y-128837273D01*
X126287316Y-128509059D01*
X125854154Y-128422898D01*
X125561642Y-128422898D01*
X125128480Y-128509059D01*
X124637273Y-128837273D01*
X124309059Y-129328480D01*
X124193806Y-129907898D01*
X117368302Y-129907898D01*
X123008004Y-124268197D01*
X123551076Y-123455431D01*
X124465000Y-123455431D01*
X124465000Y-124344569D01*
X124805259Y-125166026D01*
X125433974Y-125794741D01*
X126255431Y-126135000D01*
X127144569Y-126135000D01*
X127966026Y-125794741D01*
X128594741Y-125166026D01*
X128935000Y-124344569D01*
X128935000Y-123455431D01*
X128852158Y-123255431D01*
X164565000Y-123255431D01*
X164565000Y-124144569D01*
X164905259Y-124966026D01*
X165533974Y-125594741D01*
X166355431Y-125935000D01*
X167244569Y-125935000D01*
X168066026Y-125594741D01*
X168694741Y-124966026D01*
X169035000Y-124144569D01*
X169035000Y-123255431D01*
X168694741Y-122433974D01*
X168066026Y-121805259D01*
X167244569Y-121465000D01*
X166355431Y-121465000D01*
X165533974Y-121805259D01*
X164905259Y-122433974D01*
X164565000Y-123255431D01*
X128852158Y-123255431D01*
X128594741Y-122633974D01*
X127966026Y-122005259D01*
X127144569Y-121665000D01*
X126255431Y-121665000D01*
X125433974Y-122005259D01*
X124805259Y-122633974D01*
X124465000Y-123455431D01*
X123551076Y-123455431D01*
X124021684Y-122751117D01*
X124497832Y-120357359D01*
X124021684Y-117963601D01*
X122665729Y-115934271D01*
X120636399Y-114578316D01*
X118242641Y-114102168D01*
X115848883Y-114578316D01*
X114331803Y-115591996D01*
X104991996Y-124931804D01*
X103978316Y-126448884D01*
X103502168Y-128842641D01*
X97775010Y-128842641D01*
X92427170Y-123447890D01*
X92428122Y-123155431D01*
X96865000Y-123155431D01*
X96865000Y-124044569D01*
X97205259Y-124866026D01*
X97833974Y-125494741D01*
X98655431Y-125835000D01*
X99544569Y-125835000D01*
X100366026Y-125494741D01*
X100994741Y-124866026D01*
X101335000Y-124044569D01*
X101335000Y-123155431D01*
X100994741Y-122333974D01*
X100366026Y-121705259D01*
X99544569Y-121365000D01*
X98655431Y-121365000D01*
X97833974Y-121705259D01*
X97205259Y-122333974D01*
X96865000Y-123155431D01*
X92428122Y-123155431D01*
X92464603Y-111955431D01*
X112965000Y-111955431D01*
X112965000Y-112844569D01*
X113305259Y-113666026D01*
X113933974Y-114294741D01*
X114755431Y-114635000D01*
X115644569Y-114635000D01*
X116466026Y-114294741D01*
X117094741Y-113666026D01*
X117435000Y-112844569D01*
X117435000Y-111955431D01*
X117094741Y-111133974D01*
X116466026Y-110505259D01*
X115644569Y-110165000D01*
X114755431Y-110165000D01*
X113933974Y-110505259D01*
X113305259Y-111133974D01*
X112965000Y-111955431D01*
X92464603Y-111955431D01*
X92490136Y-104116890D01*
X109518524Y-104116890D01*
X109688355Y-104526924D01*
X110078642Y-104955183D01*
X110603108Y-105201486D01*
X110833000Y-105080819D01*
X110833000Y-103887000D01*
X109639845Y-103887000D01*
X109518524Y-104116890D01*
X92490136Y-104116890D01*
X92498718Y-101482392D01*
X101172907Y-101482392D01*
X101172907Y-103182392D01*
X101222190Y-103430157D01*
X101362538Y-103640201D01*
X101572582Y-103780549D01*
X101820347Y-103829832D01*
X103520347Y-103829832D01*
X103768112Y-103780549D01*
X103978156Y-103640201D01*
X104118504Y-103430157D01*
X104167787Y-103182392D01*
X104167787Y-101482392D01*
X104118504Y-101234627D01*
X103978156Y-101024583D01*
X103768112Y-100884235D01*
X103664639Y-100863653D01*
X103941992Y-100559316D01*
X104111823Y-100149282D01*
X103990502Y-99919392D01*
X102797347Y-99919392D01*
X102797347Y-99939392D01*
X102543347Y-99939392D01*
X102543347Y-99919392D01*
X101350192Y-99919392D01*
X101228871Y-100149282D01*
X101398702Y-100559316D01*
X101676055Y-100863653D01*
X101572582Y-100884235D01*
X101362538Y-101024583D01*
X101222190Y-101234627D01*
X101172907Y-101482392D01*
X92498718Y-101482392D01*
X92561682Y-82152392D01*
X101156255Y-82152392D01*
X101271508Y-82731810D01*
X101599722Y-83223017D01*
X101918825Y-83436235D01*
X101788989Y-83497209D01*
X101398702Y-83925468D01*
X101228871Y-84335502D01*
X101350192Y-84565392D01*
X102543347Y-84565392D01*
X102543347Y-84545392D01*
X102797347Y-84545392D01*
X102797347Y-84565392D01*
X102817347Y-84565392D01*
X102817347Y-84819392D01*
X102797347Y-84819392D01*
X102797347Y-84839392D01*
X102543347Y-84839392D01*
X102543347Y-84819392D01*
X101350192Y-84819392D01*
X101228871Y-85049282D01*
X101398702Y-85459316D01*
X101676055Y-85763653D01*
X101572582Y-85784235D01*
X101362538Y-85924583D01*
X101222190Y-86134627D01*
X101172907Y-86382392D01*
X101172907Y-88082392D01*
X101222190Y-88330157D01*
X101362538Y-88540201D01*
X101572582Y-88680549D01*
X101820347Y-88729832D01*
X103520347Y-88729832D01*
X103768112Y-88680549D01*
X103978156Y-88540201D01*
X104118504Y-88330157D01*
X104167787Y-88082392D01*
X104167787Y-86382392D01*
X104118504Y-86134627D01*
X103978156Y-85924583D01*
X103768112Y-85784235D01*
X103664639Y-85763653D01*
X103941992Y-85459316D01*
X104042310Y-85217111D01*
X109518791Y-90693593D01*
X109445908Y-91060000D01*
X109561161Y-91639418D01*
X109889375Y-92130625D01*
X110187761Y-92330000D01*
X109889375Y-92529375D01*
X109561161Y-93020582D01*
X109445908Y-93600000D01*
X109528457Y-94015001D01*
X105222585Y-94015001D01*
X105147738Y-94000113D01*
X105072891Y-94015001D01*
X105072886Y-94015001D01*
X104851201Y-94059097D01*
X104599809Y-94227072D01*
X104557409Y-94290528D01*
X103036755Y-95811183D01*
X102816603Y-95767392D01*
X102524091Y-95767392D01*
X102090929Y-95853553D01*
X101599722Y-96181767D01*
X101271508Y-96672974D01*
X101156255Y-97252392D01*
X101271508Y-97831810D01*
X101599722Y-98323017D01*
X101918825Y-98536235D01*
X101788989Y-98597209D01*
X101398702Y-99025468D01*
X101228871Y-99435502D01*
X101350192Y-99665392D01*
X102543347Y-99665392D01*
X102543347Y-99645392D01*
X102797347Y-99645392D01*
X102797347Y-99665392D01*
X103990502Y-99665392D01*
X104111823Y-99435502D01*
X103941992Y-99025468D01*
X103551705Y-98597209D01*
X103421869Y-98536235D01*
X103740972Y-98323017D01*
X104069186Y-97831810D01*
X104184439Y-97252392D01*
X104111556Y-96885984D01*
X105462540Y-95535001D01*
X109578254Y-95535001D01*
X109561161Y-95560582D01*
X109445908Y-96140000D01*
X109561161Y-96719418D01*
X109889375Y-97210625D01*
X110187761Y-97410000D01*
X109889375Y-97609375D01*
X109561161Y-98100582D01*
X109445908Y-98680000D01*
X109561161Y-99259418D01*
X109889375Y-99750625D01*
X110187761Y-99950000D01*
X109889375Y-100149375D01*
X109561161Y-100640582D01*
X109445908Y-101220000D01*
X109561161Y-101799418D01*
X109889375Y-102290625D01*
X110208478Y-102503843D01*
X110078642Y-102564817D01*
X109688355Y-102993076D01*
X109518524Y-103403110D01*
X109639845Y-103633000D01*
X110833000Y-103633000D01*
X110833000Y-103613000D01*
X111087000Y-103613000D01*
X111087000Y-103633000D01*
X111107000Y-103633000D01*
X111107000Y-103887000D01*
X111087000Y-103887000D01*
X111087000Y-105080819D01*
X111316892Y-105201486D01*
X111841358Y-104955183D01*
X112228647Y-104530214D01*
X112429375Y-104830625D01*
X112920582Y-105158839D01*
X113353744Y-105245000D01*
X113646256Y-105245000D01*
X114079418Y-105158839D01*
X114570625Y-104830625D01*
X114778178Y-104520000D01*
X127246151Y-104520000D01*
X127320998Y-104534888D01*
X127395845Y-104520000D01*
X127395850Y-104520000D01*
X127617535Y-104475904D01*
X127734776Y-104397566D01*
X127788355Y-104526924D01*
X128178642Y-104955183D01*
X128703108Y-105201486D01*
X128933000Y-105080819D01*
X128933000Y-103887000D01*
X128913000Y-103887000D01*
X128913000Y-103633000D01*
X128933000Y-103633000D01*
X128933000Y-103613000D01*
X129187000Y-103613000D01*
X129187000Y-103633000D01*
X129207000Y-103633000D01*
X129207000Y-103887000D01*
X129187000Y-103887000D01*
X129187000Y-105080819D01*
X129416892Y-105201486D01*
X129941358Y-104955183D01*
X130328647Y-104530214D01*
X130529375Y-104830625D01*
X131020582Y-105158839D01*
X131453744Y-105245000D01*
X131746256Y-105245000D01*
X132179418Y-105158839D01*
X132670625Y-104830625D01*
X132998839Y-104339418D01*
X133114092Y-103760000D01*
X132998839Y-103180582D01*
X132670625Y-102689375D01*
X132372239Y-102490000D01*
X132670625Y-102290625D01*
X132998839Y-101799418D01*
X133114092Y-101220000D01*
X133031543Y-100804999D01*
X134556138Y-100804999D01*
X134513720Y-100822569D01*
X134222569Y-101113720D01*
X134065000Y-101494126D01*
X134065000Y-101905874D01*
X134222569Y-102286280D01*
X134340000Y-102403711D01*
X134340001Y-116125144D01*
X134340000Y-116125149D01*
X134340001Y-119085197D01*
X132460199Y-120965000D01*
X132294126Y-120965000D01*
X131913720Y-121122569D01*
X131622569Y-121413720D01*
X131465000Y-121794126D01*
X131465000Y-122205874D01*
X131622569Y-122586280D01*
X131913720Y-122877431D01*
X132294126Y-123035000D01*
X132705874Y-123035000D01*
X133086280Y-122877431D01*
X133377431Y-122586280D01*
X133535000Y-122205874D01*
X133535000Y-122039801D01*
X134817442Y-120757359D01*
X168602168Y-120757359D01*
X169078316Y-123151116D01*
X170091996Y-124668196D01*
X179431803Y-134008004D01*
X180948883Y-135021684D01*
X183342641Y-135497832D01*
X185736399Y-135021684D01*
X187765729Y-133665729D01*
X189121684Y-131636399D01*
X189597832Y-129242641D01*
X189121684Y-126848883D01*
X188108004Y-125331803D01*
X185631632Y-122855431D01*
X192165000Y-122855431D01*
X192165000Y-123744569D01*
X192505259Y-124566026D01*
X193133974Y-125194741D01*
X193955431Y-125535000D01*
X194844569Y-125535000D01*
X195666026Y-125194741D01*
X196294741Y-124566026D01*
X196635000Y-123744569D01*
X196635000Y-122855431D01*
X196294741Y-122033974D01*
X195666026Y-121405259D01*
X194844569Y-121065000D01*
X193955431Y-121065000D01*
X193133974Y-121405259D01*
X192505259Y-122033974D01*
X192165000Y-122855431D01*
X185631632Y-122855431D01*
X178768196Y-115991996D01*
X177251116Y-114978316D01*
X174857359Y-114502168D01*
X172463602Y-114978316D01*
X170434272Y-116334272D01*
X169078316Y-118363602D01*
X168602168Y-120757359D01*
X134817442Y-120757359D01*
X135584473Y-119990329D01*
X135647929Y-119947929D01*
X135815904Y-119696537D01*
X135860000Y-119474852D01*
X135860000Y-119474848D01*
X135874888Y-119400001D01*
X135860000Y-119325154D01*
X135860000Y-111755431D01*
X176065000Y-111755431D01*
X176065000Y-112644569D01*
X176405259Y-113466026D01*
X177033974Y-114094741D01*
X177855431Y-114435000D01*
X178744569Y-114435000D01*
X179566026Y-114094741D01*
X180194741Y-113466026D01*
X180225361Y-113392102D01*
X182493806Y-113392102D01*
X182609059Y-113971520D01*
X182937273Y-114462727D01*
X183428480Y-114790941D01*
X183861642Y-114877102D01*
X184154154Y-114877102D01*
X184587316Y-114790941D01*
X185078523Y-114462727D01*
X185406737Y-113971520D01*
X185521990Y-113392102D01*
X185447118Y-113015695D01*
X185582041Y-113064387D01*
X186160841Y-113037537D01*
X186570867Y-112867688D01*
X186647637Y-112619344D01*
X185803949Y-111775656D01*
X185789807Y-111789799D01*
X185610202Y-111610194D01*
X185624344Y-111596051D01*
X184780656Y-110752363D01*
X184532312Y-110829133D01*
X184362463Y-111239159D01*
X184335613Y-111817959D01*
X184384305Y-111952882D01*
X184154154Y-111907102D01*
X183861642Y-111907102D01*
X183428480Y-111993263D01*
X182937273Y-112321477D01*
X182609059Y-112812684D01*
X182493806Y-113392102D01*
X180225361Y-113392102D01*
X180535000Y-112644569D01*
X180535000Y-111755431D01*
X180194741Y-110933974D01*
X179833525Y-110572758D01*
X184960261Y-110572758D01*
X185803949Y-111416446D01*
X185818092Y-111402304D01*
X185997697Y-111581909D01*
X185983554Y-111596051D01*
X186827242Y-112439739D01*
X187075586Y-112362969D01*
X187245435Y-111952943D01*
X187264516Y-111541626D01*
X187352235Y-111600239D01*
X187600000Y-111649522D01*
X187847765Y-111600239D01*
X188057809Y-111459891D01*
X189259891Y-110257809D01*
X189400239Y-110047765D01*
X189449522Y-109800000D01*
X189400239Y-109552235D01*
X189259891Y-109342191D01*
X188057809Y-108140109D01*
X187847765Y-107999761D01*
X187600000Y-107950478D01*
X187352235Y-107999761D01*
X187142191Y-108140109D01*
X185940109Y-109342191D01*
X185799761Y-109552235D01*
X185750478Y-109800000D01*
X185799761Y-110047765D01*
X185858374Y-110135484D01*
X185447057Y-110154565D01*
X185037031Y-110324414D01*
X184960261Y-110572758D01*
X179833525Y-110572758D01*
X179566026Y-110305259D01*
X178744569Y-109965000D01*
X177855431Y-109965000D01*
X177033974Y-110305259D01*
X176405259Y-110933974D01*
X176065000Y-111755431D01*
X135860000Y-111755431D01*
X135860000Y-102403711D01*
X135977431Y-102286280D01*
X136135000Y-101905874D01*
X136135000Y-101494126D01*
X135977431Y-101113720D01*
X135686280Y-100822569D01*
X135643862Y-100804999D01*
X139110198Y-100804999D01*
X139215980Y-100910781D01*
X139203000Y-100942119D01*
X139203000Y-101497881D01*
X139415680Y-102011337D01*
X139808663Y-102404320D01*
X140015513Y-102490000D01*
X139808663Y-102575680D01*
X139415680Y-102968663D01*
X139203000Y-103482119D01*
X139203000Y-103728199D01*
X138335000Y-102860199D01*
X138335000Y-102694126D01*
X138177431Y-102313720D01*
X137886280Y-102022569D01*
X137505874Y-101865000D01*
X137094126Y-101865000D01*
X136713720Y-102022569D01*
X136422569Y-102313720D01*
X136265000Y-102694126D01*
X136265000Y-103105874D01*
X136422569Y-103486280D01*
X136713720Y-103777431D01*
X137094126Y-103935000D01*
X137260199Y-103935000D01*
X142609671Y-109284473D01*
X142652071Y-109347929D01*
X142903463Y-109515904D01*
X143125148Y-109560000D01*
X143125152Y-109560000D01*
X143199999Y-109574888D01*
X143274846Y-109560000D01*
X165896289Y-109560000D01*
X166013720Y-109677431D01*
X166394126Y-109835000D01*
X166805874Y-109835000D01*
X167186280Y-109677431D01*
X167477431Y-109386280D01*
X167635000Y-109005874D01*
X167635000Y-108594126D01*
X167477431Y-108213720D01*
X167186280Y-107922569D01*
X166805874Y-107765000D01*
X166394126Y-107765000D01*
X166013720Y-107922569D01*
X165896289Y-108040000D01*
X143514802Y-108040000D01*
X140631801Y-105157000D01*
X140877881Y-105157000D01*
X141391337Y-104944320D01*
X141784320Y-104551337D01*
X141997000Y-104037881D01*
X141997000Y-103482119D01*
X141784320Y-102968663D01*
X141391337Y-102575680D01*
X141184487Y-102490000D01*
X141391337Y-102404320D01*
X141620335Y-102175322D01*
X149965000Y-102175322D01*
X149965000Y-103024678D01*
X150290034Y-103809380D01*
X150890620Y-104409966D01*
X151675322Y-104735000D01*
X152524678Y-104735000D01*
X153309380Y-104409966D01*
X153909966Y-103809380D01*
X154235000Y-103024678D01*
X154235000Y-102175322D01*
X153909966Y-101390620D01*
X153309380Y-100790034D01*
X152524678Y-100465000D01*
X151675322Y-100465000D01*
X150890620Y-100790034D01*
X150290034Y-101390620D01*
X149965000Y-102175322D01*
X141620335Y-102175322D01*
X141784320Y-102011337D01*
X141997000Y-101497881D01*
X141997000Y-100942119D01*
X141784320Y-100428663D01*
X141391337Y-100035680D01*
X141184487Y-99950000D01*
X141391337Y-99864320D01*
X141784320Y-99471337D01*
X141997000Y-98957881D01*
X141997000Y-98402119D01*
X141784320Y-97888663D01*
X141391337Y-97495680D01*
X141184487Y-97410000D01*
X141391337Y-97324320D01*
X141784320Y-96931337D01*
X141997000Y-96417881D01*
X141997000Y-95862119D01*
X141784320Y-95348663D01*
X141391337Y-94955680D01*
X141184487Y-94870000D01*
X141391337Y-94784320D01*
X141784320Y-94391337D01*
X141997000Y-93877881D01*
X141997000Y-93322119D01*
X141784320Y-92808663D01*
X141391337Y-92415680D01*
X141184487Y-92330000D01*
X141391337Y-92244320D01*
X141784320Y-91851337D01*
X141997000Y-91337881D01*
X141997000Y-90991801D01*
X148994672Y-97989475D01*
X149037070Y-98052928D01*
X149100523Y-98095326D01*
X149100525Y-98095328D01*
X149223402Y-98177431D01*
X149288462Y-98220903D01*
X149510147Y-98264999D01*
X149510151Y-98264999D01*
X149584998Y-98279887D01*
X149659845Y-98264999D01*
X160728457Y-98264999D01*
X160645908Y-98680000D01*
X160761161Y-99259418D01*
X161089375Y-99750625D01*
X161387761Y-99950000D01*
X161089375Y-100149375D01*
X160761161Y-100640582D01*
X160645908Y-101220000D01*
X160761161Y-101799418D01*
X161089375Y-102290625D01*
X161387761Y-102490000D01*
X161089375Y-102689375D01*
X160761161Y-103180582D01*
X160645908Y-103760000D01*
X160761161Y-104339418D01*
X161089375Y-104830625D01*
X161580582Y-105158839D01*
X162013744Y-105245000D01*
X162306256Y-105245000D01*
X162526407Y-105201209D01*
X162744674Y-105419477D01*
X162787072Y-105482930D01*
X162850525Y-105525328D01*
X162850527Y-105525330D01*
X162975903Y-105609103D01*
X163038464Y-105650905D01*
X163260149Y-105695001D01*
X163260153Y-105695001D01*
X163335000Y-105709889D01*
X163409847Y-105695001D01*
X175160154Y-105695001D01*
X175235001Y-105709889D01*
X175309848Y-105695001D01*
X175309853Y-105695001D01*
X175531538Y-105650905D01*
X175782930Y-105482930D01*
X175825332Y-105419471D01*
X176724805Y-104520000D01*
X178581822Y-104520000D01*
X178789375Y-104830625D01*
X179280582Y-105158839D01*
X179713744Y-105245000D01*
X180006256Y-105245000D01*
X180439418Y-105158839D01*
X180930625Y-104830625D01*
X181130000Y-104532239D01*
X181329375Y-104830625D01*
X181820582Y-105158839D01*
X182253744Y-105245000D01*
X182546256Y-105245000D01*
X182979418Y-105158839D01*
X183470625Y-104830625D01*
X183798839Y-104339418D01*
X183914092Y-103760000D01*
X183798839Y-103180582D01*
X183470625Y-102689375D01*
X183172239Y-102490000D01*
X183470625Y-102290625D01*
X183798839Y-101799418D01*
X183914092Y-101220000D01*
X183798839Y-100640582D01*
X183470625Y-100149375D01*
X183172239Y-99950000D01*
X183470625Y-99750625D01*
X183798839Y-99259418D01*
X183914092Y-98680000D01*
X183798839Y-98100582D01*
X183470625Y-97609375D01*
X183172239Y-97410000D01*
X183470625Y-97210625D01*
X183798839Y-96719418D01*
X183914092Y-96140000D01*
X183798839Y-95560582D01*
X183470625Y-95069375D01*
X183172239Y-94870000D01*
X183470625Y-94670625D01*
X183798839Y-94179418D01*
X183914092Y-93600000D01*
X183798839Y-93020582D01*
X183470625Y-92529375D01*
X183172239Y-92330000D01*
X183470625Y-92130625D01*
X183798839Y-91639418D01*
X183914092Y-91060000D01*
X183798839Y-90480582D01*
X183470625Y-89989375D01*
X183172239Y-89790000D01*
X183470625Y-89590625D01*
X183798839Y-89099418D01*
X183914092Y-88520000D01*
X183798839Y-87940582D01*
X183470625Y-87449375D01*
X183172239Y-87250000D01*
X183470625Y-87050625D01*
X183798839Y-86559418D01*
X183914092Y-85980000D01*
X183798839Y-85400582D01*
X183470625Y-84909375D01*
X183172239Y-84710000D01*
X183470625Y-84510625D01*
X183798839Y-84019418D01*
X183914092Y-83440000D01*
X183798839Y-82860582D01*
X183470625Y-82369375D01*
X183452381Y-82357184D01*
X183497765Y-82348157D01*
X183707809Y-82207809D01*
X183848157Y-81997765D01*
X183897440Y-81750000D01*
X183897440Y-80050000D01*
X183848157Y-79802235D01*
X183707809Y-79592191D01*
X183497765Y-79451843D01*
X183250000Y-79402560D01*
X183048483Y-79402560D01*
X182947929Y-79252071D01*
X182902969Y-79222030D01*
X182872928Y-79177070D01*
X182621536Y-79009095D01*
X182399851Y-78964999D01*
X182399846Y-78964999D01*
X182324999Y-78950111D01*
X182250152Y-78964999D01*
X167049847Y-78964999D01*
X166975000Y-78950111D01*
X166900153Y-78964999D01*
X166900149Y-78964999D01*
X166678464Y-79009095D01*
X166620345Y-79047929D01*
X166490527Y-79134670D01*
X166490525Y-79134672D01*
X166427072Y-79177070D01*
X166384674Y-79240523D01*
X166017902Y-79607296D01*
X166007809Y-79592191D01*
X165797765Y-79451843D01*
X165550000Y-79402560D01*
X165348483Y-79402560D01*
X165247929Y-79252071D01*
X165184473Y-79209671D01*
X163990331Y-78015530D01*
X163947929Y-77952071D01*
X163696537Y-77784096D01*
X163474852Y-77740000D01*
X163474847Y-77740000D01*
X163400000Y-77725112D01*
X163325153Y-77740000D01*
X143074848Y-77740000D01*
X143000000Y-77725112D01*
X142925152Y-77740000D01*
X142925148Y-77740000D01*
X142703463Y-77784096D01*
X142452071Y-77952071D01*
X142409671Y-78015527D01*
X140909218Y-79515980D01*
X140877881Y-79503000D01*
X140322119Y-79503000D01*
X139808663Y-79715680D01*
X139415680Y-80108663D01*
X139203000Y-80622119D01*
X139203000Y-81177881D01*
X139415680Y-81691337D01*
X139808663Y-82084320D01*
X140015513Y-82170000D01*
X139808663Y-82255680D01*
X139415680Y-82648663D01*
X139203000Y-83162119D01*
X139203000Y-83717881D01*
X139415680Y-84231337D01*
X139808663Y-84624320D01*
X140015513Y-84710000D01*
X139808663Y-84795680D01*
X139415680Y-85188663D01*
X139203000Y-85702119D01*
X139203000Y-86257881D01*
X139415680Y-86771337D01*
X139808663Y-87164320D01*
X140015513Y-87250000D01*
X139808663Y-87335680D01*
X139415680Y-87728663D01*
X139203000Y-88242119D01*
X139203000Y-88797881D01*
X139415680Y-89311337D01*
X139808663Y-89704320D01*
X140015513Y-89790000D01*
X139808663Y-89875680D01*
X139415680Y-90268663D01*
X139203000Y-90782119D01*
X139203000Y-91337881D01*
X139415680Y-91851337D01*
X139808663Y-92244320D01*
X140015513Y-92330000D01*
X139808663Y-92415680D01*
X139415680Y-92808663D01*
X139203000Y-93322119D01*
X139203000Y-93877881D01*
X139415680Y-94391337D01*
X139808663Y-94784320D01*
X140015513Y-94870000D01*
X139808663Y-94955680D01*
X139415680Y-95348663D01*
X139203000Y-95862119D01*
X139203000Y-96417881D01*
X139415680Y-96931337D01*
X139808663Y-97324320D01*
X140015513Y-97410000D01*
X139808663Y-97495680D01*
X139415680Y-97888663D01*
X139402700Y-97920000D01*
X137843711Y-97920000D01*
X137877431Y-97886280D01*
X138035000Y-97505874D01*
X138035000Y-97094126D01*
X137877431Y-96713720D01*
X137760000Y-96596289D01*
X137760000Y-85774848D01*
X137774888Y-85700000D01*
X137760000Y-85625152D01*
X137760000Y-85625148D01*
X137715904Y-85403463D01*
X137547929Y-85152071D01*
X137484473Y-85109671D01*
X136180330Y-83805529D01*
X136137928Y-83742070D01*
X135886536Y-83574095D01*
X135664851Y-83529999D01*
X135664846Y-83529999D01*
X135589999Y-83515111D01*
X135515152Y-83529999D01*
X133096190Y-83529999D01*
X133114092Y-83440000D01*
X132998839Y-82860582D01*
X132670625Y-82369375D01*
X132652381Y-82357184D01*
X132697765Y-82348157D01*
X132907809Y-82207809D01*
X133048157Y-81997765D01*
X133097440Y-81750000D01*
X133097440Y-80050000D01*
X133048157Y-79802235D01*
X132907809Y-79592191D01*
X132697765Y-79451843D01*
X132450000Y-79402560D01*
X130750000Y-79402560D01*
X130502235Y-79451843D01*
X130292191Y-79592191D01*
X130151843Y-79802235D01*
X130142816Y-79847619D01*
X130130625Y-79829375D01*
X129639418Y-79501161D01*
X129206256Y-79415000D01*
X128913744Y-79415000D01*
X128693592Y-79458791D01*
X128475330Y-79240529D01*
X128432928Y-79177070D01*
X128181536Y-79009095D01*
X127959851Y-78964999D01*
X127959846Y-78964999D01*
X127884999Y-78950111D01*
X127810152Y-78964999D01*
X112209847Y-78964999D01*
X112135000Y-78950111D01*
X112060153Y-78964999D01*
X112060149Y-78964999D01*
X111838464Y-79009095D01*
X111780345Y-79047929D01*
X111650527Y-79134670D01*
X111650525Y-79134672D01*
X111587072Y-79177070D01*
X111544674Y-79240523D01*
X111326407Y-79458791D01*
X111106256Y-79415000D01*
X110813744Y-79415000D01*
X110380582Y-79501161D01*
X109889375Y-79829375D01*
X109652102Y-80184479D01*
X109652102Y-72386076D01*
X109962727Y-72178523D01*
X110111792Y-71955431D01*
X112865000Y-71955431D01*
X112865000Y-72844569D01*
X113205259Y-73666026D01*
X113833974Y-74294741D01*
X114655431Y-74635000D01*
X115544569Y-74635000D01*
X116366026Y-74294741D01*
X116994741Y-73666026D01*
X117335000Y-72844569D01*
X117335000Y-72494126D01*
X123565000Y-72494126D01*
X123565000Y-72905874D01*
X123722569Y-73286280D01*
X124013720Y-73577431D01*
X124394126Y-73735000D01*
X124805874Y-73735000D01*
X125186280Y-73577431D01*
X125477431Y-73286280D01*
X125635000Y-72905874D01*
X125635000Y-72739801D01*
X126419370Y-71955431D01*
X175565000Y-71955431D01*
X175565000Y-72844569D01*
X175905259Y-73666026D01*
X176533974Y-74294741D01*
X177355431Y-74635000D01*
X178244569Y-74635000D01*
X179066026Y-74294741D01*
X179694741Y-73666026D01*
X180035000Y-72844569D01*
X180035000Y-71955431D01*
X179694741Y-71133974D01*
X179066026Y-70505259D01*
X178244569Y-70165000D01*
X177355431Y-70165000D01*
X176533974Y-70505259D01*
X175905259Y-71133974D01*
X175565000Y-71955431D01*
X126419370Y-71955431D01*
X127114802Y-71260000D01*
X152009357Y-71260000D01*
X152084204Y-71274888D01*
X152159051Y-71260000D01*
X152159056Y-71260000D01*
X152380741Y-71215904D01*
X152632133Y-71047929D01*
X152674535Y-70984470D01*
X159616364Y-64042641D01*
X168402168Y-64042641D01*
X168878316Y-66436398D01*
X170234272Y-68465728D01*
X172263602Y-69821684D01*
X174657359Y-70297832D01*
X177051116Y-69821684D01*
X178568196Y-68808004D01*
X186420769Y-60955431D01*
X191765000Y-60955431D01*
X191765000Y-61844569D01*
X192105259Y-62666026D01*
X192733974Y-63294741D01*
X193555431Y-63635000D01*
X194444569Y-63635000D01*
X195266026Y-63294741D01*
X195894741Y-62666026D01*
X196235000Y-61844569D01*
X196235000Y-60955431D01*
X195894741Y-60133974D01*
X195266026Y-59505259D01*
X194444569Y-59165000D01*
X193555431Y-59165000D01*
X192733974Y-59505259D01*
X192105259Y-60133974D01*
X191765000Y-60955431D01*
X186420769Y-60955431D01*
X187908004Y-59468197D01*
X188921684Y-57951117D01*
X189397832Y-55557359D01*
X188921684Y-53163601D01*
X187565729Y-51134271D01*
X185536399Y-49778316D01*
X183142641Y-49302168D01*
X180748883Y-49778316D01*
X179231803Y-50791996D01*
X169891996Y-60131804D01*
X168878316Y-61648884D01*
X168402168Y-64042641D01*
X159616364Y-64042641D01*
X163203574Y-60455431D01*
X164065000Y-60455431D01*
X164065000Y-61344569D01*
X164405259Y-62166026D01*
X165033974Y-62794741D01*
X165855431Y-63135000D01*
X166744569Y-63135000D01*
X167566026Y-62794741D01*
X168194741Y-62166026D01*
X168535000Y-61344569D01*
X168535000Y-60455431D01*
X168194741Y-59633974D01*
X167566026Y-59005259D01*
X166744569Y-58665000D01*
X165855431Y-58665000D01*
X165033974Y-59005259D01*
X164405259Y-59633974D01*
X164065000Y-60455431D01*
X163203574Y-60455431D01*
X166925695Y-56733311D01*
X167145846Y-56777102D01*
X167438358Y-56777102D01*
X167871520Y-56690941D01*
X168362727Y-56362727D01*
X168690941Y-55871520D01*
X168806194Y-55292102D01*
X168690941Y-54712684D01*
X168362727Y-54221477D01*
X167871520Y-53893263D01*
X167438358Y-53807102D01*
X167145846Y-53807102D01*
X166915695Y-53852882D01*
X166964387Y-53717959D01*
X166937537Y-53139159D01*
X166767688Y-52729133D01*
X166519344Y-52652363D01*
X165675656Y-53496051D01*
X165689799Y-53510194D01*
X165510194Y-53689799D01*
X165496051Y-53675656D01*
X164652363Y-54519344D01*
X164729133Y-54767688D01*
X165139159Y-54937537D01*
X165717959Y-54964387D01*
X165852882Y-54915695D01*
X165778010Y-55292102D01*
X165850893Y-55658509D01*
X151769403Y-69740000D01*
X126874848Y-69740000D01*
X126800000Y-69725112D01*
X126725152Y-69740000D01*
X126725148Y-69740000D01*
X126551605Y-69774520D01*
X126503462Y-69784096D01*
X126316418Y-69909076D01*
X126252071Y-69952071D01*
X126209671Y-70015527D01*
X124560199Y-71665000D01*
X124394126Y-71665000D01*
X124013720Y-71822569D01*
X123722569Y-72113720D01*
X123565000Y-72494126D01*
X117335000Y-72494126D01*
X117335000Y-71955431D01*
X116994741Y-71133974D01*
X116366026Y-70505259D01*
X115544569Y-70165000D01*
X114655431Y-70165000D01*
X113833974Y-70505259D01*
X113205259Y-71133974D01*
X112865000Y-71955431D01*
X110111792Y-71955431D01*
X110290941Y-71687316D01*
X110406194Y-71107898D01*
X110290941Y-70528480D01*
X109962727Y-70037273D01*
X109471520Y-69709059D01*
X109038358Y-69622898D01*
X108745846Y-69622898D01*
X108312684Y-69709059D01*
X107821477Y-70037273D01*
X107493263Y-70528480D01*
X107378010Y-71107898D01*
X107452882Y-71484305D01*
X107317959Y-71435613D01*
X106739159Y-71462463D01*
X106329133Y-71632312D01*
X106252363Y-71880656D01*
X107096051Y-72724344D01*
X107110194Y-72710202D01*
X107289799Y-72889807D01*
X107275656Y-72903949D01*
X107289799Y-72918092D01*
X107110194Y-73097697D01*
X107096051Y-73083554D01*
X107081909Y-73097697D01*
X106902304Y-72918092D01*
X106916446Y-72903949D01*
X106072758Y-72060261D01*
X105824414Y-72137031D01*
X105654565Y-72547057D01*
X105635484Y-72958374D01*
X105547765Y-72899761D01*
X105300000Y-72850478D01*
X105052235Y-72899761D01*
X104842191Y-73040109D01*
X103640109Y-74242191D01*
X103499761Y-74452235D01*
X103450478Y-74700000D01*
X103499761Y-74947765D01*
X103640109Y-75157809D01*
X104842191Y-76359891D01*
X105052235Y-76500239D01*
X105300000Y-76549522D01*
X105547765Y-76500239D01*
X105757809Y-76359891D01*
X106959891Y-75157809D01*
X107100239Y-74947765D01*
X107149522Y-74700000D01*
X107100239Y-74452235D01*
X107041626Y-74364516D01*
X107452943Y-74345435D01*
X107862969Y-74175586D01*
X107939738Y-73927244D01*
X108056301Y-74043807D01*
X108132102Y-73968006D01*
X108132103Y-87157301D01*
X104605348Y-83630547D01*
X104605348Y-83402239D01*
X104620236Y-83327392D01*
X104605348Y-83252545D01*
X104605348Y-83252541D01*
X104561252Y-83030856D01*
X104464822Y-82886538D01*
X104435677Y-82842919D01*
X104435675Y-82842917D01*
X104393277Y-82779464D01*
X104329824Y-82737066D01*
X104111556Y-82518799D01*
X104184439Y-82152392D01*
X104069186Y-81572974D01*
X103740972Y-81081767D01*
X103249765Y-80753553D01*
X102816603Y-80667392D01*
X102524091Y-80667392D01*
X102090929Y-80753553D01*
X101599722Y-81081767D01*
X101271508Y-81572974D01*
X101156255Y-82152392D01*
X92561682Y-82152392D01*
X92626819Y-62155716D01*
X94247107Y-60555431D01*
X96265000Y-60555431D01*
X96265000Y-61444569D01*
X96605259Y-62266026D01*
X97233974Y-62894741D01*
X98055431Y-63235000D01*
X98944569Y-63235000D01*
X99766026Y-62894741D01*
X100394741Y-62266026D01*
X100735000Y-61444569D01*
X100735000Y-60555431D01*
X100394741Y-59733974D01*
X99766026Y-59105259D01*
X98944569Y-58765000D01*
X98055431Y-58765000D01*
X97233974Y-59105259D01*
X96605259Y-59733974D01*
X96265000Y-60555431D01*
X94247107Y-60555431D01*
X99307655Y-55557359D01*
X103402168Y-55557359D01*
X103878316Y-57951116D01*
X104891996Y-59468196D01*
X114231803Y-68808004D01*
X115748883Y-69821684D01*
X118142641Y-70297832D01*
X120536399Y-69821684D01*
X122565729Y-68465729D01*
X123921684Y-66436399D01*
X124188678Y-65094126D01*
X129665000Y-65094126D01*
X129665000Y-65505874D01*
X129822569Y-65886280D01*
X130113720Y-66177431D01*
X130494126Y-66335000D01*
X130905874Y-66335000D01*
X131286280Y-66177431D01*
X131577431Y-65886280D01*
X131735000Y-65505874D01*
X131735000Y-65094126D01*
X131577431Y-64713720D01*
X131460000Y-64596289D01*
X131460000Y-63485750D01*
X141865000Y-63485750D01*
X141865000Y-64126310D01*
X141961673Y-64359699D01*
X142140302Y-64538327D01*
X142373691Y-64635000D01*
X143014250Y-64635000D01*
X143173000Y-64476250D01*
X143173000Y-63327000D01*
X142023750Y-63327000D01*
X141865000Y-63485750D01*
X131460000Y-63485750D01*
X131460000Y-62273690D01*
X141865000Y-62273690D01*
X141865000Y-62914250D01*
X142023750Y-63073000D01*
X143173000Y-63073000D01*
X143173000Y-61923750D01*
X143427000Y-61923750D01*
X143427000Y-63073000D01*
X143447000Y-63073000D01*
X143447000Y-63327000D01*
X143427000Y-63327000D01*
X143427000Y-64476250D01*
X143585750Y-64635000D01*
X144226309Y-64635000D01*
X144459698Y-64538327D01*
X144638327Y-64359699D01*
X144723845Y-64153241D01*
X144987138Y-64416534D01*
X145514561Y-64635000D01*
X146085439Y-64635000D01*
X146612862Y-64416534D01*
X147016534Y-64012862D01*
X147235000Y-63485439D01*
X147235000Y-62914561D01*
X147016534Y-62387138D01*
X147015146Y-62385750D01*
X152165000Y-62385750D01*
X152165000Y-63326309D01*
X152261673Y-63559698D01*
X152440301Y-63738327D01*
X152673690Y-63835000D01*
X153614250Y-63835000D01*
X153773000Y-63676250D01*
X153773000Y-62227000D01*
X154027000Y-62227000D01*
X154027000Y-63676250D01*
X154185750Y-63835000D01*
X155126310Y-63835000D01*
X155359699Y-63738327D01*
X155538327Y-63559698D01*
X155635000Y-63326309D01*
X155635000Y-62385750D01*
X155476250Y-62227000D01*
X154027000Y-62227000D01*
X153773000Y-62227000D01*
X152323750Y-62227000D01*
X152165000Y-62385750D01*
X147015146Y-62385750D01*
X146612862Y-61983466D01*
X146085439Y-61765000D01*
X145514561Y-61765000D01*
X144987138Y-61983466D01*
X144723845Y-62246759D01*
X144638327Y-62040301D01*
X144459698Y-61861673D01*
X144226309Y-61765000D01*
X143585750Y-61765000D01*
X143427000Y-61923750D01*
X143173000Y-61923750D01*
X143014250Y-61765000D01*
X142373691Y-61765000D01*
X142140302Y-61861673D01*
X141961673Y-62040301D01*
X141865000Y-62273690D01*
X131460000Y-62273690D01*
X131460000Y-60873691D01*
X152165000Y-60873691D01*
X152165000Y-61814250D01*
X152323750Y-61973000D01*
X153773000Y-61973000D01*
X153773000Y-60523750D01*
X154027000Y-60523750D01*
X154027000Y-61973000D01*
X155476250Y-61973000D01*
X155635000Y-61814250D01*
X155635000Y-60873691D01*
X155538327Y-60640302D01*
X155359699Y-60461673D01*
X155126310Y-60365000D01*
X154185750Y-60365000D01*
X154027000Y-60523750D01*
X153773000Y-60523750D01*
X153614250Y-60365000D01*
X152673690Y-60365000D01*
X152440301Y-60461673D01*
X152261673Y-60640302D01*
X152165000Y-60873691D01*
X131460000Y-60873691D01*
X131460000Y-56214801D01*
X135734801Y-51940000D01*
X152131010Y-51940000D01*
X152265666Y-52616963D01*
X152649135Y-53190865D01*
X153223037Y-53574334D01*
X153729120Y-53675000D01*
X154070880Y-53675000D01*
X154576963Y-53574334D01*
X155150865Y-53190865D01*
X155534334Y-52616963D01*
X155668990Y-51940000D01*
X155621252Y-51700000D01*
X161850478Y-51700000D01*
X161899761Y-51947765D01*
X162040109Y-52157809D01*
X163242191Y-53359891D01*
X163452235Y-53500239D01*
X163700000Y-53549522D01*
X163947765Y-53500239D01*
X164035484Y-53441626D01*
X164054565Y-53852943D01*
X164224414Y-54262969D01*
X164472758Y-54339739D01*
X165316446Y-53496051D01*
X165302304Y-53481909D01*
X165481909Y-53302304D01*
X165496051Y-53316446D01*
X166339739Y-52472758D01*
X166262969Y-52224414D01*
X165852943Y-52054565D01*
X165441626Y-52035484D01*
X165500239Y-51947765D01*
X165549522Y-51700000D01*
X165500239Y-51452235D01*
X165359891Y-51242191D01*
X164157809Y-50040109D01*
X163947765Y-49899761D01*
X163700000Y-49850478D01*
X163452235Y-49899761D01*
X163242191Y-50040109D01*
X162040109Y-51242191D01*
X161899761Y-51452235D01*
X161850478Y-51700000D01*
X155621252Y-51700000D01*
X155534334Y-51263037D01*
X155150865Y-50689135D01*
X154576963Y-50305666D01*
X154070880Y-50205000D01*
X153729120Y-50205000D01*
X153223037Y-50305666D01*
X152649135Y-50689135D01*
X152265666Y-51263037D01*
X152131010Y-51940000D01*
X135734801Y-51940000D01*
X139189803Y-48484999D01*
X142102560Y-48484999D01*
X142102560Y-49750000D01*
X142151843Y-49997765D01*
X142292191Y-50207809D01*
X142502235Y-50348157D01*
X142750000Y-50397440D01*
X144450000Y-50397440D01*
X144697765Y-50348157D01*
X144907809Y-50207809D01*
X145048157Y-49997765D01*
X145068739Y-49894292D01*
X145373076Y-50171645D01*
X145783110Y-50341476D01*
X146013000Y-50220155D01*
X146013000Y-49027000D01*
X145993000Y-49027000D01*
X145993000Y-48773000D01*
X146013000Y-48773000D01*
X146013000Y-48753000D01*
X146267000Y-48753000D01*
X146267000Y-48773000D01*
X146287000Y-48773000D01*
X146287000Y-49027000D01*
X146267000Y-49027000D01*
X146267000Y-50220155D01*
X146496890Y-50341476D01*
X146906924Y-50171645D01*
X147335183Y-49781358D01*
X147396157Y-49651522D01*
X147609375Y-49970625D01*
X148100582Y-50298839D01*
X148533744Y-50385000D01*
X148826256Y-50385000D01*
X149259418Y-50298839D01*
X149750625Y-49970625D01*
X150078839Y-49479418D01*
X150194092Y-48900000D01*
X150078839Y-48320582D01*
X149750625Y-47829375D01*
X149259418Y-47501161D01*
X148826256Y-47415000D01*
X148533744Y-47415000D01*
X148313592Y-47458791D01*
X148095330Y-47240529D01*
X148052928Y-47177070D01*
X147801536Y-47009095D01*
X147579851Y-46964999D01*
X147579846Y-46964999D01*
X147504999Y-46950111D01*
X147430152Y-46964999D01*
X138949847Y-46964999D01*
X138875000Y-46950111D01*
X138800153Y-46964999D01*
X138800149Y-46964999D01*
X138578464Y-47009095D01*
X138327072Y-47177070D01*
X138284672Y-47240526D01*
X130215530Y-55309669D01*
X130152071Y-55352071D01*
X129984096Y-55603464D01*
X129940000Y-55825149D01*
X129940000Y-55825153D01*
X129925112Y-55900000D01*
X129940000Y-55974847D01*
X129940001Y-64596288D01*
X129822569Y-64713720D01*
X129665000Y-65094126D01*
X124188678Y-65094126D01*
X124397832Y-64042641D01*
X123921684Y-61648883D01*
X123257881Y-60655431D01*
X124165000Y-60655431D01*
X124165000Y-61544569D01*
X124505259Y-62366026D01*
X125133974Y-62994741D01*
X125955431Y-63335000D01*
X126844569Y-63335000D01*
X127666026Y-62994741D01*
X128294741Y-62366026D01*
X128635000Y-61544569D01*
X128635000Y-60655431D01*
X128294741Y-59833974D01*
X127666026Y-59205259D01*
X126844569Y-58865000D01*
X125955431Y-58865000D01*
X125133974Y-59205259D01*
X124505259Y-59833974D01*
X124165000Y-60655431D01*
X123257881Y-60655431D01*
X122908004Y-60131803D01*
X113568196Y-50791996D01*
X112051116Y-49778316D01*
X109657359Y-49302168D01*
X107263602Y-49778316D01*
X105234272Y-51134272D01*
X103878316Y-53163602D01*
X103402168Y-55557359D01*
X99307655Y-55557359D01*
X110852107Y-44155431D01*
X112665000Y-44155431D01*
X112665000Y-45044569D01*
X113005259Y-45866026D01*
X113633974Y-46494741D01*
X114455431Y-46835000D01*
X115344569Y-46835000D01*
X116166026Y-46494741D01*
X116794741Y-45866026D01*
X117135000Y-45044569D01*
X117135000Y-44555431D01*
X175365000Y-44555431D01*
X175365000Y-45444569D01*
X175705259Y-46266026D01*
X176333974Y-46894741D01*
X177155431Y-47235000D01*
X178044569Y-47235000D01*
X178866026Y-46894741D01*
X179494741Y-46266026D01*
X179835000Y-45444569D01*
X179835000Y-44555431D01*
X179494741Y-43733974D01*
X178866026Y-43105259D01*
X178044569Y-42765000D01*
X177155431Y-42765000D01*
X176333974Y-43105259D01*
X175705259Y-43733974D01*
X175365000Y-44555431D01*
X117135000Y-44555431D01*
X117135000Y-44155431D01*
X116794741Y-43333974D01*
X116166026Y-42705259D01*
X115344569Y-42365000D01*
X114455431Y-42365000D01*
X113633974Y-42705259D01*
X113005259Y-43333974D01*
X112665000Y-44155431D01*
X110852107Y-44155431D01*
X116652144Y-38427000D01*
X178046757Y-38427000D01*
X201173000Y-61951971D01*
X201173000Y-61951971D01*
G37*
X201173000Y-61951971D02*
X201173000Y-123548044D01*
X178652875Y-146465000D01*
X144310008Y-146465000D01*
X115153096Y-146373167D01*
X108394645Y-139555431D01*
X113265000Y-139555431D01*
X113265000Y-140444569D01*
X113605259Y-141266026D01*
X114233974Y-141894741D01*
X115055431Y-142235000D01*
X115944569Y-142235000D01*
X116766026Y-141894741D01*
X117394741Y-141266026D01*
X117735000Y-140444569D01*
X117735000Y-139555431D01*
X117610736Y-139255431D01*
X175765000Y-139255431D01*
X175765000Y-140144569D01*
X176105259Y-140966026D01*
X176733974Y-141594741D01*
X177555431Y-141935000D01*
X178444569Y-141935000D01*
X179266026Y-141594741D01*
X179894741Y-140966026D01*
X180235000Y-140144569D01*
X180235000Y-139255431D01*
X179894741Y-138433974D01*
X179266026Y-137805259D01*
X178444569Y-137465000D01*
X177555431Y-137465000D01*
X176733974Y-137805259D01*
X176105259Y-138433974D01*
X175765000Y-139255431D01*
X117610736Y-139255431D01*
X117394741Y-138733974D01*
X116766026Y-138105259D01*
X115944569Y-137765000D01*
X115055431Y-137765000D01*
X114233974Y-138105259D01*
X113605259Y-138733974D01*
X113265000Y-139555431D01*
X108394645Y-139555431D01*
X97775010Y-128842641D01*
X103502168Y-128842641D01*
X103978316Y-131236398D01*
X105334272Y-133265728D01*
X107363602Y-134621684D01*
X109757359Y-135097832D01*
X112151116Y-134621684D01*
X113668196Y-133608004D01*
X114548958Y-132727242D01*
X126660261Y-132727242D01*
X126737031Y-132975586D01*
X127147057Y-133145435D01*
X127558374Y-133164516D01*
X127499761Y-133252235D01*
X127450478Y-133500000D01*
X127499761Y-133747765D01*
X127640109Y-133957809D01*
X128842191Y-135159891D01*
X129052235Y-135300239D01*
X129300000Y-135349522D01*
X129547765Y-135300239D01*
X129757809Y-135159891D01*
X130462458Y-134455242D01*
X157030716Y-134455242D01*
X157222976Y-135002312D01*
X157609955Y-135434164D01*
X158132740Y-135685053D01*
X158145110Y-135686976D01*
X158375000Y-135565655D01*
X158375000Y-134222500D01*
X157174769Y-134222500D01*
X157030716Y-134455242D01*
X130462458Y-134455242D01*
X130959891Y-133957809D01*
X131100239Y-133747765D01*
X131102627Y-133735758D01*
X157030716Y-133735758D01*
X157174769Y-133968500D01*
X158375000Y-133968500D01*
X158375000Y-132625345D01*
X158629000Y-132625345D01*
X158629000Y-133968500D01*
X158649000Y-133968500D01*
X158649000Y-134222500D01*
X158629000Y-134222500D01*
X158629000Y-135565655D01*
X158858890Y-135686976D01*
X158871260Y-135685053D01*
X159394045Y-135434164D01*
X159590352Y-135215093D01*
X159767414Y-135480086D01*
X160058565Y-135674626D01*
X160402000Y-135742940D01*
X161602000Y-135742940D01*
X161945435Y-135674626D01*
X162236586Y-135480086D01*
X162431126Y-135188935D01*
X162499440Y-134845500D01*
X162499440Y-133345500D01*
X162496456Y-133330500D01*
X162847657Y-133330500D01*
X163301571Y-133142482D01*
X163648982Y-132795071D01*
X163837000Y-132341157D01*
X163837000Y-131849843D01*
X163648982Y-131395929D01*
X163301571Y-131048518D01*
X162847657Y-130860500D01*
X162356343Y-130860500D01*
X161902429Y-131048518D01*
X161555018Y-131395929D01*
X161367000Y-131849843D01*
X161367000Y-132341157D01*
X161411281Y-132448060D01*
X160402000Y-132448060D01*
X160058565Y-132516374D01*
X159767414Y-132710914D01*
X159590352Y-132975907D01*
X159394045Y-132756836D01*
X158871260Y-132505947D01*
X158858890Y-132504024D01*
X158629000Y-132625345D01*
X158375000Y-132625345D01*
X158145110Y-132504024D01*
X158132740Y-132505947D01*
X157609955Y-132756836D01*
X157222976Y-133188688D01*
X157030716Y-133735758D01*
X131102627Y-133735758D01*
X131149522Y-133500000D01*
X131100239Y-133252235D01*
X130959891Y-133042191D01*
X129757809Y-131840109D01*
X129547765Y-131699761D01*
X129300000Y-131650478D01*
X129052235Y-131699761D01*
X128964516Y-131758374D01*
X128945435Y-131347057D01*
X128775586Y-130937031D01*
X128527242Y-130860261D01*
X127683554Y-131703949D01*
X127697697Y-131718092D01*
X127518092Y-131897697D01*
X127503949Y-131883554D01*
X126660261Y-132727242D01*
X114548958Y-132727242D01*
X117368302Y-129907898D01*
X124193806Y-129907898D01*
X124309059Y-130487316D01*
X124637273Y-130978523D01*
X125128480Y-131306737D01*
X125561642Y-131392898D01*
X125854154Y-131392898D01*
X126084305Y-131347118D01*
X126035613Y-131482041D01*
X126062463Y-132060841D01*
X126232312Y-132470867D01*
X126480656Y-132547637D01*
X127324344Y-131703949D01*
X127310202Y-131689807D01*
X127489807Y-131510202D01*
X127503949Y-131524344D01*
X128347637Y-130680656D01*
X128270867Y-130432312D01*
X127860841Y-130262463D01*
X127282041Y-130235613D01*
X127147118Y-130284305D01*
X127221990Y-129907898D01*
X127106737Y-129328480D01*
X126778523Y-128837273D01*
X126287316Y-128509059D01*
X125854154Y-128422898D01*
X125561642Y-128422898D01*
X125128480Y-128509059D01*
X124637273Y-128837273D01*
X124309059Y-129328480D01*
X124193806Y-129907898D01*
X117368302Y-129907898D01*
X123008004Y-124268197D01*
X123551076Y-123455431D01*
X124465000Y-123455431D01*
X124465000Y-124344569D01*
X124805259Y-125166026D01*
X125433974Y-125794741D01*
X126255431Y-126135000D01*
X127144569Y-126135000D01*
X127966026Y-125794741D01*
X128594741Y-125166026D01*
X128935000Y-124344569D01*
X128935000Y-123455431D01*
X128852158Y-123255431D01*
X164565000Y-123255431D01*
X164565000Y-124144569D01*
X164905259Y-124966026D01*
X165533974Y-125594741D01*
X166355431Y-125935000D01*
X167244569Y-125935000D01*
X168066026Y-125594741D01*
X168694741Y-124966026D01*
X169035000Y-124144569D01*
X169035000Y-123255431D01*
X168694741Y-122433974D01*
X168066026Y-121805259D01*
X167244569Y-121465000D01*
X166355431Y-121465000D01*
X165533974Y-121805259D01*
X164905259Y-122433974D01*
X164565000Y-123255431D01*
X128852158Y-123255431D01*
X128594741Y-122633974D01*
X127966026Y-122005259D01*
X127144569Y-121665000D01*
X126255431Y-121665000D01*
X125433974Y-122005259D01*
X124805259Y-122633974D01*
X124465000Y-123455431D01*
X123551076Y-123455431D01*
X124021684Y-122751117D01*
X124497832Y-120357359D01*
X124021684Y-117963601D01*
X122665729Y-115934271D01*
X120636399Y-114578316D01*
X118242641Y-114102168D01*
X115848883Y-114578316D01*
X114331803Y-115591996D01*
X104991996Y-124931804D01*
X103978316Y-126448884D01*
X103502168Y-128842641D01*
X97775010Y-128842641D01*
X92427170Y-123447890D01*
X92428122Y-123155431D01*
X96865000Y-123155431D01*
X96865000Y-124044569D01*
X97205259Y-124866026D01*
X97833974Y-125494741D01*
X98655431Y-125835000D01*
X99544569Y-125835000D01*
X100366026Y-125494741D01*
X100994741Y-124866026D01*
X101335000Y-124044569D01*
X101335000Y-123155431D01*
X100994741Y-122333974D01*
X100366026Y-121705259D01*
X99544569Y-121365000D01*
X98655431Y-121365000D01*
X97833974Y-121705259D01*
X97205259Y-122333974D01*
X96865000Y-123155431D01*
X92428122Y-123155431D01*
X92464603Y-111955431D01*
X112965000Y-111955431D01*
X112965000Y-112844569D01*
X113305259Y-113666026D01*
X113933974Y-114294741D01*
X114755431Y-114635000D01*
X115644569Y-114635000D01*
X116466026Y-114294741D01*
X117094741Y-113666026D01*
X117435000Y-112844569D01*
X117435000Y-111955431D01*
X117094741Y-111133974D01*
X116466026Y-110505259D01*
X115644569Y-110165000D01*
X114755431Y-110165000D01*
X113933974Y-110505259D01*
X113305259Y-111133974D01*
X112965000Y-111955431D01*
X92464603Y-111955431D01*
X92490136Y-104116890D01*
X109518524Y-104116890D01*
X109688355Y-104526924D01*
X110078642Y-104955183D01*
X110603108Y-105201486D01*
X110833000Y-105080819D01*
X110833000Y-103887000D01*
X109639845Y-103887000D01*
X109518524Y-104116890D01*
X92490136Y-104116890D01*
X92498718Y-101482392D01*
X101172907Y-101482392D01*
X101172907Y-103182392D01*
X101222190Y-103430157D01*
X101362538Y-103640201D01*
X101572582Y-103780549D01*
X101820347Y-103829832D01*
X103520347Y-103829832D01*
X103768112Y-103780549D01*
X103978156Y-103640201D01*
X104118504Y-103430157D01*
X104167787Y-103182392D01*
X104167787Y-101482392D01*
X104118504Y-101234627D01*
X103978156Y-101024583D01*
X103768112Y-100884235D01*
X103664639Y-100863653D01*
X103941992Y-100559316D01*
X104111823Y-100149282D01*
X103990502Y-99919392D01*
X102797347Y-99919392D01*
X102797347Y-99939392D01*
X102543347Y-99939392D01*
X102543347Y-99919392D01*
X101350192Y-99919392D01*
X101228871Y-100149282D01*
X101398702Y-100559316D01*
X101676055Y-100863653D01*
X101572582Y-100884235D01*
X101362538Y-101024583D01*
X101222190Y-101234627D01*
X101172907Y-101482392D01*
X92498718Y-101482392D01*
X92561682Y-82152392D01*
X101156255Y-82152392D01*
X101271508Y-82731810D01*
X101599722Y-83223017D01*
X101918825Y-83436235D01*
X101788989Y-83497209D01*
X101398702Y-83925468D01*
X101228871Y-84335502D01*
X101350192Y-84565392D01*
X102543347Y-84565392D01*
X102543347Y-84545392D01*
X102797347Y-84545392D01*
X102797347Y-84565392D01*
X102817347Y-84565392D01*
X102817347Y-84819392D01*
X102797347Y-84819392D01*
X102797347Y-84839392D01*
X102543347Y-84839392D01*
X102543347Y-84819392D01*
X101350192Y-84819392D01*
X101228871Y-85049282D01*
X101398702Y-85459316D01*
X101676055Y-85763653D01*
X101572582Y-85784235D01*
X101362538Y-85924583D01*
X101222190Y-86134627D01*
X101172907Y-86382392D01*
X101172907Y-88082392D01*
X101222190Y-88330157D01*
X101362538Y-88540201D01*
X101572582Y-88680549D01*
X101820347Y-88729832D01*
X103520347Y-88729832D01*
X103768112Y-88680549D01*
X103978156Y-88540201D01*
X104118504Y-88330157D01*
X104167787Y-88082392D01*
X104167787Y-86382392D01*
X104118504Y-86134627D01*
X103978156Y-85924583D01*
X103768112Y-85784235D01*
X103664639Y-85763653D01*
X103941992Y-85459316D01*
X104042310Y-85217111D01*
X109518791Y-90693593D01*
X109445908Y-91060000D01*
X109561161Y-91639418D01*
X109889375Y-92130625D01*
X110187761Y-92330000D01*
X109889375Y-92529375D01*
X109561161Y-93020582D01*
X109445908Y-93600000D01*
X109528457Y-94015001D01*
X105222585Y-94015001D01*
X105147738Y-94000113D01*
X105072891Y-94015001D01*
X105072886Y-94015001D01*
X104851201Y-94059097D01*
X104599809Y-94227072D01*
X104557409Y-94290528D01*
X103036755Y-95811183D01*
X102816603Y-95767392D01*
X102524091Y-95767392D01*
X102090929Y-95853553D01*
X101599722Y-96181767D01*
X101271508Y-96672974D01*
X101156255Y-97252392D01*
X101271508Y-97831810D01*
X101599722Y-98323017D01*
X101918825Y-98536235D01*
X101788989Y-98597209D01*
X101398702Y-99025468D01*
X101228871Y-99435502D01*
X101350192Y-99665392D01*
X102543347Y-99665392D01*
X102543347Y-99645392D01*
X102797347Y-99645392D01*
X102797347Y-99665392D01*
X103990502Y-99665392D01*
X104111823Y-99435502D01*
X103941992Y-99025468D01*
X103551705Y-98597209D01*
X103421869Y-98536235D01*
X103740972Y-98323017D01*
X104069186Y-97831810D01*
X104184439Y-97252392D01*
X104111556Y-96885984D01*
X105462540Y-95535001D01*
X109578254Y-95535001D01*
X109561161Y-95560582D01*
X109445908Y-96140000D01*
X109561161Y-96719418D01*
X109889375Y-97210625D01*
X110187761Y-97410000D01*
X109889375Y-97609375D01*
X109561161Y-98100582D01*
X109445908Y-98680000D01*
X109561161Y-99259418D01*
X109889375Y-99750625D01*
X110187761Y-99950000D01*
X109889375Y-100149375D01*
X109561161Y-100640582D01*
X109445908Y-101220000D01*
X109561161Y-101799418D01*
X109889375Y-102290625D01*
X110208478Y-102503843D01*
X110078642Y-102564817D01*
X109688355Y-102993076D01*
X109518524Y-103403110D01*
X109639845Y-103633000D01*
X110833000Y-103633000D01*
X110833000Y-103613000D01*
X111087000Y-103613000D01*
X111087000Y-103633000D01*
X111107000Y-103633000D01*
X111107000Y-103887000D01*
X111087000Y-103887000D01*
X111087000Y-105080819D01*
X111316892Y-105201486D01*
X111841358Y-104955183D01*
X112228647Y-104530214D01*
X112429375Y-104830625D01*
X112920582Y-105158839D01*
X113353744Y-105245000D01*
X113646256Y-105245000D01*
X114079418Y-105158839D01*
X114570625Y-104830625D01*
X114778178Y-104520000D01*
X127246151Y-104520000D01*
X127320998Y-104534888D01*
X127395845Y-104520000D01*
X127395850Y-104520000D01*
X127617535Y-104475904D01*
X127734776Y-104397566D01*
X127788355Y-104526924D01*
X128178642Y-104955183D01*
X128703108Y-105201486D01*
X128933000Y-105080819D01*
X128933000Y-103887000D01*
X128913000Y-103887000D01*
X128913000Y-103633000D01*
X128933000Y-103633000D01*
X128933000Y-103613000D01*
X129187000Y-103613000D01*
X129187000Y-103633000D01*
X129207000Y-103633000D01*
X129207000Y-103887000D01*
X129187000Y-103887000D01*
X129187000Y-105080819D01*
X129416892Y-105201486D01*
X129941358Y-104955183D01*
X130328647Y-104530214D01*
X130529375Y-104830625D01*
X131020582Y-105158839D01*
X131453744Y-105245000D01*
X131746256Y-105245000D01*
X132179418Y-105158839D01*
X132670625Y-104830625D01*
X132998839Y-104339418D01*
X133114092Y-103760000D01*
X132998839Y-103180582D01*
X132670625Y-102689375D01*
X132372239Y-102490000D01*
X132670625Y-102290625D01*
X132998839Y-101799418D01*
X133114092Y-101220000D01*
X133031543Y-100804999D01*
X134556138Y-100804999D01*
X134513720Y-100822569D01*
X134222569Y-101113720D01*
X134065000Y-101494126D01*
X134065000Y-101905874D01*
X134222569Y-102286280D01*
X134340000Y-102403711D01*
X134340001Y-116125144D01*
X134340000Y-116125149D01*
X134340001Y-119085197D01*
X132460199Y-120965000D01*
X132294126Y-120965000D01*
X131913720Y-121122569D01*
X131622569Y-121413720D01*
X131465000Y-121794126D01*
X131465000Y-122205874D01*
X131622569Y-122586280D01*
X131913720Y-122877431D01*
X132294126Y-123035000D01*
X132705874Y-123035000D01*
X133086280Y-122877431D01*
X133377431Y-122586280D01*
X133535000Y-122205874D01*
X133535000Y-122039801D01*
X134817442Y-120757359D01*
X168602168Y-120757359D01*
X169078316Y-123151116D01*
X170091996Y-124668196D01*
X179431803Y-134008004D01*
X180948883Y-135021684D01*
X183342641Y-135497832D01*
X185736399Y-135021684D01*
X187765729Y-133665729D01*
X189121684Y-131636399D01*
X189597832Y-129242641D01*
X189121684Y-126848883D01*
X188108004Y-125331803D01*
X185631632Y-122855431D01*
X192165000Y-122855431D01*
X192165000Y-123744569D01*
X192505259Y-124566026D01*
X193133974Y-125194741D01*
X193955431Y-125535000D01*
X194844569Y-125535000D01*
X195666026Y-125194741D01*
X196294741Y-124566026D01*
X196635000Y-123744569D01*
X196635000Y-122855431D01*
X196294741Y-122033974D01*
X195666026Y-121405259D01*
X194844569Y-121065000D01*
X193955431Y-121065000D01*
X193133974Y-121405259D01*
X192505259Y-122033974D01*
X192165000Y-122855431D01*
X185631632Y-122855431D01*
X178768196Y-115991996D01*
X177251116Y-114978316D01*
X174857359Y-114502168D01*
X172463602Y-114978316D01*
X170434272Y-116334272D01*
X169078316Y-118363602D01*
X168602168Y-120757359D01*
X134817442Y-120757359D01*
X135584473Y-119990329D01*
X135647929Y-119947929D01*
X135815904Y-119696537D01*
X135860000Y-119474852D01*
X135860000Y-119474848D01*
X135874888Y-119400001D01*
X135860000Y-119325154D01*
X135860000Y-111755431D01*
X176065000Y-111755431D01*
X176065000Y-112644569D01*
X176405259Y-113466026D01*
X177033974Y-114094741D01*
X177855431Y-114435000D01*
X178744569Y-114435000D01*
X179566026Y-114094741D01*
X180194741Y-113466026D01*
X180225361Y-113392102D01*
X182493806Y-113392102D01*
X182609059Y-113971520D01*
X182937273Y-114462727D01*
X183428480Y-114790941D01*
X183861642Y-114877102D01*
X184154154Y-114877102D01*
X184587316Y-114790941D01*
X185078523Y-114462727D01*
X185406737Y-113971520D01*
X185521990Y-113392102D01*
X185447118Y-113015695D01*
X185582041Y-113064387D01*
X186160841Y-113037537D01*
X186570867Y-112867688D01*
X186647637Y-112619344D01*
X185803949Y-111775656D01*
X185789807Y-111789799D01*
X185610202Y-111610194D01*
X185624344Y-111596051D01*
X184780656Y-110752363D01*
X184532312Y-110829133D01*
X184362463Y-111239159D01*
X184335613Y-111817959D01*
X184384305Y-111952882D01*
X184154154Y-111907102D01*
X183861642Y-111907102D01*
X183428480Y-111993263D01*
X182937273Y-112321477D01*
X182609059Y-112812684D01*
X182493806Y-113392102D01*
X180225361Y-113392102D01*
X180535000Y-112644569D01*
X180535000Y-111755431D01*
X180194741Y-110933974D01*
X179833525Y-110572758D01*
X184960261Y-110572758D01*
X185803949Y-111416446D01*
X185818092Y-111402304D01*
X185997697Y-111581909D01*
X185983554Y-111596051D01*
X186827242Y-112439739D01*
X187075586Y-112362969D01*
X187245435Y-111952943D01*
X187264516Y-111541626D01*
X187352235Y-111600239D01*
X187600000Y-111649522D01*
X187847765Y-111600239D01*
X188057809Y-111459891D01*
X189259891Y-110257809D01*
X189400239Y-110047765D01*
X189449522Y-109800000D01*
X189400239Y-109552235D01*
X189259891Y-109342191D01*
X188057809Y-108140109D01*
X187847765Y-107999761D01*
X187600000Y-107950478D01*
X187352235Y-107999761D01*
X187142191Y-108140109D01*
X185940109Y-109342191D01*
X185799761Y-109552235D01*
X185750478Y-109800000D01*
X185799761Y-110047765D01*
X185858374Y-110135484D01*
X185447057Y-110154565D01*
X185037031Y-110324414D01*
X184960261Y-110572758D01*
X179833525Y-110572758D01*
X179566026Y-110305259D01*
X178744569Y-109965000D01*
X177855431Y-109965000D01*
X177033974Y-110305259D01*
X176405259Y-110933974D01*
X176065000Y-111755431D01*
X135860000Y-111755431D01*
X135860000Y-102403711D01*
X135977431Y-102286280D01*
X136135000Y-101905874D01*
X136135000Y-101494126D01*
X135977431Y-101113720D01*
X135686280Y-100822569D01*
X135643862Y-100804999D01*
X139110198Y-100804999D01*
X139215980Y-100910781D01*
X139203000Y-100942119D01*
X139203000Y-101497881D01*
X139415680Y-102011337D01*
X139808663Y-102404320D01*
X140015513Y-102490000D01*
X139808663Y-102575680D01*
X139415680Y-102968663D01*
X139203000Y-103482119D01*
X139203000Y-103728199D01*
X138335000Y-102860199D01*
X138335000Y-102694126D01*
X138177431Y-102313720D01*
X137886280Y-102022569D01*
X137505874Y-101865000D01*
X137094126Y-101865000D01*
X136713720Y-102022569D01*
X136422569Y-102313720D01*
X136265000Y-102694126D01*
X136265000Y-103105874D01*
X136422569Y-103486280D01*
X136713720Y-103777431D01*
X137094126Y-103935000D01*
X137260199Y-103935000D01*
X142609671Y-109284473D01*
X142652071Y-109347929D01*
X142903463Y-109515904D01*
X143125148Y-109560000D01*
X143125152Y-109560000D01*
X143199999Y-109574888D01*
X143274846Y-109560000D01*
X165896289Y-109560000D01*
X166013720Y-109677431D01*
X166394126Y-109835000D01*
X166805874Y-109835000D01*
X167186280Y-109677431D01*
X167477431Y-109386280D01*
X167635000Y-109005874D01*
X167635000Y-108594126D01*
X167477431Y-108213720D01*
X167186280Y-107922569D01*
X166805874Y-107765000D01*
X166394126Y-107765000D01*
X166013720Y-107922569D01*
X165896289Y-108040000D01*
X143514802Y-108040000D01*
X140631801Y-105157000D01*
X140877881Y-105157000D01*
X141391337Y-104944320D01*
X141784320Y-104551337D01*
X141997000Y-104037881D01*
X141997000Y-103482119D01*
X141784320Y-102968663D01*
X141391337Y-102575680D01*
X141184487Y-102490000D01*
X141391337Y-102404320D01*
X141620335Y-102175322D01*
X149965000Y-102175322D01*
X149965000Y-103024678D01*
X150290034Y-103809380D01*
X150890620Y-104409966D01*
X151675322Y-104735000D01*
X152524678Y-104735000D01*
X153309380Y-104409966D01*
X153909966Y-103809380D01*
X154235000Y-103024678D01*
X154235000Y-102175322D01*
X153909966Y-101390620D01*
X153309380Y-100790034D01*
X152524678Y-100465000D01*
X151675322Y-100465000D01*
X150890620Y-100790034D01*
X150290034Y-101390620D01*
X149965000Y-102175322D01*
X141620335Y-102175322D01*
X141784320Y-102011337D01*
X141997000Y-101497881D01*
X141997000Y-100942119D01*
X141784320Y-100428663D01*
X141391337Y-100035680D01*
X141184487Y-99950000D01*
X141391337Y-99864320D01*
X141784320Y-99471337D01*
X141997000Y-98957881D01*
X141997000Y-98402119D01*
X141784320Y-97888663D01*
X141391337Y-97495680D01*
X141184487Y-97410000D01*
X141391337Y-97324320D01*
X141784320Y-96931337D01*
X141997000Y-96417881D01*
X141997000Y-95862119D01*
X141784320Y-95348663D01*
X141391337Y-94955680D01*
X141184487Y-94870000D01*
X141391337Y-94784320D01*
X141784320Y-94391337D01*
X141997000Y-93877881D01*
X141997000Y-93322119D01*
X141784320Y-92808663D01*
X141391337Y-92415680D01*
X141184487Y-92330000D01*
X141391337Y-92244320D01*
X141784320Y-91851337D01*
X141997000Y-91337881D01*
X141997000Y-90991801D01*
X148994672Y-97989475D01*
X149037070Y-98052928D01*
X149100523Y-98095326D01*
X149100525Y-98095328D01*
X149223402Y-98177431D01*
X149288462Y-98220903D01*
X149510147Y-98264999D01*
X149510151Y-98264999D01*
X149584998Y-98279887D01*
X149659845Y-98264999D01*
X160728457Y-98264999D01*
X160645908Y-98680000D01*
X160761161Y-99259418D01*
X161089375Y-99750625D01*
X161387761Y-99950000D01*
X161089375Y-100149375D01*
X160761161Y-100640582D01*
X160645908Y-101220000D01*
X160761161Y-101799418D01*
X161089375Y-102290625D01*
X161387761Y-102490000D01*
X161089375Y-102689375D01*
X160761161Y-103180582D01*
X160645908Y-103760000D01*
X160761161Y-104339418D01*
X161089375Y-104830625D01*
X161580582Y-105158839D01*
X162013744Y-105245000D01*
X162306256Y-105245000D01*
X162526407Y-105201209D01*
X162744674Y-105419477D01*
X162787072Y-105482930D01*
X162850525Y-105525328D01*
X162850527Y-105525330D01*
X162975903Y-105609103D01*
X163038464Y-105650905D01*
X163260149Y-105695001D01*
X163260153Y-105695001D01*
X163335000Y-105709889D01*
X163409847Y-105695001D01*
X175160154Y-105695001D01*
X175235001Y-105709889D01*
X175309848Y-105695001D01*
X175309853Y-105695001D01*
X175531538Y-105650905D01*
X175782930Y-105482930D01*
X175825332Y-105419471D01*
X176724805Y-104520000D01*
X178581822Y-104520000D01*
X178789375Y-104830625D01*
X179280582Y-105158839D01*
X179713744Y-105245000D01*
X180006256Y-105245000D01*
X180439418Y-105158839D01*
X180930625Y-104830625D01*
X181130000Y-104532239D01*
X181329375Y-104830625D01*
X181820582Y-105158839D01*
X182253744Y-105245000D01*
X182546256Y-105245000D01*
X182979418Y-105158839D01*
X183470625Y-104830625D01*
X183798839Y-104339418D01*
X183914092Y-103760000D01*
X183798839Y-103180582D01*
X183470625Y-102689375D01*
X183172239Y-102490000D01*
X183470625Y-102290625D01*
X183798839Y-101799418D01*
X183914092Y-101220000D01*
X183798839Y-100640582D01*
X183470625Y-100149375D01*
X183172239Y-99950000D01*
X183470625Y-99750625D01*
X183798839Y-99259418D01*
X183914092Y-98680000D01*
X183798839Y-98100582D01*
X183470625Y-97609375D01*
X183172239Y-97410000D01*
X183470625Y-97210625D01*
X183798839Y-96719418D01*
X183914092Y-96140000D01*
X183798839Y-95560582D01*
X183470625Y-95069375D01*
X183172239Y-94870000D01*
X183470625Y-94670625D01*
X183798839Y-94179418D01*
X183914092Y-93600000D01*
X183798839Y-93020582D01*
X183470625Y-92529375D01*
X183172239Y-92330000D01*
X183470625Y-92130625D01*
X183798839Y-91639418D01*
X183914092Y-91060000D01*
X183798839Y-90480582D01*
X183470625Y-89989375D01*
X183172239Y-89790000D01*
X183470625Y-89590625D01*
X183798839Y-89099418D01*
X183914092Y-88520000D01*
X183798839Y-87940582D01*
X183470625Y-87449375D01*
X183172239Y-87250000D01*
X183470625Y-87050625D01*
X183798839Y-86559418D01*
X183914092Y-85980000D01*
X183798839Y-85400582D01*
X183470625Y-84909375D01*
X183172239Y-84710000D01*
X183470625Y-84510625D01*
X183798839Y-84019418D01*
X183914092Y-83440000D01*
X183798839Y-82860582D01*
X183470625Y-82369375D01*
X183452381Y-82357184D01*
X183497765Y-82348157D01*
X183707809Y-82207809D01*
X183848157Y-81997765D01*
X183897440Y-81750000D01*
X183897440Y-80050000D01*
X183848157Y-79802235D01*
X183707809Y-79592191D01*
X183497765Y-79451843D01*
X183250000Y-79402560D01*
X183048483Y-79402560D01*
X182947929Y-79252071D01*
X182902969Y-79222030D01*
X182872928Y-79177070D01*
X182621536Y-79009095D01*
X182399851Y-78964999D01*
X182399846Y-78964999D01*
X182324999Y-78950111D01*
X182250152Y-78964999D01*
X167049847Y-78964999D01*
X166975000Y-78950111D01*
X166900153Y-78964999D01*
X166900149Y-78964999D01*
X166678464Y-79009095D01*
X166620345Y-79047929D01*
X166490527Y-79134670D01*
X166490525Y-79134672D01*
X166427072Y-79177070D01*
X166384674Y-79240523D01*
X166017902Y-79607296D01*
X166007809Y-79592191D01*
X165797765Y-79451843D01*
X165550000Y-79402560D01*
X165348483Y-79402560D01*
X165247929Y-79252071D01*
X165184473Y-79209671D01*
X163990331Y-78015530D01*
X163947929Y-77952071D01*
X163696537Y-77784096D01*
X163474852Y-77740000D01*
X163474847Y-77740000D01*
X163400000Y-77725112D01*
X163325153Y-77740000D01*
X143074848Y-77740000D01*
X143000000Y-77725112D01*
X142925152Y-77740000D01*
X142925148Y-77740000D01*
X142703463Y-77784096D01*
X142452071Y-77952071D01*
X142409671Y-78015527D01*
X140909218Y-79515980D01*
X140877881Y-79503000D01*
X140322119Y-79503000D01*
X139808663Y-79715680D01*
X139415680Y-80108663D01*
X139203000Y-80622119D01*
X139203000Y-81177881D01*
X139415680Y-81691337D01*
X139808663Y-82084320D01*
X140015513Y-82170000D01*
X139808663Y-82255680D01*
X139415680Y-82648663D01*
X139203000Y-83162119D01*
X139203000Y-83717881D01*
X139415680Y-84231337D01*
X139808663Y-84624320D01*
X140015513Y-84710000D01*
X139808663Y-84795680D01*
X139415680Y-85188663D01*
X139203000Y-85702119D01*
X139203000Y-86257881D01*
X139415680Y-86771337D01*
X139808663Y-87164320D01*
X140015513Y-87250000D01*
X139808663Y-87335680D01*
X139415680Y-87728663D01*
X139203000Y-88242119D01*
X139203000Y-88797881D01*
X139415680Y-89311337D01*
X139808663Y-89704320D01*
X140015513Y-89790000D01*
X139808663Y-89875680D01*
X139415680Y-90268663D01*
X139203000Y-90782119D01*
X139203000Y-91337881D01*
X139415680Y-91851337D01*
X139808663Y-92244320D01*
X140015513Y-92330000D01*
X139808663Y-92415680D01*
X139415680Y-92808663D01*
X139203000Y-93322119D01*
X139203000Y-93877881D01*
X139415680Y-94391337D01*
X139808663Y-94784320D01*
X140015513Y-94870000D01*
X139808663Y-94955680D01*
X139415680Y-95348663D01*
X139203000Y-95862119D01*
X139203000Y-96417881D01*
X139415680Y-96931337D01*
X139808663Y-97324320D01*
X140015513Y-97410000D01*
X139808663Y-97495680D01*
X139415680Y-97888663D01*
X139402700Y-97920000D01*
X137843711Y-97920000D01*
X137877431Y-97886280D01*
X138035000Y-97505874D01*
X138035000Y-97094126D01*
X137877431Y-96713720D01*
X137760000Y-96596289D01*
X137760000Y-85774848D01*
X137774888Y-85700000D01*
X137760000Y-85625152D01*
X137760000Y-85625148D01*
X137715904Y-85403463D01*
X137547929Y-85152071D01*
X137484473Y-85109671D01*
X136180330Y-83805529D01*
X136137928Y-83742070D01*
X135886536Y-83574095D01*
X135664851Y-83529999D01*
X135664846Y-83529999D01*
X135589999Y-83515111D01*
X135515152Y-83529999D01*
X133096190Y-83529999D01*
X133114092Y-83440000D01*
X132998839Y-82860582D01*
X132670625Y-82369375D01*
X132652381Y-82357184D01*
X132697765Y-82348157D01*
X132907809Y-82207809D01*
X133048157Y-81997765D01*
X133097440Y-81750000D01*
X133097440Y-80050000D01*
X133048157Y-79802235D01*
X132907809Y-79592191D01*
X132697765Y-79451843D01*
X132450000Y-79402560D01*
X130750000Y-79402560D01*
X130502235Y-79451843D01*
X130292191Y-79592191D01*
X130151843Y-79802235D01*
X130142816Y-79847619D01*
X130130625Y-79829375D01*
X129639418Y-79501161D01*
X129206256Y-79415000D01*
X128913744Y-79415000D01*
X128693592Y-79458791D01*
X128475330Y-79240529D01*
X128432928Y-79177070D01*
X128181536Y-79009095D01*
X127959851Y-78964999D01*
X127959846Y-78964999D01*
X127884999Y-78950111D01*
X127810152Y-78964999D01*
X112209847Y-78964999D01*
X112135000Y-78950111D01*
X112060153Y-78964999D01*
X112060149Y-78964999D01*
X111838464Y-79009095D01*
X111780345Y-79047929D01*
X111650527Y-79134670D01*
X111650525Y-79134672D01*
X111587072Y-79177070D01*
X111544674Y-79240523D01*
X111326407Y-79458791D01*
X111106256Y-79415000D01*
X110813744Y-79415000D01*
X110380582Y-79501161D01*
X109889375Y-79829375D01*
X109652102Y-80184479D01*
X109652102Y-72386076D01*
X109962727Y-72178523D01*
X110111792Y-71955431D01*
X112865000Y-71955431D01*
X112865000Y-72844569D01*
X113205259Y-73666026D01*
X113833974Y-74294741D01*
X114655431Y-74635000D01*
X115544569Y-74635000D01*
X116366026Y-74294741D01*
X116994741Y-73666026D01*
X117335000Y-72844569D01*
X117335000Y-72494126D01*
X123565000Y-72494126D01*
X123565000Y-72905874D01*
X123722569Y-73286280D01*
X124013720Y-73577431D01*
X124394126Y-73735000D01*
X124805874Y-73735000D01*
X125186280Y-73577431D01*
X125477431Y-73286280D01*
X125635000Y-72905874D01*
X125635000Y-72739801D01*
X126419370Y-71955431D01*
X175565000Y-71955431D01*
X175565000Y-72844569D01*
X175905259Y-73666026D01*
X176533974Y-74294741D01*
X177355431Y-74635000D01*
X178244569Y-74635000D01*
X179066026Y-74294741D01*
X179694741Y-73666026D01*
X180035000Y-72844569D01*
X180035000Y-71955431D01*
X179694741Y-71133974D01*
X179066026Y-70505259D01*
X178244569Y-70165000D01*
X177355431Y-70165000D01*
X176533974Y-70505259D01*
X175905259Y-71133974D01*
X175565000Y-71955431D01*
X126419370Y-71955431D01*
X127114802Y-71260000D01*
X152009357Y-71260000D01*
X152084204Y-71274888D01*
X152159051Y-71260000D01*
X152159056Y-71260000D01*
X152380741Y-71215904D01*
X152632133Y-71047929D01*
X152674535Y-70984470D01*
X159616364Y-64042641D01*
X168402168Y-64042641D01*
X168878316Y-66436398D01*
X170234272Y-68465728D01*
X172263602Y-69821684D01*
X174657359Y-70297832D01*
X177051116Y-69821684D01*
X178568196Y-68808004D01*
X186420769Y-60955431D01*
X191765000Y-60955431D01*
X191765000Y-61844569D01*
X192105259Y-62666026D01*
X192733974Y-63294741D01*
X193555431Y-63635000D01*
X194444569Y-63635000D01*
X195266026Y-63294741D01*
X195894741Y-62666026D01*
X196235000Y-61844569D01*
X196235000Y-60955431D01*
X195894741Y-60133974D01*
X195266026Y-59505259D01*
X194444569Y-59165000D01*
X193555431Y-59165000D01*
X192733974Y-59505259D01*
X192105259Y-60133974D01*
X191765000Y-60955431D01*
X186420769Y-60955431D01*
X187908004Y-59468197D01*
X188921684Y-57951117D01*
X189397832Y-55557359D01*
X188921684Y-53163601D01*
X187565729Y-51134271D01*
X185536399Y-49778316D01*
X183142641Y-49302168D01*
X180748883Y-49778316D01*
X179231803Y-50791996D01*
X169891996Y-60131804D01*
X168878316Y-61648884D01*
X168402168Y-64042641D01*
X159616364Y-64042641D01*
X163203574Y-60455431D01*
X164065000Y-60455431D01*
X164065000Y-61344569D01*
X164405259Y-62166026D01*
X165033974Y-62794741D01*
X165855431Y-63135000D01*
X166744569Y-63135000D01*
X167566026Y-62794741D01*
X168194741Y-62166026D01*
X168535000Y-61344569D01*
X168535000Y-60455431D01*
X168194741Y-59633974D01*
X167566026Y-59005259D01*
X166744569Y-58665000D01*
X165855431Y-58665000D01*
X165033974Y-59005259D01*
X164405259Y-59633974D01*
X164065000Y-60455431D01*
X163203574Y-60455431D01*
X166925695Y-56733311D01*
X167145846Y-56777102D01*
X167438358Y-56777102D01*
X167871520Y-56690941D01*
X168362727Y-56362727D01*
X168690941Y-55871520D01*
X168806194Y-55292102D01*
X168690941Y-54712684D01*
X168362727Y-54221477D01*
X167871520Y-53893263D01*
X167438358Y-53807102D01*
X167145846Y-53807102D01*
X166915695Y-53852882D01*
X166964387Y-53717959D01*
X166937537Y-53139159D01*
X166767688Y-52729133D01*
X166519344Y-52652363D01*
X165675656Y-53496051D01*
X165689799Y-53510194D01*
X165510194Y-53689799D01*
X165496051Y-53675656D01*
X164652363Y-54519344D01*
X164729133Y-54767688D01*
X165139159Y-54937537D01*
X165717959Y-54964387D01*
X165852882Y-54915695D01*
X165778010Y-55292102D01*
X165850893Y-55658509D01*
X151769403Y-69740000D01*
X126874848Y-69740000D01*
X126800000Y-69725112D01*
X126725152Y-69740000D01*
X126725148Y-69740000D01*
X126551605Y-69774520D01*
X126503462Y-69784096D01*
X126316418Y-69909076D01*
X126252071Y-69952071D01*
X126209671Y-70015527D01*
X124560199Y-71665000D01*
X124394126Y-71665000D01*
X124013720Y-71822569D01*
X123722569Y-72113720D01*
X123565000Y-72494126D01*
X117335000Y-72494126D01*
X117335000Y-71955431D01*
X116994741Y-71133974D01*
X116366026Y-70505259D01*
X115544569Y-70165000D01*
X114655431Y-70165000D01*
X113833974Y-70505259D01*
X113205259Y-71133974D01*
X112865000Y-71955431D01*
X110111792Y-71955431D01*
X110290941Y-71687316D01*
X110406194Y-71107898D01*
X110290941Y-70528480D01*
X109962727Y-70037273D01*
X109471520Y-69709059D01*
X109038358Y-69622898D01*
X108745846Y-69622898D01*
X108312684Y-69709059D01*
X107821477Y-70037273D01*
X107493263Y-70528480D01*
X107378010Y-71107898D01*
X107452882Y-71484305D01*
X107317959Y-71435613D01*
X106739159Y-71462463D01*
X106329133Y-71632312D01*
X106252363Y-71880656D01*
X107096051Y-72724344D01*
X107110194Y-72710202D01*
X107289799Y-72889807D01*
X107275656Y-72903949D01*
X107289799Y-72918092D01*
X107110194Y-73097697D01*
X107096051Y-73083554D01*
X107081909Y-73097697D01*
X106902304Y-72918092D01*
X106916446Y-72903949D01*
X106072758Y-72060261D01*
X105824414Y-72137031D01*
X105654565Y-72547057D01*
X105635484Y-72958374D01*
X105547765Y-72899761D01*
X105300000Y-72850478D01*
X105052235Y-72899761D01*
X104842191Y-73040109D01*
X103640109Y-74242191D01*
X103499761Y-74452235D01*
X103450478Y-74700000D01*
X103499761Y-74947765D01*
X103640109Y-75157809D01*
X104842191Y-76359891D01*
X105052235Y-76500239D01*
X105300000Y-76549522D01*
X105547765Y-76500239D01*
X105757809Y-76359891D01*
X106959891Y-75157809D01*
X107100239Y-74947765D01*
X107149522Y-74700000D01*
X107100239Y-74452235D01*
X107041626Y-74364516D01*
X107452943Y-74345435D01*
X107862969Y-74175586D01*
X107939738Y-73927244D01*
X108056301Y-74043807D01*
X108132102Y-73968006D01*
X108132103Y-87157301D01*
X104605348Y-83630547D01*
X104605348Y-83402239D01*
X104620236Y-83327392D01*
X104605348Y-83252545D01*
X104605348Y-83252541D01*
X104561252Y-83030856D01*
X104464822Y-82886538D01*
X104435677Y-82842919D01*
X104435675Y-82842917D01*
X104393277Y-82779464D01*
X104329824Y-82737066D01*
X104111556Y-82518799D01*
X104184439Y-82152392D01*
X104069186Y-81572974D01*
X103740972Y-81081767D01*
X103249765Y-80753553D01*
X102816603Y-80667392D01*
X102524091Y-80667392D01*
X102090929Y-80753553D01*
X101599722Y-81081767D01*
X101271508Y-81572974D01*
X101156255Y-82152392D01*
X92561682Y-82152392D01*
X92626819Y-62155716D01*
X94247107Y-60555431D01*
X96265000Y-60555431D01*
X96265000Y-61444569D01*
X96605259Y-62266026D01*
X97233974Y-62894741D01*
X98055431Y-63235000D01*
X98944569Y-63235000D01*
X99766026Y-62894741D01*
X100394741Y-62266026D01*
X100735000Y-61444569D01*
X100735000Y-60555431D01*
X100394741Y-59733974D01*
X99766026Y-59105259D01*
X98944569Y-58765000D01*
X98055431Y-58765000D01*
X97233974Y-59105259D01*
X96605259Y-59733974D01*
X96265000Y-60555431D01*
X94247107Y-60555431D01*
X99307655Y-55557359D01*
X103402168Y-55557359D01*
X103878316Y-57951116D01*
X104891996Y-59468196D01*
X114231803Y-68808004D01*
X115748883Y-69821684D01*
X118142641Y-70297832D01*
X120536399Y-69821684D01*
X122565729Y-68465729D01*
X123921684Y-66436399D01*
X124188678Y-65094126D01*
X129665000Y-65094126D01*
X129665000Y-65505874D01*
X129822569Y-65886280D01*
X130113720Y-66177431D01*
X130494126Y-66335000D01*
X130905874Y-66335000D01*
X131286280Y-66177431D01*
X131577431Y-65886280D01*
X131735000Y-65505874D01*
X131735000Y-65094126D01*
X131577431Y-64713720D01*
X131460000Y-64596289D01*
X131460000Y-63485750D01*
X141865000Y-63485750D01*
X141865000Y-64126310D01*
X141961673Y-64359699D01*
X142140302Y-64538327D01*
X142373691Y-64635000D01*
X143014250Y-64635000D01*
X143173000Y-64476250D01*
X143173000Y-63327000D01*
X142023750Y-63327000D01*
X141865000Y-63485750D01*
X131460000Y-63485750D01*
X131460000Y-62273690D01*
X141865000Y-62273690D01*
X141865000Y-62914250D01*
X142023750Y-63073000D01*
X143173000Y-63073000D01*
X143173000Y-61923750D01*
X143427000Y-61923750D01*
X143427000Y-63073000D01*
X143447000Y-63073000D01*
X143447000Y-63327000D01*
X143427000Y-63327000D01*
X143427000Y-64476250D01*
X143585750Y-64635000D01*
X144226309Y-64635000D01*
X144459698Y-64538327D01*
X144638327Y-64359699D01*
X144723845Y-64153241D01*
X144987138Y-64416534D01*
X145514561Y-64635000D01*
X146085439Y-64635000D01*
X146612862Y-64416534D01*
X147016534Y-64012862D01*
X147235000Y-63485439D01*
X147235000Y-62914561D01*
X147016534Y-62387138D01*
X147015146Y-62385750D01*
X152165000Y-62385750D01*
X152165000Y-63326309D01*
X152261673Y-63559698D01*
X152440301Y-63738327D01*
X152673690Y-63835000D01*
X153614250Y-63835000D01*
X153773000Y-63676250D01*
X153773000Y-62227000D01*
X154027000Y-62227000D01*
X154027000Y-63676250D01*
X154185750Y-63835000D01*
X155126310Y-63835000D01*
X155359699Y-63738327D01*
X155538327Y-63559698D01*
X155635000Y-63326309D01*
X155635000Y-62385750D01*
X155476250Y-62227000D01*
X154027000Y-62227000D01*
X153773000Y-62227000D01*
X152323750Y-62227000D01*
X152165000Y-62385750D01*
X147015146Y-62385750D01*
X146612862Y-61983466D01*
X146085439Y-61765000D01*
X145514561Y-61765000D01*
X144987138Y-61983466D01*
X144723845Y-62246759D01*
X144638327Y-62040301D01*
X144459698Y-61861673D01*
X144226309Y-61765000D01*
X143585750Y-61765000D01*
X143427000Y-61923750D01*
X143173000Y-61923750D01*
X143014250Y-61765000D01*
X142373691Y-61765000D01*
X142140302Y-61861673D01*
X141961673Y-62040301D01*
X141865000Y-62273690D01*
X131460000Y-62273690D01*
X131460000Y-60873691D01*
X152165000Y-60873691D01*
X152165000Y-61814250D01*
X152323750Y-61973000D01*
X153773000Y-61973000D01*
X153773000Y-60523750D01*
X154027000Y-60523750D01*
X154027000Y-61973000D01*
X155476250Y-61973000D01*
X155635000Y-61814250D01*
X155635000Y-60873691D01*
X155538327Y-60640302D01*
X155359699Y-60461673D01*
X155126310Y-60365000D01*
X154185750Y-60365000D01*
X154027000Y-60523750D01*
X153773000Y-60523750D01*
X153614250Y-60365000D01*
X152673690Y-60365000D01*
X152440301Y-60461673D01*
X152261673Y-60640302D01*
X152165000Y-60873691D01*
X131460000Y-60873691D01*
X131460000Y-56214801D01*
X135734801Y-51940000D01*
X152131010Y-51940000D01*
X152265666Y-52616963D01*
X152649135Y-53190865D01*
X153223037Y-53574334D01*
X153729120Y-53675000D01*
X154070880Y-53675000D01*
X154576963Y-53574334D01*
X155150865Y-53190865D01*
X155534334Y-52616963D01*
X155668990Y-51940000D01*
X155621252Y-51700000D01*
X161850478Y-51700000D01*
X161899761Y-51947765D01*
X162040109Y-52157809D01*
X163242191Y-53359891D01*
X163452235Y-53500239D01*
X163700000Y-53549522D01*
X163947765Y-53500239D01*
X164035484Y-53441626D01*
X164054565Y-53852943D01*
X164224414Y-54262969D01*
X164472758Y-54339739D01*
X165316446Y-53496051D01*
X165302304Y-53481909D01*
X165481909Y-53302304D01*
X165496051Y-53316446D01*
X166339739Y-52472758D01*
X166262969Y-52224414D01*
X165852943Y-52054565D01*
X165441626Y-52035484D01*
X165500239Y-51947765D01*
X165549522Y-51700000D01*
X165500239Y-51452235D01*
X165359891Y-51242191D01*
X164157809Y-50040109D01*
X163947765Y-49899761D01*
X163700000Y-49850478D01*
X163452235Y-49899761D01*
X163242191Y-50040109D01*
X162040109Y-51242191D01*
X161899761Y-51452235D01*
X161850478Y-51700000D01*
X155621252Y-51700000D01*
X155534334Y-51263037D01*
X155150865Y-50689135D01*
X154576963Y-50305666D01*
X154070880Y-50205000D01*
X153729120Y-50205000D01*
X153223037Y-50305666D01*
X152649135Y-50689135D01*
X152265666Y-51263037D01*
X152131010Y-51940000D01*
X135734801Y-51940000D01*
X139189803Y-48484999D01*
X142102560Y-48484999D01*
X142102560Y-49750000D01*
X142151843Y-49997765D01*
X142292191Y-50207809D01*
X142502235Y-50348157D01*
X142750000Y-50397440D01*
X144450000Y-50397440D01*
X144697765Y-50348157D01*
X144907809Y-50207809D01*
X145048157Y-49997765D01*
X145068739Y-49894292D01*
X145373076Y-50171645D01*
X145783110Y-50341476D01*
X146013000Y-50220155D01*
X146013000Y-49027000D01*
X145993000Y-49027000D01*
X145993000Y-48773000D01*
X146013000Y-48773000D01*
X146013000Y-48753000D01*
X146267000Y-48753000D01*
X146267000Y-48773000D01*
X146287000Y-48773000D01*
X146287000Y-49027000D01*
X146267000Y-49027000D01*
X146267000Y-50220155D01*
X146496890Y-50341476D01*
X146906924Y-50171645D01*
X147335183Y-49781358D01*
X147396157Y-49651522D01*
X147609375Y-49970625D01*
X148100582Y-50298839D01*
X148533744Y-50385000D01*
X148826256Y-50385000D01*
X149259418Y-50298839D01*
X149750625Y-49970625D01*
X150078839Y-49479418D01*
X150194092Y-48900000D01*
X150078839Y-48320582D01*
X149750625Y-47829375D01*
X149259418Y-47501161D01*
X148826256Y-47415000D01*
X148533744Y-47415000D01*
X148313592Y-47458791D01*
X148095330Y-47240529D01*
X148052928Y-47177070D01*
X147801536Y-47009095D01*
X147579851Y-46964999D01*
X147579846Y-46964999D01*
X147504999Y-46950111D01*
X147430152Y-46964999D01*
X138949847Y-46964999D01*
X138875000Y-46950111D01*
X138800153Y-46964999D01*
X138800149Y-46964999D01*
X138578464Y-47009095D01*
X138327072Y-47177070D01*
X138284672Y-47240526D01*
X130215530Y-55309669D01*
X130152071Y-55352071D01*
X129984096Y-55603464D01*
X129940000Y-55825149D01*
X129940000Y-55825153D01*
X129925112Y-55900000D01*
X129940000Y-55974847D01*
X129940001Y-64596288D01*
X129822569Y-64713720D01*
X129665000Y-65094126D01*
X124188678Y-65094126D01*
X124397832Y-64042641D01*
X123921684Y-61648883D01*
X123257881Y-60655431D01*
X124165000Y-60655431D01*
X124165000Y-61544569D01*
X124505259Y-62366026D01*
X125133974Y-62994741D01*
X125955431Y-63335000D01*
X126844569Y-63335000D01*
X127666026Y-62994741D01*
X128294741Y-62366026D01*
X128635000Y-61544569D01*
X128635000Y-60655431D01*
X128294741Y-59833974D01*
X127666026Y-59205259D01*
X126844569Y-58865000D01*
X125955431Y-58865000D01*
X125133974Y-59205259D01*
X124505259Y-59833974D01*
X124165000Y-60655431D01*
X123257881Y-60655431D01*
X122908004Y-60131803D01*
X113568196Y-50791996D01*
X112051116Y-49778316D01*
X109657359Y-49302168D01*
X107263602Y-49778316D01*
X105234272Y-51134272D01*
X103878316Y-53163602D01*
X103402168Y-55557359D01*
X99307655Y-55557359D01*
X110852107Y-44155431D01*
X112665000Y-44155431D01*
X112665000Y-45044569D01*
X113005259Y-45866026D01*
X113633974Y-46494741D01*
X114455431Y-46835000D01*
X115344569Y-46835000D01*
X116166026Y-46494741D01*
X116794741Y-45866026D01*
X117135000Y-45044569D01*
X117135000Y-44555431D01*
X175365000Y-44555431D01*
X175365000Y-45444569D01*
X175705259Y-46266026D01*
X176333974Y-46894741D01*
X177155431Y-47235000D01*
X178044569Y-47235000D01*
X178866026Y-46894741D01*
X179494741Y-46266026D01*
X179835000Y-45444569D01*
X179835000Y-44555431D01*
X179494741Y-43733974D01*
X178866026Y-43105259D01*
X178044569Y-42765000D01*
X177155431Y-42765000D01*
X176333974Y-43105259D01*
X175705259Y-43733974D01*
X175365000Y-44555431D01*
X117135000Y-44555431D01*
X117135000Y-44155431D01*
X116794741Y-43333974D01*
X116166026Y-42705259D01*
X115344569Y-42365000D01*
X114455431Y-42365000D01*
X113633974Y-42705259D01*
X113005259Y-43333974D01*
X112665000Y-44155431D01*
X110852107Y-44155431D01*
X116652144Y-38427000D01*
X178046757Y-38427000D01*
X201173000Y-61951971D01*
G04 #@! TD*
M02*
