M48
;DRILL file {KiCad 5.0.2-bee76a0~70~ubuntu16.04.1} date sab 14 ago 2021 16:57:21 CEST
;FORMAT={-:-/ absolute / metric / decimal}
FMAT,2
METRIC,TZ
T1C0.400
T2C0.762
T3C0.800
T4C1.000
T5C1.100
T6C2.000
T7C3.000
%
G90
G05
T1
X119.5Y-73.2
X137.7Y-130.2
X141.9Y-133.125
X157.4Y-88.2
X158.8Y-98.7
X159.5Y-62.3
X159.8Y-68.1
X169.9Y-89.16
X173.5Y-83.4
X184.9Y-104.2
X185.Y-97.6
X185.6Y-98.9
X185.6Y-106.2
X185.7Y-92.4
X188.152Y-92.4
X190.2Y-106.2
T2
X140.6Y-80.95
X140.6Y-83.49
X140.6Y-86.03
X140.6Y-88.57
X140.6Y-91.11
X140.6Y-93.65
X140.6Y-96.19
X140.6Y-98.73
X140.6Y-101.27
X140.6Y-103.81
T3
X152.Y-122.3
X154.5Y-122.3
X143.3Y-63.2
X145.8Y-63.2
T4
X181.508Y-116.692
X183.304Y-114.896
X185.1Y-113.1
X179.8Y-80.9
X179.8Y-83.44
X179.8Y-85.98
X179.8Y-88.52
X179.8Y-91.06
X179.8Y-93.6
X179.8Y-96.14
X179.8Y-98.68
X179.8Y-101.22
X179.8Y-103.76
X182.34Y-80.9
X182.34Y-83.44
X182.34Y-85.98
X182.34Y-88.52
X182.34Y-91.06
X182.34Y-93.6
X182.34Y-96.14
X182.34Y-98.68
X182.34Y-101.22
X182.34Y-103.76
X162.Y-80.9
X162.Y-83.44
X162.Y-85.98
X162.Y-88.52
X162.Y-91.06
X162.Y-93.6
X162.Y-96.14
X162.Y-98.68
X162.Y-101.22
X162.Y-103.76
X164.54Y-80.9
X164.54Y-83.44
X164.54Y-85.98
X164.54Y-88.52
X164.54Y-91.06
X164.54Y-93.6
X164.54Y-96.14
X164.54Y-98.68
X164.54Y-101.22
X164.54Y-103.76
X167.5Y-54.5
X169.296Y-56.296
X171.092Y-58.092
X108.1Y-71.7
X109.896Y-69.904
X111.692Y-68.108
X190.4Y-81.6
X190.4Y-84.14
X190.4Y-86.68
X122.108Y-126.808
X123.904Y-128.604
X125.7Y-130.4
X190.4Y-96.7
X190.4Y-99.24
X190.4Y-101.78
X143.6Y-48.9
X146.14Y-48.9
X148.68Y-48.9
X139.8Y-122.1
X142.3Y-122.1
X129.16Y-80.9
X129.16Y-83.44
X129.16Y-85.98
X129.16Y-88.52
X129.16Y-91.06
X129.16Y-93.6
X129.16Y-96.14
X129.16Y-98.68
X129.16Y-101.22
X129.16Y-103.76
X131.7Y-80.9
X131.7Y-83.44
X131.7Y-85.98
X131.7Y-88.52
X131.7Y-91.06
X131.7Y-93.6
X131.7Y-96.14
X131.7Y-98.68
X131.7Y-101.22
X131.7Y-103.76
X110.8Y-80.9
X110.8Y-83.44
X110.8Y-85.98
X110.8Y-88.52
X110.8Y-91.06
X110.8Y-93.6
X110.8Y-96.14
X110.8Y-98.68
X110.8Y-101.22
X110.8Y-103.76
X113.34Y-80.9
X113.34Y-83.44
X113.34Y-85.98
X113.34Y-88.52
X113.34Y-91.06
X113.34Y-93.6
X113.34Y-96.14
X113.34Y-98.68
X113.34Y-101.22
X113.34Y-103.76
T5
X153.9Y-51.94
X153.9Y-62.1
T7
X152.1Y-82.05
X152.1Y-102.65
X98.6Y-61.
X99.2Y-123.6
X115.Y-44.6
X115.2Y-72.4
X115.3Y-112.4
X115.6Y-140.
X126.5Y-61.1
X126.8Y-123.9
X166.4Y-60.9
X166.9Y-123.7
X177.7Y-45.
X177.9Y-72.4
X178.1Y-139.7
X178.4Y-112.2
X194.1Y-61.4
X194.5Y-123.3
T3
X145.6Y-131.8G85X148.2Y-131.8
G05
X145.8Y-137.6G85X148.Y-137.6
G05
X151.7Y-135.9G85X151.7Y-133.7
G05
T6
X109.625Y-127.355G85X111.746Y-125.233
G05
X116.926Y-123.278G85X114.805Y-121.157
G05
X111.239Y-55.839G85X113.361Y-57.961
G05
X115.316Y-63.14G85X117.437Y-61.019
G05
X175.674Y-61.222G85X177.795Y-63.343
G05
X182.975Y-57.145G85X180.854Y-59.267
G05
X177.884Y-121.16G85X175.763Y-123.281
G05
X181.961Y-128.461G85X179.839Y-126.339
G05
T0
M30
