G04 #@! TF.GenerationSoftware,KiCad,Pcbnew,5.0.2-bee76a0~70~ubuntu16.04.1*
G04 #@! TF.CreationDate,2021-09-15T08:57:49+02:00*
G04 #@! TF.ProjectId,axis2,61786973-322e-46b6-9963-61645f706362,rev?*
G04 #@! TF.SameCoordinates,Original*
G04 #@! TF.FileFunction,Copper,L2,Bot*
G04 #@! TF.FilePolarity,Positive*
%FSLAX46Y46*%
G04 Gerber Fmt 4.6, Leading zero omitted, Abs format (unit mm)*
G04 Created by KiCad (PCBNEW 5.0.2-bee76a0~70~ubuntu16.04.1) date mer 15 set 2021 08:57:49 CEST*
%MOMM*%
%LPD*%
G01*
G04 APERTURE LIST*
G04 #@! TA.AperFunction,ComponentPad*
%ADD10R,1.700000X1.700000*%
G04 #@! TD*
G04 #@! TA.AperFunction,ComponentPad*
%ADD11O,1.700000X1.700000*%
G04 #@! TD*
G04 #@! TA.AperFunction,ComponentPad*
%ADD12C,3.200000*%
G04 #@! TD*
G04 #@! TA.AperFunction,ComponentPad*
%ADD13C,11.000000*%
G04 #@! TD*
G04 #@! TA.AperFunction,Conductor*
%ADD14C,11.000000*%
G04 #@! TD*
G04 #@! TA.AperFunction,ComponentPad*
%ADD15R,1.600000X1.600000*%
G04 #@! TD*
G04 #@! TA.AperFunction,ComponentPad*
%ADD16C,1.600000*%
G04 #@! TD*
G04 #@! TA.AperFunction,ComponentPad*
%ADD17R,2.200000X2.200000*%
G04 #@! TD*
G04 #@! TA.AperFunction,ComponentPad*
%ADD18O,2.200000X2.200000*%
G04 #@! TD*
G04 #@! TA.AperFunction,Conductor*
%ADD19C,0.100000*%
G04 #@! TD*
G04 #@! TA.AperFunction,ComponentPad*
%ADD20C,1.700000*%
G04 #@! TD*
G04 #@! TA.AperFunction,ComponentPad*
%ADD21O,1.700000X2.000000*%
G04 #@! TD*
G04 #@! TA.AperFunction,Conductor*
%ADD22C,1.700000*%
G04 #@! TD*
G04 #@! TA.AperFunction,ComponentPad*
%ADD23C,1.524000*%
G04 #@! TD*
G04 #@! TA.AperFunction,ComponentPad*
%ADD24C,3.000000*%
G04 #@! TD*
G04 #@! TA.AperFunction,ViaPad*
%ADD25C,0.800000*%
G04 #@! TD*
G04 #@! TA.AperFunction,Conductor*
%ADD26C,0.250000*%
G04 #@! TD*
G04 #@! TA.AperFunction,Conductor*
%ADD27C,0.254000*%
G04 #@! TD*
G04 APERTURE END LIST*
D10*
G04 #@! TO.P,J15,1*
G04 #@! TO.N,/GND*
X102670347Y-87232392D03*
D11*
G04 #@! TO.P,J15,2*
G04 #@! TO.N,+5V*
X102670347Y-84692392D03*
G04 #@! TO.P,J15,3*
G04 #@! TO.N,M6S*
X102670347Y-82152392D03*
G04 #@! TD*
D12*
G04 #@! TO.P,U3,1*
G04 #@! TO.N,N/C*
X177600000Y-45000000D03*
G04 #@! TO.P,U3,2*
X194000000Y-61400000D03*
G04 #@! TO.P,U3,4*
X115500000Y-140000000D03*
G04 #@! TO.P,U3,3*
X99100000Y-123600000D03*
G04 #@! TO.P,U3,8*
X178000000Y-139700000D03*
G04 #@! TO.P,U3,5*
X98500000Y-61000000D03*
G04 #@! TO.P,U3,6*
X114900000Y-44600000D03*
G04 #@! TO.P,U3,7*
X194400000Y-123300000D03*
G04 #@! TO.P,U3,9*
X115200000Y-112400000D03*
G04 #@! TO.P,U3,10*
X126700000Y-123900000D03*
G04 #@! TO.P,U3,11*
X166800000Y-123700000D03*
G04 #@! TO.P,U3,12*
X178300000Y-112200000D03*
G04 #@! TO.P,U3,15*
X126400000Y-61100000D03*
G04 #@! TO.P,U3,16*
X115100000Y-72400000D03*
G04 #@! TO.P,U3,13*
X177800000Y-72400000D03*
G04 #@! TO.P,U3,14*
X166300000Y-60900000D03*
D13*
G04 #@! TO.P,U3,17*
X178900000Y-59800000D03*
D14*
G04 #@! TD*
G04 #@! TO.N,N/C*
G04 #@! TO.C,U3*
X174657359Y-64042641D02*
X183142641Y-55557359D01*
D13*
G04 #@! TO.P,U3,18*
G04 #@! TO.N,N/C*
X113900000Y-59800000D03*
D14*
G04 #@! TD*
G04 #@! TO.N,N/C*
G04 #@! TO.C,U3*
X118142641Y-64042641D02*
X109657359Y-55557359D01*
D13*
G04 #@! TO.P,U3,19*
G04 #@! TO.N,N/C*
X114000000Y-124600000D03*
D14*
G04 #@! TD*
G04 #@! TO.N,N/C*
G04 #@! TO.C,U3*
X118242641Y-120357359D02*
X109757359Y-128842641D01*
D13*
G04 #@! TO.P,U3,20*
G04 #@! TO.N,N/C*
X179100000Y-125000000D03*
D14*
G04 #@! TD*
G04 #@! TO.N,N/C*
G04 #@! TO.C,U3*
X174857359Y-120757359D02*
X183342641Y-129242641D01*
D15*
G04 #@! TO.P,C2,1*
G04 #@! TO.N,+5V*
X143300000Y-63200000D03*
D16*
G04 #@! TO.P,C2,2*
G04 #@! TO.N,/GND*
X145800000Y-63200000D03*
G04 #@! TD*
D17*
G04 #@! TO.P,D1,1*
G04 #@! TO.N,+5V*
X153900000Y-62100000D03*
D18*
G04 #@! TO.P,D1,2*
G04 #@! TO.N,/GND*
X153900000Y-51940000D03*
G04 #@! TD*
D11*
G04 #@! TO.P,J1,20*
G04 #@! TO.N,Net-(J1-Pad20)*
X162160000Y-103760000D03*
G04 #@! TO.P,J1,19*
G04 #@! TO.N,Net-(J1-Pad19)*
X164700000Y-103760000D03*
G04 #@! TO.P,J1,18*
G04 #@! TO.N,Net-(J1-Pad18)*
X162160000Y-101220000D03*
G04 #@! TO.P,J1,17*
G04 #@! TO.N,Net-(J1-Pad17)*
X164700000Y-101220000D03*
G04 #@! TO.P,J1,16*
G04 #@! TO.N,/GND*
X162160000Y-98680000D03*
G04 #@! TO.P,J1,15*
G04 #@! TO.N,MOSI*
X164700000Y-98680000D03*
G04 #@! TO.P,J1,14*
G04 #@! TO.N,SCL*
X162160000Y-96140000D03*
G04 #@! TO.P,J1,13*
G04 #@! TO.N,MISO*
X164700000Y-96140000D03*
G04 #@! TO.P,J1,12*
G04 #@! TO.N,Net-(J1-Pad12)*
X162160000Y-93600000D03*
G04 #@! TO.P,J1,11*
G04 #@! TO.N,Net-(J1-Pad11)*
X164700000Y-93600000D03*
G04 #@! TO.P,J1,10*
G04 #@! TO.N,Net-(J1-Pad10)*
X162160000Y-91060000D03*
G04 #@! TO.P,J1,9*
G04 #@! TO.N,Net-(J1-Pad9)*
X164700000Y-91060000D03*
G04 #@! TO.P,J1,8*
G04 #@! TO.N,Net-(J1-Pad8)*
X162160000Y-88520000D03*
G04 #@! TO.P,J1,7*
G04 #@! TO.N,Net-(J1-Pad7)*
X164700000Y-88520000D03*
G04 #@! TO.P,J1,6*
G04 #@! TO.N,Net-(J1-Pad6)*
X162160000Y-85980000D03*
G04 #@! TO.P,J1,5*
G04 #@! TO.N,Net-(J1-Pad5)*
X164700000Y-85980000D03*
G04 #@! TO.P,J1,4*
G04 #@! TO.N,Net-(J1-Pad4)*
X162160000Y-83440000D03*
G04 #@! TO.P,J1,3*
G04 #@! TO.N,Net-(J1-Pad3)*
X164700000Y-83440000D03*
G04 #@! TO.P,J1,2*
G04 #@! TO.N,/GND*
X162160000Y-80900000D03*
D10*
G04 #@! TO.P,J1,1*
G04 #@! TO.N,+3V3*
X164700000Y-80900000D03*
G04 #@! TD*
G04 #@! TO.P,J2,1*
G04 #@! TO.N,/GND*
X131600000Y-80900000D03*
D11*
G04 #@! TO.P,J2,2*
G04 #@! TO.N,RCS*
X129060000Y-80900000D03*
G04 #@! TO.P,J2,3*
G04 #@! TO.N,M1S*
X131600000Y-83440000D03*
G04 #@! TO.P,J2,4*
G04 #@! TO.N,Net-(J17-Pad4)*
X129060000Y-83440000D03*
G04 #@! TO.P,J2,5*
G04 #@! TO.N,Net-(J17-Pad5)*
X131600000Y-85980000D03*
G04 #@! TO.P,J2,6*
G04 #@! TO.N,M4S*
X129060000Y-85980000D03*
G04 #@! TO.P,J2,7*
G04 #@! TO.N,/GND*
X131600000Y-88520000D03*
G04 #@! TO.P,J2,8*
G04 #@! TO.N,M3S*
X129060000Y-88520000D03*
G04 #@! TO.P,J2,9*
G04 #@! TO.N,M2S*
X131600000Y-91060000D03*
G04 #@! TO.P,J2,10*
G04 #@! TO.N,M6S*
X129060000Y-91060000D03*
G04 #@! TO.P,J2,11*
G04 #@! TO.N,/GND*
X131600000Y-93600000D03*
G04 #@! TO.P,J2,12*
X129060000Y-93600000D03*
G04 #@! TO.P,J2,13*
G04 #@! TO.N,M5S*
X131600000Y-96140000D03*
G04 #@! TO.P,J2,14*
G04 #@! TO.N,Net-(J17-Pad14)*
X129060000Y-96140000D03*
G04 #@! TO.P,J2,15*
G04 #@! TO.N,INT*
X131600000Y-98680000D03*
G04 #@! TO.P,J2,16*
G04 #@! TO.N,NCS*
X129060000Y-98680000D03*
G04 #@! TO.P,J2,17*
G04 #@! TO.N,Net-(J17-Pad17)*
X131600000Y-101220000D03*
G04 #@! TO.P,J2,18*
G04 #@! TO.N,Net-(J17-Pad18)*
X129060000Y-101220000D03*
G04 #@! TO.P,J2,19*
G04 #@! TO.N,Net-(J17-Pad19)*
X131600000Y-103760000D03*
G04 #@! TO.P,J2,20*
G04 #@! TO.N,+5V*
X129060000Y-103760000D03*
G04 #@! TD*
D19*
G04 #@! TO.N,/GND*
G04 #@! TO.C,J3*
G36*
X161626504Y-133096704D02*
X161650773Y-133100304D01*
X161674571Y-133106265D01*
X161697671Y-133114530D01*
X161719849Y-133125020D01*
X161740893Y-133137633D01*
X161760598Y-133152247D01*
X161778777Y-133168723D01*
X161795253Y-133186902D01*
X161809867Y-133206607D01*
X161822480Y-133227651D01*
X161832970Y-133249829D01*
X161841235Y-133272929D01*
X161847196Y-133296727D01*
X161850796Y-133320996D01*
X161852000Y-133345500D01*
X161852000Y-134845500D01*
X161850796Y-134870004D01*
X161847196Y-134894273D01*
X161841235Y-134918071D01*
X161832970Y-134941171D01*
X161822480Y-134963349D01*
X161809867Y-134984393D01*
X161795253Y-135004098D01*
X161778777Y-135022277D01*
X161760598Y-135038753D01*
X161740893Y-135053367D01*
X161719849Y-135065980D01*
X161697671Y-135076470D01*
X161674571Y-135084735D01*
X161650773Y-135090696D01*
X161626504Y-135094296D01*
X161602000Y-135095500D01*
X160402000Y-135095500D01*
X160377496Y-135094296D01*
X160353227Y-135090696D01*
X160329429Y-135084735D01*
X160306329Y-135076470D01*
X160284151Y-135065980D01*
X160263107Y-135053367D01*
X160243402Y-135038753D01*
X160225223Y-135022277D01*
X160208747Y-135004098D01*
X160194133Y-134984393D01*
X160181520Y-134963349D01*
X160171030Y-134941171D01*
X160162765Y-134918071D01*
X160156804Y-134894273D01*
X160153204Y-134870004D01*
X160152000Y-134845500D01*
X160152000Y-133345500D01*
X160153204Y-133320996D01*
X160156804Y-133296727D01*
X160162765Y-133272929D01*
X160171030Y-133249829D01*
X160181520Y-133227651D01*
X160194133Y-133206607D01*
X160208747Y-133186902D01*
X160225223Y-133168723D01*
X160243402Y-133152247D01*
X160263107Y-133137633D01*
X160284151Y-133125020D01*
X160306329Y-133114530D01*
X160329429Y-133106265D01*
X160353227Y-133100304D01*
X160377496Y-133096704D01*
X160402000Y-133095500D01*
X161602000Y-133095500D01*
X161626504Y-133096704D01*
X161626504Y-133096704D01*
G37*
D20*
G04 #@! TD*
G04 #@! TO.P,J3,1*
G04 #@! TO.N,/GND*
X161002000Y-134095500D03*
D21*
G04 #@! TO.P,J3,2*
G04 #@! TO.N,+5V*
X158502000Y-134095500D03*
G04 #@! TD*
D20*
G04 #@! TO.P,J7,1*
G04 #@! TO.N,/GND*
X163700000Y-51700000D03*
D19*
G04 #@! TD*
G04 #@! TO.N,/GND*
G04 #@! TO.C,J7*
G36*
X163700000Y-52902082D02*
X162497918Y-51700000D01*
X163700000Y-50497918D01*
X164902082Y-51700000D01*
X163700000Y-52902082D01*
X163700000Y-52902082D01*
G37*
D20*
G04 #@! TO.P,J7,2*
G04 #@! TO.N,+5V*
X165496051Y-53496051D03*
D22*
G04 #@! TD*
G04 #@! TO.N,+5V*
G04 #@! TO.C,J7*
X165496051Y-53496051D02*
X165496051Y-53496051D01*
D20*
G04 #@! TO.P,J7,3*
G04 #@! TO.N,M3S*
X167292102Y-55292102D03*
D22*
G04 #@! TD*
G04 #@! TO.N,M3S*
G04 #@! TO.C,J7*
X167292102Y-55292102D02*
X167292102Y-55292102D01*
D20*
G04 #@! TO.P,J8,3*
G04 #@! TO.N,M2S*
X108892102Y-71107898D03*
D22*
G04 #@! TD*
G04 #@! TO.N,M2S*
G04 #@! TO.C,J8*
X108892102Y-71107898D02*
X108892102Y-71107898D01*
D20*
G04 #@! TO.P,J8,2*
G04 #@! TO.N,+5V*
X107096051Y-72903949D03*
D22*
G04 #@! TD*
G04 #@! TO.N,+5V*
G04 #@! TO.C,J8*
X107096051Y-72903949D02*
X107096051Y-72903949D01*
D20*
G04 #@! TO.P,J8,1*
G04 #@! TO.N,/GND*
X105300000Y-74700000D03*
D19*
G04 #@! TD*
G04 #@! TO.N,/GND*
G04 #@! TO.C,J8*
G36*
X106502082Y-74700000D02*
X105300000Y-75902082D01*
X104097918Y-74700000D01*
X105300000Y-73497918D01*
X106502082Y-74700000D01*
X106502082Y-74700000D01*
G37*
D10*
G04 #@! TO.P,J9,1*
G04 #@! TO.N,/GND*
X143600000Y-48900000D03*
D11*
G04 #@! TO.P,J9,2*
G04 #@! TO.N,+5V*
X146140000Y-48900000D03*
G04 #@! TO.P,J9,3*
G04 #@! TO.N,RCS*
X148680000Y-48900000D03*
G04 #@! TD*
D20*
G04 #@! TO.P,J12,3*
G04 #@! TO.N,M4S*
X125707898Y-129907898D03*
D22*
G04 #@! TD*
G04 #@! TO.N,M4S*
G04 #@! TO.C,J12*
X125707898Y-129907898D02*
X125707898Y-129907898D01*
D20*
G04 #@! TO.P,J12,2*
G04 #@! TO.N,+5V*
X127503949Y-131703949D03*
D22*
G04 #@! TD*
G04 #@! TO.N,+5V*
G04 #@! TO.C,J12*
X127503949Y-131703949D02*
X127503949Y-131703949D01*
D20*
G04 #@! TO.P,J12,1*
G04 #@! TO.N,/GND*
X129300000Y-133500000D03*
D19*
G04 #@! TD*
G04 #@! TO.N,/GND*
G04 #@! TO.C,J12*
G36*
X129300000Y-132297918D02*
X130502082Y-133500000D01*
X129300000Y-134702082D01*
X128097918Y-133500000D01*
X129300000Y-132297918D01*
X129300000Y-132297918D01*
G37*
D11*
G04 #@! TO.P,J13,3*
G04 #@! TO.N,M5S*
X102670347Y-97252392D03*
G04 #@! TO.P,J13,2*
G04 #@! TO.N,+5V*
X102670347Y-99792392D03*
D10*
G04 #@! TO.P,J13,1*
G04 #@! TO.N,/GND*
X102670347Y-102332392D03*
G04 #@! TD*
D20*
G04 #@! TO.P,J14,3*
G04 #@! TO.N,M1S*
X184007898Y-113392102D03*
D22*
G04 #@! TD*
G04 #@! TO.N,M1S*
G04 #@! TO.C,J14*
X184007898Y-113392102D02*
X184007898Y-113392102D01*
D20*
G04 #@! TO.P,J14,2*
G04 #@! TO.N,+5V*
X185803949Y-111596051D03*
D22*
G04 #@! TD*
G04 #@! TO.N,+5V*
G04 #@! TO.C,J14*
X185803949Y-111596051D02*
X185803949Y-111596051D01*
D20*
G04 #@! TO.P,J14,1*
G04 #@! TO.N,/GND*
X187600000Y-109800000D03*
D19*
G04 #@! TD*
G04 #@! TO.N,/GND*
G04 #@! TO.C,J14*
G36*
X186397918Y-109800000D02*
X187600000Y-108597918D01*
X188802082Y-109800000D01*
X187600000Y-111002082D01*
X186397918Y-109800000D01*
X186397918Y-109800000D01*
G37*
D11*
G04 #@! TO.P,J16,20*
G04 #@! TO.N,Net-(J1-Pad20)*
X179860000Y-103760000D03*
G04 #@! TO.P,J16,19*
G04 #@! TO.N,Net-(J1-Pad19)*
X182400000Y-103760000D03*
G04 #@! TO.P,J16,18*
G04 #@! TO.N,Net-(J1-Pad18)*
X179860000Y-101220000D03*
G04 #@! TO.P,J16,17*
G04 #@! TO.N,Net-(J1-Pad17)*
X182400000Y-101220000D03*
G04 #@! TO.P,J16,16*
G04 #@! TO.N,/GND*
X179860000Y-98680000D03*
G04 #@! TO.P,J16,15*
G04 #@! TO.N,MOSI*
X182400000Y-98680000D03*
G04 #@! TO.P,J16,14*
G04 #@! TO.N,SCL*
X179860000Y-96140000D03*
G04 #@! TO.P,J16,13*
G04 #@! TO.N,MISO*
X182400000Y-96140000D03*
G04 #@! TO.P,J16,12*
G04 #@! TO.N,Net-(J1-Pad12)*
X179860000Y-93600000D03*
G04 #@! TO.P,J16,11*
G04 #@! TO.N,Net-(J1-Pad11)*
X182400000Y-93600000D03*
G04 #@! TO.P,J16,10*
G04 #@! TO.N,Net-(J1-Pad10)*
X179860000Y-91060000D03*
G04 #@! TO.P,J16,9*
G04 #@! TO.N,Net-(J1-Pad9)*
X182400000Y-91060000D03*
G04 #@! TO.P,J16,8*
G04 #@! TO.N,Net-(J1-Pad8)*
X179860000Y-88520000D03*
G04 #@! TO.P,J16,7*
G04 #@! TO.N,Net-(J1-Pad7)*
X182400000Y-88520000D03*
G04 #@! TO.P,J16,6*
G04 #@! TO.N,Net-(J1-Pad6)*
X179860000Y-85980000D03*
G04 #@! TO.P,J16,5*
G04 #@! TO.N,Net-(J1-Pad5)*
X182400000Y-85980000D03*
G04 #@! TO.P,J16,4*
G04 #@! TO.N,Net-(J1-Pad4)*
X179860000Y-83440000D03*
G04 #@! TO.P,J16,3*
G04 #@! TO.N,Net-(J1-Pad3)*
X182400000Y-83440000D03*
G04 #@! TO.P,J16,2*
G04 #@! TO.N,/GND*
X179860000Y-80900000D03*
D10*
G04 #@! TO.P,J16,1*
G04 #@! TO.N,+3V3*
X182400000Y-80900000D03*
G04 #@! TD*
D11*
G04 #@! TO.P,J17,20*
G04 #@! TO.N,+5V*
X110960000Y-103760000D03*
G04 #@! TO.P,J17,19*
G04 #@! TO.N,Net-(J17-Pad19)*
X113500000Y-103760000D03*
G04 #@! TO.P,J17,18*
G04 #@! TO.N,Net-(J17-Pad18)*
X110960000Y-101220000D03*
G04 #@! TO.P,J17,17*
G04 #@! TO.N,Net-(J17-Pad17)*
X113500000Y-101220000D03*
G04 #@! TO.P,J17,16*
G04 #@! TO.N,NCS*
X110960000Y-98680000D03*
G04 #@! TO.P,J17,15*
G04 #@! TO.N,INT*
X113500000Y-98680000D03*
G04 #@! TO.P,J17,14*
G04 #@! TO.N,Net-(J17-Pad14)*
X110960000Y-96140000D03*
G04 #@! TO.P,J17,13*
G04 #@! TO.N,M5S*
X113500000Y-96140000D03*
G04 #@! TO.P,J17,12*
G04 #@! TO.N,/GND*
X110960000Y-93600000D03*
G04 #@! TO.P,J17,11*
X113500000Y-93600000D03*
G04 #@! TO.P,J17,10*
G04 #@! TO.N,M6S*
X110960000Y-91060000D03*
G04 #@! TO.P,J17,9*
G04 #@! TO.N,M2S*
X113500000Y-91060000D03*
G04 #@! TO.P,J17,8*
G04 #@! TO.N,M3S*
X110960000Y-88520000D03*
G04 #@! TO.P,J17,7*
G04 #@! TO.N,/GND*
X113500000Y-88520000D03*
G04 #@! TO.P,J17,6*
G04 #@! TO.N,M4S*
X110960000Y-85980000D03*
G04 #@! TO.P,J17,5*
G04 #@! TO.N,Net-(J17-Pad5)*
X113500000Y-85980000D03*
G04 #@! TO.P,J17,4*
G04 #@! TO.N,Net-(J17-Pad4)*
X110960000Y-83440000D03*
G04 #@! TO.P,J17,3*
G04 #@! TO.N,M1S*
X113500000Y-83440000D03*
G04 #@! TO.P,J17,2*
G04 #@! TO.N,RCS*
X110960000Y-80900000D03*
D10*
G04 #@! TO.P,J17,1*
G04 #@! TO.N,/GND*
X113500000Y-80900000D03*
G04 #@! TD*
D23*
G04 #@! TO.P,U1,1*
G04 #@! TO.N,+3V3*
X140600000Y-80900000D03*
G04 #@! TO.P,U1,2*
G04 #@! TO.N,/GND*
X140600000Y-83440000D03*
G04 #@! TO.P,U1,3*
G04 #@! TO.N,SCL*
X140600000Y-85980000D03*
G04 #@! TO.P,U1,4*
G04 #@! TO.N,MOSI*
X140600000Y-88520000D03*
G04 #@! TO.P,U1,5*
G04 #@! TO.N,N/C*
X140600000Y-91060000D03*
G04 #@! TO.P,U1,6*
X140600000Y-93600000D03*
G04 #@! TO.P,U1,7*
G04 #@! TO.N,MISO*
X140600000Y-96140000D03*
G04 #@! TO.P,U1,8*
G04 #@! TO.N,INT*
X140600000Y-98680000D03*
G04 #@! TO.P,U1,9*
G04 #@! TO.N,NCS*
X140600000Y-101220000D03*
G04 #@! TO.P,U1,10*
G04 #@! TO.N,N/C*
X140600000Y-103760000D03*
D24*
G04 #@! TO.P,U1,11*
X152100000Y-82000000D03*
G04 #@! TO.P,U1,12*
X152100000Y-102600000D03*
G04 #@! TD*
D25*
G04 #@! TO.N,MISO*
X156900000Y-93400000D03*
G04 #@! TO.N,RCS*
X130700000Y-65300000D03*
G04 #@! TO.N,M4S*
X135200000Y-97200000D03*
X135100000Y-101700000D03*
X132500000Y-122000000D03*
G04 #@! TO.N,M3S*
X124600000Y-72700000D03*
G04 #@! TO.N,M1S*
X137000000Y-97300000D03*
X137300000Y-102900000D03*
X166600000Y-108800000D03*
G04 #@! TD*
D26*
G04 #@! TO.N,MISO*
X154160000Y-96140000D02*
X156900000Y-93400000D01*
X140600000Y-96140000D02*
X154160000Y-96140000D01*
G04 #@! TO.N,RCS*
X130700000Y-65300000D02*
X130700000Y-75300000D01*
X129060000Y-76940000D02*
X129060000Y-80900000D01*
X130700000Y-75300000D02*
X129060000Y-76940000D01*
G04 #@! TO.N,M4S*
X135200000Y-101600000D02*
X135100000Y-101700000D01*
X135200000Y-97200000D02*
X135200000Y-101600000D01*
X125707898Y-128792102D02*
X125707898Y-129907898D01*
X132500000Y-122000000D02*
X125707898Y-128792102D01*
G04 #@! TO.N,M3S*
X127857919Y-88520000D02*
X123800000Y-84462081D01*
X129060000Y-88520000D02*
X127857919Y-88520000D01*
X123800000Y-73500000D02*
X124600000Y-72700000D01*
X123800000Y-84462081D02*
X123800000Y-73500000D01*
G04 #@! TO.N,M1S*
X137000000Y-102600000D02*
X137300000Y-102900000D01*
X137000000Y-97300000D02*
X137000000Y-102600000D01*
X166600000Y-108800000D02*
X179700000Y-108800000D01*
X179700000Y-108800000D02*
X184007898Y-113107898D01*
G04 #@! TO.N,/GND*
X104628249Y-86374490D02*
X103770347Y-87232392D01*
X103770347Y-87232392D02*
X102670347Y-87232392D01*
X104628249Y-75371751D02*
X104628249Y-86374490D01*
X105300000Y-74700000D02*
X104628249Y-75371751D01*
X104592392Y-87232392D02*
X110960000Y-93600000D01*
X102670347Y-87232392D02*
X104592392Y-87232392D01*
X110960000Y-93600000D02*
X105500000Y-99060000D01*
X103770347Y-102332392D02*
X102670347Y-102332392D01*
X105500000Y-100602739D02*
X103770347Y-102332392D01*
X105500000Y-99060000D02*
X105500000Y-100602739D01*
X113500000Y-93600000D02*
X110960000Y-93600000D01*
X114702081Y-93600000D02*
X129060000Y-93600000D01*
X113500000Y-93600000D02*
X114702081Y-93600000D01*
X130262081Y-93600000D02*
X131600000Y-93600000D01*
X129060000Y-93600000D02*
X130262081Y-93600000D01*
X138060000Y-80900000D02*
X140600000Y-83440000D01*
X158106500Y-131200000D02*
X161002000Y-134095500D01*
X131600000Y-131200000D02*
X158106500Y-131200000D01*
X129300000Y-133500000D02*
X131600000Y-131200000D01*
X161310001Y-99529999D02*
X162160000Y-98680000D01*
X160984999Y-132978499D02*
X160984999Y-99855001D01*
X161002000Y-132995500D02*
X160984999Y-132978499D01*
X160984999Y-99855001D02*
X161310001Y-99529999D01*
X161002000Y-134095500D02*
X161002000Y-132995500D01*
X186297918Y-109800000D02*
X187600000Y-109800000D01*
X184160998Y-109800000D02*
X186297918Y-109800000D01*
X177900000Y-103539002D02*
X184160998Y-109800000D01*
X179860000Y-98680000D02*
X177900000Y-100640000D01*
X143600000Y-50000000D02*
X145540000Y-51940000D01*
X152344366Y-51940000D02*
X153900000Y-51940000D01*
X143600000Y-48900000D02*
X143600000Y-50000000D01*
X163460000Y-51940000D02*
X163700000Y-51700000D01*
X153900000Y-51940000D02*
X163460000Y-51940000D01*
X163335001Y-79724999D02*
X163009999Y-80050001D01*
X178684999Y-79724999D02*
X163335001Y-79724999D01*
X163009999Y-80050001D02*
X162160000Y-80900000D01*
X179860000Y-80900000D02*
X178684999Y-79724999D01*
X163524999Y-100044999D02*
X177144999Y-100044999D01*
X162160000Y-98680000D02*
X163524999Y-100044999D01*
X177144999Y-100044999D02*
X177900000Y-100800000D01*
X177900000Y-100640000D02*
X177900000Y-100800000D01*
X177900000Y-100800000D02*
X177900000Y-103539002D01*
X145800000Y-52040000D02*
X145700000Y-51940000D01*
X145700000Y-51940000D02*
X152344366Y-51940000D01*
X145800000Y-63200000D02*
X145800000Y-52040000D01*
X145540000Y-51940000D02*
X145700000Y-51940000D01*
X132700000Y-80900000D02*
X131600000Y-80900000D01*
X132775001Y-80975001D02*
X132700000Y-80900000D01*
X131600000Y-87719002D02*
X132775001Y-86544001D01*
X132775001Y-86544001D02*
X132775001Y-80975001D01*
X131600000Y-88520000D02*
X131600000Y-87719002D01*
X132449999Y-92750001D02*
X131600000Y-93600000D01*
X133300000Y-91900000D02*
X132449999Y-92750001D01*
X133300000Y-90220000D02*
X133300000Y-91900000D01*
X131600000Y-88520000D02*
X133300000Y-90220000D01*
X161310001Y-81749999D02*
X162160000Y-80900000D01*
X158858001Y-84201999D02*
X161310001Y-81749999D01*
X140600000Y-83440000D02*
X141361999Y-84201999D01*
X145800000Y-63200000D02*
X145000001Y-63999999D01*
X145000001Y-73699999D02*
X137800000Y-80900000D01*
X145000001Y-63999999D02*
X145000001Y-73699999D01*
X131600000Y-80900000D02*
X137800000Y-80900000D01*
X137800000Y-80900000D02*
X138060000Y-80900000D01*
X158700000Y-95220000D02*
X158700000Y-84201999D01*
X158700000Y-84201999D02*
X158858001Y-84201999D01*
X162160000Y-98680000D02*
X158700000Y-95220000D01*
X141361999Y-84201999D02*
X158700000Y-84201999D01*
X112324999Y-80975001D02*
X112400000Y-80900000D01*
X112400000Y-80900000D02*
X113500000Y-80900000D01*
X112324999Y-92424999D02*
X112324999Y-80975001D01*
X112650001Y-92750001D02*
X113500000Y-93600000D01*
X112324999Y-92424999D02*
X112650001Y-92750001D01*
X112324999Y-89695001D02*
X112324999Y-92424999D01*
X113500000Y-88520000D02*
X112324999Y-89695001D01*
G04 #@! TD*
D27*
G04 #@! TO.N,/GND*
G36*
X116599794Y-38427648D02*
X177847309Y-38526915D01*
X201072830Y-61752436D01*
X200873170Y-123547224D01*
X178147394Y-146273000D01*
X115352606Y-146273000D01*
X108635037Y-139555431D01*
X113265000Y-139555431D01*
X113265000Y-140444569D01*
X113605259Y-141266026D01*
X114233974Y-141894741D01*
X115055431Y-142235000D01*
X115944569Y-142235000D01*
X116766026Y-141894741D01*
X117394741Y-141266026D01*
X117735000Y-140444569D01*
X117735000Y-139555431D01*
X117610736Y-139255431D01*
X175765000Y-139255431D01*
X175765000Y-140144569D01*
X176105259Y-140966026D01*
X176733974Y-141594741D01*
X177555431Y-141935000D01*
X178444569Y-141935000D01*
X179266026Y-141594741D01*
X179894741Y-140966026D01*
X180235000Y-140144569D01*
X180235000Y-139255431D01*
X179894741Y-138433974D01*
X179266026Y-137805259D01*
X178444569Y-137465000D01*
X177555431Y-137465000D01*
X176733974Y-137805259D01*
X176105259Y-138433974D01*
X175765000Y-139255431D01*
X117610736Y-139255431D01*
X117394741Y-138733974D01*
X116766026Y-138105259D01*
X115944569Y-137765000D01*
X115055431Y-137765000D01*
X114233974Y-138105259D01*
X113605259Y-138733974D01*
X113265000Y-139555431D01*
X108635037Y-139555431D01*
X97922247Y-128842641D01*
X103502168Y-128842641D01*
X103978316Y-131236398D01*
X105334272Y-133265728D01*
X107363602Y-134621684D01*
X109757359Y-135097832D01*
X112151116Y-134621684D01*
X112291918Y-134527603D01*
X128452002Y-134527603D01*
X128452002Y-134752109D01*
X128940302Y-135240409D01*
X129173691Y-135337082D01*
X129426310Y-135337081D01*
X129659699Y-135240408D01*
X130147998Y-134752109D01*
X130147998Y-134527603D01*
X129300000Y-133679605D01*
X128452002Y-134527603D01*
X112291918Y-134527603D01*
X113668196Y-133608004D01*
X117368302Y-129907898D01*
X124193806Y-129907898D01*
X124309059Y-130487316D01*
X124637273Y-130978523D01*
X125128480Y-131306737D01*
X125561642Y-131392898D01*
X125854154Y-131392898D01*
X126059868Y-131351979D01*
X125989857Y-131703949D01*
X126105110Y-132283367D01*
X126433324Y-132774574D01*
X126924531Y-133102788D01*
X127357693Y-133188949D01*
X127539441Y-133188949D01*
X127462919Y-133373690D01*
X127462918Y-133626309D01*
X127559591Y-133859698D01*
X128047891Y-134347998D01*
X128272397Y-134347998D01*
X129120395Y-133500000D01*
X129479605Y-133500000D01*
X130327603Y-134347998D01*
X130552109Y-134347998D01*
X131040408Y-133859699D01*
X131065449Y-133799244D01*
X157017000Y-133799244D01*
X157017000Y-134391755D01*
X157103161Y-134824917D01*
X157431375Y-135316125D01*
X157922582Y-135644339D01*
X158502000Y-135759592D01*
X159081417Y-135644339D01*
X159559656Y-135324791D01*
X159613673Y-135455199D01*
X159792302Y-135633827D01*
X160025691Y-135730500D01*
X160716250Y-135730500D01*
X160875000Y-135571750D01*
X160875000Y-134222500D01*
X161129000Y-134222500D01*
X161129000Y-135571750D01*
X161287750Y-135730500D01*
X161978309Y-135730500D01*
X162211698Y-135633827D01*
X162390327Y-135455199D01*
X162487000Y-135221810D01*
X162487000Y-134381250D01*
X162328250Y-134222500D01*
X161129000Y-134222500D01*
X160875000Y-134222500D01*
X160855000Y-134222500D01*
X160855000Y-133968500D01*
X160875000Y-133968500D01*
X160875000Y-132619250D01*
X161129000Y-132619250D01*
X161129000Y-133968500D01*
X162328250Y-133968500D01*
X162487000Y-133809750D01*
X162487000Y-133330500D01*
X162847657Y-133330500D01*
X163301571Y-133142482D01*
X163648982Y-132795071D01*
X163837000Y-132341157D01*
X163837000Y-131849843D01*
X163648982Y-131395929D01*
X163301571Y-131048518D01*
X162847657Y-130860500D01*
X162356343Y-130860500D01*
X161902429Y-131048518D01*
X161555018Y-131395929D01*
X161367000Y-131849843D01*
X161367000Y-132341157D01*
X161416434Y-132460500D01*
X161287750Y-132460500D01*
X161129000Y-132619250D01*
X160875000Y-132619250D01*
X160716250Y-132460500D01*
X160025691Y-132460500D01*
X159792302Y-132557173D01*
X159613673Y-132735801D01*
X159559656Y-132866209D01*
X159081418Y-132546661D01*
X158502000Y-132431408D01*
X157922583Y-132546661D01*
X157431375Y-132874875D01*
X157103161Y-133366082D01*
X157017000Y-133799244D01*
X131065449Y-133799244D01*
X131137081Y-133626310D01*
X131137082Y-133373691D01*
X131040409Y-133140302D01*
X130552109Y-132652002D01*
X130327603Y-132652002D01*
X129479605Y-133500000D01*
X129120395Y-133500000D01*
X129106253Y-133485858D01*
X129285858Y-133306253D01*
X129300000Y-133320395D01*
X130147998Y-132472397D01*
X130147998Y-132247891D01*
X129659698Y-131759591D01*
X129426309Y-131662918D01*
X129173690Y-131662919D01*
X129012959Y-131729496D01*
X129018041Y-131703949D01*
X128902788Y-131124531D01*
X128574574Y-130633324D01*
X128083367Y-130305110D01*
X127650205Y-130218949D01*
X127357693Y-130218949D01*
X127151979Y-130259868D01*
X127221990Y-129907898D01*
X127106737Y-129328480D01*
X126778523Y-128837273D01*
X126753948Y-128820853D01*
X132319370Y-123255431D01*
X164565000Y-123255431D01*
X164565000Y-124144569D01*
X164905259Y-124966026D01*
X165533974Y-125594741D01*
X166355431Y-125935000D01*
X167244569Y-125935000D01*
X168066026Y-125594741D01*
X168694741Y-124966026D01*
X169035000Y-124144569D01*
X169035000Y-123255431D01*
X168694741Y-122433974D01*
X168066026Y-121805259D01*
X167244569Y-121465000D01*
X166355431Y-121465000D01*
X165533974Y-121805259D01*
X164905259Y-122433974D01*
X164565000Y-123255431D01*
X132319370Y-123255431D01*
X132539802Y-123035000D01*
X132705874Y-123035000D01*
X133086280Y-122877431D01*
X133377431Y-122586280D01*
X133535000Y-122205874D01*
X133535000Y-121794126D01*
X133377431Y-121413720D01*
X133086280Y-121122569D01*
X132705874Y-120965000D01*
X132294126Y-120965000D01*
X131913720Y-121122569D01*
X131622569Y-121413720D01*
X131465000Y-121794126D01*
X131465000Y-121960198D01*
X128832024Y-124593174D01*
X128935000Y-124344569D01*
X128935000Y-123455431D01*
X128594741Y-122633974D01*
X127966026Y-122005259D01*
X127144569Y-121665000D01*
X126255431Y-121665000D01*
X125433974Y-122005259D01*
X124805259Y-122633974D01*
X124465000Y-123455431D01*
X124465000Y-124344569D01*
X124805259Y-125166026D01*
X125433974Y-125794741D01*
X126255431Y-126135000D01*
X127144569Y-126135000D01*
X127393175Y-126032024D01*
X125223428Y-128201771D01*
X125159969Y-128244173D01*
X124991994Y-128495566D01*
X124967978Y-128616303D01*
X124637273Y-128837273D01*
X124309059Y-129328480D01*
X124193806Y-129907898D01*
X117368302Y-129907898D01*
X123008004Y-124268197D01*
X124021684Y-122751117D01*
X124418267Y-120757359D01*
X168602168Y-120757359D01*
X169078316Y-123151116D01*
X170091996Y-124668196D01*
X179431803Y-134008004D01*
X180948883Y-135021684D01*
X183342641Y-135497832D01*
X185736399Y-135021684D01*
X187765729Y-133665729D01*
X189121684Y-131636399D01*
X189597832Y-129242641D01*
X189121684Y-126848883D01*
X188108004Y-125331803D01*
X185631632Y-122855431D01*
X192165000Y-122855431D01*
X192165000Y-123744569D01*
X192505259Y-124566026D01*
X193133974Y-125194741D01*
X193955431Y-125535000D01*
X194844569Y-125535000D01*
X195666026Y-125194741D01*
X196294741Y-124566026D01*
X196635000Y-123744569D01*
X196635000Y-122855431D01*
X196294741Y-122033974D01*
X195666026Y-121405259D01*
X194844569Y-121065000D01*
X193955431Y-121065000D01*
X193133974Y-121405259D01*
X192505259Y-122033974D01*
X192165000Y-122855431D01*
X185631632Y-122855431D01*
X178768196Y-115991996D01*
X177251116Y-114978316D01*
X174857359Y-114502168D01*
X172463602Y-114978316D01*
X170434272Y-116334272D01*
X169078316Y-118363602D01*
X168602168Y-120757359D01*
X124418267Y-120757359D01*
X124497832Y-120357359D01*
X124021684Y-117963601D01*
X122665729Y-115934271D01*
X120636399Y-114578316D01*
X118242641Y-114102168D01*
X115848883Y-114578316D01*
X114331803Y-115591996D01*
X104991996Y-124931804D01*
X103978316Y-126448884D01*
X103502168Y-128842641D01*
X97922247Y-128842641D01*
X92426914Y-123347308D01*
X92426600Y-123155431D01*
X96865000Y-123155431D01*
X96865000Y-124044569D01*
X97205259Y-124866026D01*
X97833974Y-125494741D01*
X98655431Y-125835000D01*
X99544569Y-125835000D01*
X100366026Y-125494741D01*
X100994741Y-124866026D01*
X101335000Y-124044569D01*
X101335000Y-123155431D01*
X100994741Y-122333974D01*
X100366026Y-121705259D01*
X99544569Y-121365000D01*
X98655431Y-121365000D01*
X97833974Y-121705259D01*
X97205259Y-122333974D01*
X96865000Y-123155431D01*
X92426600Y-123155431D01*
X92408240Y-111955431D01*
X112965000Y-111955431D01*
X112965000Y-112844569D01*
X113305259Y-113666026D01*
X113933974Y-114294741D01*
X114755431Y-114635000D01*
X115644569Y-114635000D01*
X116466026Y-114294741D01*
X117094741Y-113666026D01*
X117435000Y-112844569D01*
X117435000Y-111955431D01*
X117352158Y-111755431D01*
X176065000Y-111755431D01*
X176065000Y-112644569D01*
X176405259Y-113466026D01*
X177033974Y-114094741D01*
X177855431Y-114435000D01*
X178744569Y-114435000D01*
X179566026Y-114094741D01*
X180194741Y-113466026D01*
X180535000Y-112644569D01*
X180535000Y-111755431D01*
X180194741Y-110933974D01*
X179566026Y-110305259D01*
X178744569Y-109965000D01*
X177855431Y-109965000D01*
X177033974Y-110305259D01*
X176405259Y-110933974D01*
X176065000Y-111755431D01*
X117352158Y-111755431D01*
X117094741Y-111133974D01*
X116466026Y-110505259D01*
X115644569Y-110165000D01*
X114755431Y-110165000D01*
X113933974Y-110505259D01*
X113305259Y-111133974D01*
X112965000Y-111955431D01*
X92408240Y-111955431D01*
X92402730Y-108594126D01*
X165565000Y-108594126D01*
X165565000Y-109005874D01*
X165722569Y-109386280D01*
X166013720Y-109677431D01*
X166394126Y-109835000D01*
X166805874Y-109835000D01*
X167186280Y-109677431D01*
X167303711Y-109560000D01*
X179385199Y-109560000D01*
X182620604Y-112795406D01*
X182609059Y-112812684D01*
X182493806Y-113392102D01*
X182609059Y-113971520D01*
X182937273Y-114462727D01*
X183428480Y-114790941D01*
X183861642Y-114877102D01*
X184154154Y-114877102D01*
X184587316Y-114790941D01*
X185078523Y-114462727D01*
X185406737Y-113971520D01*
X185521990Y-113392102D01*
X185451979Y-113040132D01*
X185657693Y-113081051D01*
X185950205Y-113081051D01*
X186383367Y-112994890D01*
X186874574Y-112666676D01*
X187202788Y-112175469D01*
X187318041Y-111596051D01*
X187312959Y-111570504D01*
X187473690Y-111637081D01*
X187726309Y-111637082D01*
X187959698Y-111540409D01*
X188447998Y-111052109D01*
X188447998Y-110827603D01*
X187600000Y-109979605D01*
X187585858Y-109993748D01*
X187406253Y-109814143D01*
X187420395Y-109800000D01*
X187779605Y-109800000D01*
X188627603Y-110647998D01*
X188852109Y-110647998D01*
X189340409Y-110159698D01*
X189437082Y-109926309D01*
X189437081Y-109673690D01*
X189340408Y-109440301D01*
X188852109Y-108952002D01*
X188627603Y-108952002D01*
X187779605Y-109800000D01*
X187420395Y-109800000D01*
X186572397Y-108952002D01*
X186347891Y-108952002D01*
X185859591Y-109440302D01*
X185762918Y-109673691D01*
X185762919Y-109926310D01*
X185839441Y-110111051D01*
X185657693Y-110111051D01*
X185224531Y-110197212D01*
X184733324Y-110525426D01*
X184405110Y-111016633D01*
X184289857Y-111596051D01*
X184359868Y-111948021D01*
X184154154Y-111907102D01*
X183881904Y-111907102D01*
X180522693Y-108547891D01*
X186752002Y-108547891D01*
X186752002Y-108772397D01*
X187600000Y-109620395D01*
X188447998Y-108772397D01*
X188447998Y-108547891D01*
X187959699Y-108059592D01*
X187726310Y-107962919D01*
X187473691Y-107962918D01*
X187240302Y-108059591D01*
X186752002Y-108547891D01*
X180522693Y-108547891D01*
X180290331Y-108315530D01*
X180247929Y-108252071D01*
X179996537Y-108084096D01*
X179774852Y-108040000D01*
X179774847Y-108040000D01*
X179700000Y-108025112D01*
X179625153Y-108040000D01*
X167303711Y-108040000D01*
X167186280Y-107922569D01*
X166805874Y-107765000D01*
X166394126Y-107765000D01*
X166013720Y-107922569D01*
X165722569Y-108213720D01*
X165565000Y-108594126D01*
X92402730Y-108594126D01*
X92392933Y-102618142D01*
X101185347Y-102618142D01*
X101185347Y-103308702D01*
X101282020Y-103542091D01*
X101460649Y-103720719D01*
X101694038Y-103817392D01*
X102384597Y-103817392D01*
X102543347Y-103658642D01*
X102543347Y-102459392D01*
X102797347Y-102459392D01*
X102797347Y-103658642D01*
X102956097Y-103817392D01*
X103646656Y-103817392D01*
X103880045Y-103720719D01*
X104058674Y-103542091D01*
X104155347Y-103308702D01*
X104155347Y-102618142D01*
X103996597Y-102459392D01*
X102797347Y-102459392D01*
X102543347Y-102459392D01*
X101344097Y-102459392D01*
X101185347Y-102618142D01*
X92392933Y-102618142D01*
X92384136Y-97252392D01*
X101156255Y-97252392D01*
X101271508Y-97831810D01*
X101599722Y-98323017D01*
X101898108Y-98522392D01*
X101599722Y-98721767D01*
X101271508Y-99212974D01*
X101156255Y-99792392D01*
X101271508Y-100371810D01*
X101599722Y-100863017D01*
X101621380Y-100877488D01*
X101460649Y-100944065D01*
X101282020Y-101122693D01*
X101185347Y-101356082D01*
X101185347Y-102046642D01*
X101344097Y-102205392D01*
X102543347Y-102205392D01*
X102543347Y-102185392D01*
X102797347Y-102185392D01*
X102797347Y-102205392D01*
X103996597Y-102205392D01*
X104155347Y-102046642D01*
X104155347Y-101356082D01*
X104058674Y-101122693D01*
X103880045Y-100944065D01*
X103719314Y-100877488D01*
X103740972Y-100863017D01*
X104069186Y-100371810D01*
X104184439Y-99792392D01*
X104069186Y-99212974D01*
X103740972Y-98721767D01*
X103442586Y-98522392D01*
X103740972Y-98323017D01*
X104069186Y-97831810D01*
X104184439Y-97252392D01*
X104069186Y-96672974D01*
X103740972Y-96181767D01*
X103678464Y-96140000D01*
X109445908Y-96140000D01*
X109561161Y-96719418D01*
X109889375Y-97210625D01*
X110187761Y-97410000D01*
X109889375Y-97609375D01*
X109561161Y-98100582D01*
X109445908Y-98680000D01*
X109561161Y-99259418D01*
X109889375Y-99750625D01*
X110187761Y-99950000D01*
X109889375Y-100149375D01*
X109561161Y-100640582D01*
X109445908Y-101220000D01*
X109561161Y-101799418D01*
X109889375Y-102290625D01*
X110187761Y-102490000D01*
X109889375Y-102689375D01*
X109561161Y-103180582D01*
X109445908Y-103760000D01*
X109561161Y-104339418D01*
X109889375Y-104830625D01*
X110380582Y-105158839D01*
X110813744Y-105245000D01*
X111106256Y-105245000D01*
X111539418Y-105158839D01*
X112030625Y-104830625D01*
X112230000Y-104532239D01*
X112429375Y-104830625D01*
X112920582Y-105158839D01*
X113353744Y-105245000D01*
X113646256Y-105245000D01*
X114079418Y-105158839D01*
X114570625Y-104830625D01*
X114898839Y-104339418D01*
X115014092Y-103760000D01*
X114898839Y-103180582D01*
X114570625Y-102689375D01*
X114272239Y-102490000D01*
X114570625Y-102290625D01*
X114898839Y-101799418D01*
X115014092Y-101220000D01*
X114898839Y-100640582D01*
X114570625Y-100149375D01*
X114272239Y-99950000D01*
X114570625Y-99750625D01*
X114898839Y-99259418D01*
X115014092Y-98680000D01*
X114898839Y-98100582D01*
X114570625Y-97609375D01*
X114272239Y-97410000D01*
X114570625Y-97210625D01*
X114898839Y-96719418D01*
X115014092Y-96140000D01*
X127545908Y-96140000D01*
X127661161Y-96719418D01*
X127989375Y-97210625D01*
X128287761Y-97410000D01*
X127989375Y-97609375D01*
X127661161Y-98100582D01*
X127545908Y-98680000D01*
X127661161Y-99259418D01*
X127989375Y-99750625D01*
X128287761Y-99950000D01*
X127989375Y-100149375D01*
X127661161Y-100640582D01*
X127545908Y-101220000D01*
X127661161Y-101799418D01*
X127989375Y-102290625D01*
X128287761Y-102490000D01*
X127989375Y-102689375D01*
X127661161Y-103180582D01*
X127545908Y-103760000D01*
X127661161Y-104339418D01*
X127989375Y-104830625D01*
X128480582Y-105158839D01*
X128913744Y-105245000D01*
X129206256Y-105245000D01*
X129639418Y-105158839D01*
X130130625Y-104830625D01*
X130330000Y-104532239D01*
X130529375Y-104830625D01*
X131020582Y-105158839D01*
X131453744Y-105245000D01*
X131746256Y-105245000D01*
X132179418Y-105158839D01*
X132670625Y-104830625D01*
X132998839Y-104339418D01*
X133114092Y-103760000D01*
X132998839Y-103180582D01*
X132670625Y-102689375D01*
X132372239Y-102490000D01*
X132670625Y-102290625D01*
X132998839Y-101799418D01*
X133059565Y-101494126D01*
X134065000Y-101494126D01*
X134065000Y-101905874D01*
X134222569Y-102286280D01*
X134513720Y-102577431D01*
X134894126Y-102735000D01*
X135305874Y-102735000D01*
X135686280Y-102577431D01*
X135977431Y-102286280D01*
X136135000Y-101905874D01*
X136135000Y-101494126D01*
X135977431Y-101113720D01*
X135960000Y-101096289D01*
X135960000Y-97903711D01*
X136077431Y-97786280D01*
X136079289Y-97781794D01*
X136122569Y-97886280D01*
X136240000Y-98003711D01*
X136240001Y-102525148D01*
X136225112Y-102600000D01*
X136240001Y-102674852D01*
X136265000Y-102800530D01*
X136265000Y-103105874D01*
X136422569Y-103486280D01*
X136713720Y-103777431D01*
X137094126Y-103935000D01*
X137505874Y-103935000D01*
X137886280Y-103777431D01*
X138177431Y-103486280D01*
X138335000Y-103105874D01*
X138335000Y-102694126D01*
X138177431Y-102313720D01*
X137886280Y-102022569D01*
X137760000Y-101970262D01*
X137760000Y-98003711D01*
X137877431Y-97886280D01*
X138035000Y-97505874D01*
X138035000Y-97094126D01*
X137877431Y-96713720D01*
X137586280Y-96422569D01*
X137205874Y-96265000D01*
X136794126Y-96265000D01*
X136413720Y-96422569D01*
X136122569Y-96713720D01*
X136120711Y-96718206D01*
X136077431Y-96613720D01*
X135786280Y-96322569D01*
X135405874Y-96165000D01*
X134994126Y-96165000D01*
X134613720Y-96322569D01*
X134322569Y-96613720D01*
X134165000Y-96994126D01*
X134165000Y-97405874D01*
X134322569Y-97786280D01*
X134440000Y-97903711D01*
X134440001Y-100896288D01*
X134222569Y-101113720D01*
X134065000Y-101494126D01*
X133059565Y-101494126D01*
X133114092Y-101220000D01*
X132998839Y-100640582D01*
X132670625Y-100149375D01*
X132372239Y-99950000D01*
X132670625Y-99750625D01*
X132998839Y-99259418D01*
X133114092Y-98680000D01*
X132998839Y-98100582D01*
X132670625Y-97609375D01*
X132372239Y-97410000D01*
X132670625Y-97210625D01*
X132998839Y-96719418D01*
X133114092Y-96140000D01*
X132998839Y-95560582D01*
X132670625Y-95069375D01*
X132351522Y-94856157D01*
X132481358Y-94795183D01*
X132871645Y-94366924D01*
X133041476Y-93956890D01*
X132920155Y-93727000D01*
X131727000Y-93727000D01*
X131727000Y-93747000D01*
X131473000Y-93747000D01*
X131473000Y-93727000D01*
X129187000Y-93727000D01*
X129187000Y-93747000D01*
X128933000Y-93747000D01*
X128933000Y-93727000D01*
X127739845Y-93727000D01*
X127618524Y-93956890D01*
X127788355Y-94366924D01*
X128178642Y-94795183D01*
X128308478Y-94856157D01*
X127989375Y-95069375D01*
X127661161Y-95560582D01*
X127545908Y-96140000D01*
X115014092Y-96140000D01*
X114898839Y-95560582D01*
X114570625Y-95069375D01*
X114251522Y-94856157D01*
X114381358Y-94795183D01*
X114771645Y-94366924D01*
X114941476Y-93956890D01*
X114820155Y-93727000D01*
X113627000Y-93727000D01*
X113627000Y-93747000D01*
X113373000Y-93747000D01*
X113373000Y-93727000D01*
X111087000Y-93727000D01*
X111087000Y-93747000D01*
X110833000Y-93747000D01*
X110833000Y-93727000D01*
X109639845Y-93727000D01*
X109518524Y-93956890D01*
X109688355Y-94366924D01*
X110078642Y-94795183D01*
X110208478Y-94856157D01*
X109889375Y-95069375D01*
X109561161Y-95560582D01*
X109445908Y-96140000D01*
X103678464Y-96140000D01*
X103249765Y-95853553D01*
X102816603Y-95767392D01*
X102524091Y-95767392D01*
X102090929Y-95853553D01*
X101599722Y-96181767D01*
X101271508Y-96672974D01*
X101156255Y-97252392D01*
X92384136Y-97252392D01*
X92368179Y-87518142D01*
X101185347Y-87518142D01*
X101185347Y-88208702D01*
X101282020Y-88442091D01*
X101460649Y-88620719D01*
X101694038Y-88717392D01*
X102384597Y-88717392D01*
X102543347Y-88558642D01*
X102543347Y-87359392D01*
X102797347Y-87359392D01*
X102797347Y-88558642D01*
X102956097Y-88717392D01*
X103646656Y-88717392D01*
X103880045Y-88620719D01*
X104058674Y-88442091D01*
X104155347Y-88208702D01*
X104155347Y-87518142D01*
X103996597Y-87359392D01*
X102797347Y-87359392D01*
X102543347Y-87359392D01*
X101344097Y-87359392D01*
X101185347Y-87518142D01*
X92368179Y-87518142D01*
X92359382Y-82152392D01*
X101156255Y-82152392D01*
X101271508Y-82731810D01*
X101599722Y-83223017D01*
X101898108Y-83422392D01*
X101599722Y-83621767D01*
X101271508Y-84112974D01*
X101156255Y-84692392D01*
X101271508Y-85271810D01*
X101599722Y-85763017D01*
X101621380Y-85777488D01*
X101460649Y-85844065D01*
X101282020Y-86022693D01*
X101185347Y-86256082D01*
X101185347Y-86946642D01*
X101344097Y-87105392D01*
X102543347Y-87105392D01*
X102543347Y-87085392D01*
X102797347Y-87085392D01*
X102797347Y-87105392D01*
X103996597Y-87105392D01*
X104155347Y-86946642D01*
X104155347Y-86256082D01*
X104058674Y-86022693D01*
X103880045Y-85844065D01*
X103719314Y-85777488D01*
X103740972Y-85763017D01*
X104069186Y-85271810D01*
X104184439Y-84692392D01*
X104069186Y-84112974D01*
X103740972Y-83621767D01*
X103442586Y-83422392D01*
X103740972Y-83223017D01*
X104069186Y-82731810D01*
X104184439Y-82152392D01*
X104069186Y-81572974D01*
X103740972Y-81081767D01*
X103468939Y-80900000D01*
X109445908Y-80900000D01*
X109561161Y-81479418D01*
X109889375Y-81970625D01*
X110187761Y-82170000D01*
X109889375Y-82369375D01*
X109561161Y-82860582D01*
X109445908Y-83440000D01*
X109561161Y-84019418D01*
X109889375Y-84510625D01*
X110187761Y-84710000D01*
X109889375Y-84909375D01*
X109561161Y-85400582D01*
X109445908Y-85980000D01*
X109561161Y-86559418D01*
X109889375Y-87050625D01*
X110187761Y-87250000D01*
X109889375Y-87449375D01*
X109561161Y-87940582D01*
X109445908Y-88520000D01*
X109561161Y-89099418D01*
X109889375Y-89590625D01*
X110187761Y-89790000D01*
X109889375Y-89989375D01*
X109561161Y-90480582D01*
X109445908Y-91060000D01*
X109561161Y-91639418D01*
X109889375Y-92130625D01*
X110208478Y-92343843D01*
X110078642Y-92404817D01*
X109688355Y-92833076D01*
X109518524Y-93243110D01*
X109639845Y-93473000D01*
X110833000Y-93473000D01*
X110833000Y-93453000D01*
X111087000Y-93453000D01*
X111087000Y-93473000D01*
X113373000Y-93473000D01*
X113373000Y-93453000D01*
X113627000Y-93453000D01*
X113627000Y-93473000D01*
X114820155Y-93473000D01*
X114941476Y-93243110D01*
X114771645Y-92833076D01*
X114381358Y-92404817D01*
X114251522Y-92343843D01*
X114570625Y-92130625D01*
X114898839Y-91639418D01*
X115014092Y-91060000D01*
X114898839Y-90480582D01*
X114570625Y-89989375D01*
X114251522Y-89776157D01*
X114381358Y-89715183D01*
X114771645Y-89286924D01*
X114941476Y-88876890D01*
X114820155Y-88647000D01*
X113627000Y-88647000D01*
X113627000Y-88667000D01*
X113373000Y-88667000D01*
X113373000Y-88647000D01*
X113353000Y-88647000D01*
X113353000Y-88393000D01*
X113373000Y-88393000D01*
X113373000Y-88373000D01*
X113627000Y-88373000D01*
X113627000Y-88393000D01*
X114820155Y-88393000D01*
X114941476Y-88163110D01*
X114771645Y-87753076D01*
X114381358Y-87324817D01*
X114251522Y-87263843D01*
X114570625Y-87050625D01*
X114898839Y-86559418D01*
X115014092Y-85980000D01*
X114898839Y-85400582D01*
X114570625Y-84909375D01*
X114272239Y-84710000D01*
X114570625Y-84510625D01*
X114898839Y-84019418D01*
X115014092Y-83440000D01*
X114898839Y-82860582D01*
X114570625Y-82369375D01*
X114548967Y-82354904D01*
X114709698Y-82288327D01*
X114888327Y-82109699D01*
X114985000Y-81876310D01*
X114985000Y-81185750D01*
X114826250Y-81027000D01*
X113627000Y-81027000D01*
X113627000Y-81047000D01*
X113373000Y-81047000D01*
X113373000Y-81027000D01*
X113353000Y-81027000D01*
X113353000Y-80773000D01*
X113373000Y-80773000D01*
X113373000Y-79573750D01*
X113627000Y-79573750D01*
X113627000Y-80773000D01*
X114826250Y-80773000D01*
X114985000Y-80614250D01*
X114985000Y-79923690D01*
X114888327Y-79690301D01*
X114709698Y-79511673D01*
X114476309Y-79415000D01*
X113785750Y-79415000D01*
X113627000Y-79573750D01*
X113373000Y-79573750D01*
X113214250Y-79415000D01*
X112523691Y-79415000D01*
X112290302Y-79511673D01*
X112111673Y-79690301D01*
X112045096Y-79851032D01*
X112030625Y-79829375D01*
X111539418Y-79501161D01*
X111106256Y-79415000D01*
X110813744Y-79415000D01*
X110380582Y-79501161D01*
X109889375Y-79829375D01*
X109561161Y-80320582D01*
X109445908Y-80900000D01*
X103468939Y-80900000D01*
X103249765Y-80753553D01*
X102816603Y-80667392D01*
X102524091Y-80667392D01*
X102090929Y-80753553D01*
X101599722Y-81081767D01*
X101271508Y-81572974D01*
X101156255Y-82152392D01*
X92359382Y-82152392D01*
X92348850Y-75727603D01*
X104452002Y-75727603D01*
X104452002Y-75952109D01*
X104940301Y-76440408D01*
X105173690Y-76537081D01*
X105426309Y-76537082D01*
X105659698Y-76440409D01*
X106147998Y-75952109D01*
X106147998Y-75727603D01*
X105300000Y-74879605D01*
X104452002Y-75727603D01*
X92348850Y-75727603D01*
X92346958Y-74573691D01*
X103462918Y-74573691D01*
X103462919Y-74826310D01*
X103559592Y-75059699D01*
X104047891Y-75547998D01*
X104272397Y-75547998D01*
X105120395Y-74700000D01*
X104272397Y-73852002D01*
X104047891Y-73852002D01*
X103559591Y-74340302D01*
X103462918Y-74573691D01*
X92346958Y-74573691D01*
X92345113Y-73447891D01*
X104452002Y-73447891D01*
X104452002Y-73672397D01*
X105300000Y-74520395D01*
X105314143Y-74506253D01*
X105493748Y-74685858D01*
X105479605Y-74700000D01*
X106327603Y-75547998D01*
X106552109Y-75547998D01*
X107040409Y-75059698D01*
X107137082Y-74826309D01*
X107137081Y-74573690D01*
X107060559Y-74388949D01*
X107242307Y-74388949D01*
X107675469Y-74302788D01*
X108166676Y-73974574D01*
X108494890Y-73483367D01*
X108610143Y-72903949D01*
X108540132Y-72551979D01*
X108745846Y-72592898D01*
X109038358Y-72592898D01*
X109471520Y-72506737D01*
X109962727Y-72178523D01*
X110111792Y-71955431D01*
X112865000Y-71955431D01*
X112865000Y-72844569D01*
X113205259Y-73666026D01*
X113833974Y-74294741D01*
X114655431Y-74635000D01*
X115544569Y-74635000D01*
X116366026Y-74294741D01*
X116994741Y-73666026D01*
X117063511Y-73500000D01*
X123025112Y-73500000D01*
X123040001Y-73574852D01*
X123040000Y-84387234D01*
X123025112Y-84462081D01*
X123040000Y-84536928D01*
X123040000Y-84536932D01*
X123084096Y-84758617D01*
X123252071Y-85010010D01*
X123315530Y-85052412D01*
X127267590Y-89004473D01*
X127309990Y-89067929D01*
X127561382Y-89235904D01*
X127781631Y-89279714D01*
X127989375Y-89590625D01*
X128287761Y-89790000D01*
X127989375Y-89989375D01*
X127661161Y-90480582D01*
X127545908Y-91060000D01*
X127661161Y-91639418D01*
X127989375Y-92130625D01*
X128308478Y-92343843D01*
X128178642Y-92404817D01*
X127788355Y-92833076D01*
X127618524Y-93243110D01*
X127739845Y-93473000D01*
X128933000Y-93473000D01*
X128933000Y-93453000D01*
X129187000Y-93453000D01*
X129187000Y-93473000D01*
X131473000Y-93473000D01*
X131473000Y-93453000D01*
X131727000Y-93453000D01*
X131727000Y-93473000D01*
X132920155Y-93473000D01*
X133041476Y-93243110D01*
X132871645Y-92833076D01*
X132481358Y-92404817D01*
X132351522Y-92343843D01*
X132670625Y-92130625D01*
X132998839Y-91639418D01*
X133114092Y-91060000D01*
X132998839Y-90480582D01*
X132670625Y-89989375D01*
X132351522Y-89776157D01*
X132481358Y-89715183D01*
X132871645Y-89286924D01*
X133041476Y-88876890D01*
X132920155Y-88647000D01*
X131727000Y-88647000D01*
X131727000Y-88667000D01*
X131473000Y-88667000D01*
X131473000Y-88647000D01*
X131453000Y-88647000D01*
X131453000Y-88393000D01*
X131473000Y-88393000D01*
X131473000Y-88373000D01*
X131727000Y-88373000D01*
X131727000Y-88393000D01*
X132920155Y-88393000D01*
X133041476Y-88163110D01*
X132871645Y-87753076D01*
X132481358Y-87324817D01*
X132351522Y-87263843D01*
X132670625Y-87050625D01*
X132998839Y-86559418D01*
X133114092Y-85980000D01*
X133058819Y-85702119D01*
X139203000Y-85702119D01*
X139203000Y-86257881D01*
X139415680Y-86771337D01*
X139808663Y-87164320D01*
X140015513Y-87250000D01*
X139808663Y-87335680D01*
X139415680Y-87728663D01*
X139203000Y-88242119D01*
X139203000Y-88797881D01*
X139415680Y-89311337D01*
X139808663Y-89704320D01*
X140015513Y-89790000D01*
X139808663Y-89875680D01*
X139415680Y-90268663D01*
X139203000Y-90782119D01*
X139203000Y-91337881D01*
X139415680Y-91851337D01*
X139808663Y-92244320D01*
X140015513Y-92330000D01*
X139808663Y-92415680D01*
X139415680Y-92808663D01*
X139203000Y-93322119D01*
X139203000Y-93877881D01*
X139415680Y-94391337D01*
X139808663Y-94784320D01*
X140015513Y-94870000D01*
X139808663Y-94955680D01*
X139415680Y-95348663D01*
X139203000Y-95862119D01*
X139203000Y-96417881D01*
X139415680Y-96931337D01*
X139808663Y-97324320D01*
X140015513Y-97410000D01*
X139808663Y-97495680D01*
X139415680Y-97888663D01*
X139203000Y-98402119D01*
X139203000Y-98957881D01*
X139415680Y-99471337D01*
X139808663Y-99864320D01*
X140015513Y-99950000D01*
X139808663Y-100035680D01*
X139415680Y-100428663D01*
X139203000Y-100942119D01*
X139203000Y-101497881D01*
X139415680Y-102011337D01*
X139808663Y-102404320D01*
X140015513Y-102490000D01*
X139808663Y-102575680D01*
X139415680Y-102968663D01*
X139203000Y-103482119D01*
X139203000Y-104037881D01*
X139415680Y-104551337D01*
X139808663Y-104944320D01*
X140322119Y-105157000D01*
X140877881Y-105157000D01*
X141391337Y-104944320D01*
X141784320Y-104551337D01*
X141997000Y-104037881D01*
X141997000Y-103482119D01*
X141784320Y-102968663D01*
X141391337Y-102575680D01*
X141184487Y-102490000D01*
X141391337Y-102404320D01*
X141620335Y-102175322D01*
X149965000Y-102175322D01*
X149965000Y-103024678D01*
X150290034Y-103809380D01*
X150890620Y-104409966D01*
X151675322Y-104735000D01*
X152524678Y-104735000D01*
X153309380Y-104409966D01*
X153909966Y-103809380D01*
X154235000Y-103024678D01*
X154235000Y-102175322D01*
X153909966Y-101390620D01*
X153309380Y-100790034D01*
X152524678Y-100465000D01*
X151675322Y-100465000D01*
X150890620Y-100790034D01*
X150290034Y-101390620D01*
X149965000Y-102175322D01*
X141620335Y-102175322D01*
X141784320Y-102011337D01*
X141997000Y-101497881D01*
X141997000Y-100942119D01*
X141784320Y-100428663D01*
X141391337Y-100035680D01*
X141184487Y-99950000D01*
X141391337Y-99864320D01*
X141784320Y-99471337D01*
X141997000Y-98957881D01*
X141997000Y-98402119D01*
X141784320Y-97888663D01*
X141391337Y-97495680D01*
X141184487Y-97410000D01*
X141391337Y-97324320D01*
X141784320Y-96931337D01*
X141797300Y-96900000D01*
X154085153Y-96900000D01*
X154160000Y-96914888D01*
X154234847Y-96900000D01*
X154234852Y-96900000D01*
X154456537Y-96855904D01*
X154707929Y-96687929D01*
X154750331Y-96624470D01*
X156939802Y-94435000D01*
X157105874Y-94435000D01*
X157486280Y-94277431D01*
X157777431Y-93986280D01*
X157935000Y-93605874D01*
X157935000Y-93194126D01*
X157777431Y-92813720D01*
X157486280Y-92522569D01*
X157105874Y-92365000D01*
X156694126Y-92365000D01*
X156313720Y-92522569D01*
X156022569Y-92813720D01*
X155865000Y-93194126D01*
X155865000Y-93360198D01*
X153845199Y-95380000D01*
X141797300Y-95380000D01*
X141784320Y-95348663D01*
X141391337Y-94955680D01*
X141184487Y-94870000D01*
X141391337Y-94784320D01*
X141784320Y-94391337D01*
X141997000Y-93877881D01*
X141997000Y-93322119D01*
X141784320Y-92808663D01*
X141391337Y-92415680D01*
X141184487Y-92330000D01*
X141391337Y-92244320D01*
X141784320Y-91851337D01*
X141997000Y-91337881D01*
X141997000Y-90782119D01*
X141784320Y-90268663D01*
X141391337Y-89875680D01*
X141184487Y-89790000D01*
X141391337Y-89704320D01*
X141784320Y-89311337D01*
X141997000Y-88797881D01*
X141997000Y-88242119D01*
X141784320Y-87728663D01*
X141391337Y-87335680D01*
X141184487Y-87250000D01*
X141391337Y-87164320D01*
X141784320Y-86771337D01*
X141997000Y-86257881D01*
X141997000Y-85702119D01*
X141784320Y-85188663D01*
X141391337Y-84795680D01*
X141200353Y-84716572D01*
X141331143Y-84662397D01*
X141400608Y-84420213D01*
X140600000Y-83619605D01*
X139799392Y-84420213D01*
X139868857Y-84662397D01*
X140009393Y-84712535D01*
X139808663Y-84795680D01*
X139415680Y-85188663D01*
X139203000Y-85702119D01*
X133058819Y-85702119D01*
X132998839Y-85400582D01*
X132670625Y-84909375D01*
X132372239Y-84710000D01*
X132670625Y-84510625D01*
X132998839Y-84019418D01*
X133114092Y-83440000D01*
X133072779Y-83232302D01*
X139190856Y-83232302D01*
X139218638Y-83787368D01*
X139377603Y-84171143D01*
X139619787Y-84240608D01*
X140420395Y-83440000D01*
X140779605Y-83440000D01*
X141580213Y-84240608D01*
X141822397Y-84171143D01*
X142009144Y-83647698D01*
X141981362Y-83092632D01*
X141822397Y-82708857D01*
X141580213Y-82639392D01*
X140779605Y-83440000D01*
X140420395Y-83440000D01*
X139619787Y-82639392D01*
X139377603Y-82708857D01*
X139190856Y-83232302D01*
X133072779Y-83232302D01*
X132998839Y-82860582D01*
X132670625Y-82369375D01*
X132648967Y-82354904D01*
X132809698Y-82288327D01*
X132988327Y-82109699D01*
X133085000Y-81876310D01*
X133085000Y-81185750D01*
X132926250Y-81027000D01*
X131727000Y-81027000D01*
X131727000Y-81047000D01*
X131473000Y-81047000D01*
X131473000Y-81027000D01*
X131453000Y-81027000D01*
X131453000Y-80773000D01*
X131473000Y-80773000D01*
X131473000Y-79573750D01*
X131727000Y-79573750D01*
X131727000Y-80773000D01*
X132926250Y-80773000D01*
X133077131Y-80622119D01*
X139203000Y-80622119D01*
X139203000Y-81177881D01*
X139415680Y-81691337D01*
X139808663Y-82084320D01*
X139999647Y-82163428D01*
X139868857Y-82217603D01*
X139799392Y-82459787D01*
X140600000Y-83260395D01*
X141400608Y-82459787D01*
X141331143Y-82217603D01*
X141190607Y-82167465D01*
X141391337Y-82084320D01*
X141784320Y-81691337D01*
X141832374Y-81575322D01*
X149965000Y-81575322D01*
X149965000Y-82424678D01*
X150290034Y-83209380D01*
X150890620Y-83809966D01*
X151675322Y-84135000D01*
X152524678Y-84135000D01*
X153309380Y-83809966D01*
X153679346Y-83440000D01*
X160645908Y-83440000D01*
X160761161Y-84019418D01*
X161089375Y-84510625D01*
X161387761Y-84710000D01*
X161089375Y-84909375D01*
X160761161Y-85400582D01*
X160645908Y-85980000D01*
X160761161Y-86559418D01*
X161089375Y-87050625D01*
X161387761Y-87250000D01*
X161089375Y-87449375D01*
X160761161Y-87940582D01*
X160645908Y-88520000D01*
X160761161Y-89099418D01*
X161089375Y-89590625D01*
X161387761Y-89790000D01*
X161089375Y-89989375D01*
X160761161Y-90480582D01*
X160645908Y-91060000D01*
X160761161Y-91639418D01*
X161089375Y-92130625D01*
X161387761Y-92330000D01*
X161089375Y-92529375D01*
X160761161Y-93020582D01*
X160645908Y-93600000D01*
X160761161Y-94179418D01*
X161089375Y-94670625D01*
X161387761Y-94870000D01*
X161089375Y-95069375D01*
X160761161Y-95560582D01*
X160645908Y-96140000D01*
X160761161Y-96719418D01*
X161089375Y-97210625D01*
X161408478Y-97423843D01*
X161278642Y-97484817D01*
X160888355Y-97913076D01*
X160718524Y-98323110D01*
X160839845Y-98553000D01*
X162033000Y-98553000D01*
X162033000Y-98533000D01*
X162287000Y-98533000D01*
X162287000Y-98553000D01*
X162307000Y-98553000D01*
X162307000Y-98807000D01*
X162287000Y-98807000D01*
X162287000Y-98827000D01*
X162033000Y-98827000D01*
X162033000Y-98807000D01*
X160839845Y-98807000D01*
X160718524Y-99036890D01*
X160888355Y-99446924D01*
X161278642Y-99875183D01*
X161408478Y-99936157D01*
X161089375Y-100149375D01*
X160761161Y-100640582D01*
X160645908Y-101220000D01*
X160761161Y-101799418D01*
X161089375Y-102290625D01*
X161387761Y-102490000D01*
X161089375Y-102689375D01*
X160761161Y-103180582D01*
X160645908Y-103760000D01*
X160761161Y-104339418D01*
X161089375Y-104830625D01*
X161580582Y-105158839D01*
X162013744Y-105245000D01*
X162306256Y-105245000D01*
X162739418Y-105158839D01*
X163230625Y-104830625D01*
X163430000Y-104532239D01*
X163629375Y-104830625D01*
X164120582Y-105158839D01*
X164553744Y-105245000D01*
X164846256Y-105245000D01*
X165279418Y-105158839D01*
X165770625Y-104830625D01*
X166098839Y-104339418D01*
X166214092Y-103760000D01*
X166098839Y-103180582D01*
X165770625Y-102689375D01*
X165472239Y-102490000D01*
X165770625Y-102290625D01*
X166098839Y-101799418D01*
X166214092Y-101220000D01*
X166098839Y-100640582D01*
X165770625Y-100149375D01*
X165472239Y-99950000D01*
X165770625Y-99750625D01*
X166098839Y-99259418D01*
X166214092Y-98680000D01*
X166098839Y-98100582D01*
X165770625Y-97609375D01*
X165472239Y-97410000D01*
X165770625Y-97210625D01*
X166098839Y-96719418D01*
X166214092Y-96140000D01*
X166098839Y-95560582D01*
X165770625Y-95069375D01*
X165472239Y-94870000D01*
X165770625Y-94670625D01*
X166098839Y-94179418D01*
X166214092Y-93600000D01*
X166098839Y-93020582D01*
X165770625Y-92529375D01*
X165472239Y-92330000D01*
X165770625Y-92130625D01*
X166098839Y-91639418D01*
X166214092Y-91060000D01*
X166098839Y-90480582D01*
X165770625Y-89989375D01*
X165472239Y-89790000D01*
X165770625Y-89590625D01*
X166098839Y-89099418D01*
X166214092Y-88520000D01*
X166098839Y-87940582D01*
X165770625Y-87449375D01*
X165472239Y-87250000D01*
X165770625Y-87050625D01*
X166098839Y-86559418D01*
X166214092Y-85980000D01*
X166098839Y-85400582D01*
X165770625Y-84909375D01*
X165472239Y-84710000D01*
X165770625Y-84510625D01*
X166098839Y-84019418D01*
X166214092Y-83440000D01*
X178345908Y-83440000D01*
X178461161Y-84019418D01*
X178789375Y-84510625D01*
X179087761Y-84710000D01*
X178789375Y-84909375D01*
X178461161Y-85400582D01*
X178345908Y-85980000D01*
X178461161Y-86559418D01*
X178789375Y-87050625D01*
X179087761Y-87250000D01*
X178789375Y-87449375D01*
X178461161Y-87940582D01*
X178345908Y-88520000D01*
X178461161Y-89099418D01*
X178789375Y-89590625D01*
X179087761Y-89790000D01*
X178789375Y-89989375D01*
X178461161Y-90480582D01*
X178345908Y-91060000D01*
X178461161Y-91639418D01*
X178789375Y-92130625D01*
X179087761Y-92330000D01*
X178789375Y-92529375D01*
X178461161Y-93020582D01*
X178345908Y-93600000D01*
X178461161Y-94179418D01*
X178789375Y-94670625D01*
X179087761Y-94870000D01*
X178789375Y-95069375D01*
X178461161Y-95560582D01*
X178345908Y-96140000D01*
X178461161Y-96719418D01*
X178789375Y-97210625D01*
X179108478Y-97423843D01*
X178978642Y-97484817D01*
X178588355Y-97913076D01*
X178418524Y-98323110D01*
X178539845Y-98553000D01*
X179733000Y-98553000D01*
X179733000Y-98533000D01*
X179987000Y-98533000D01*
X179987000Y-98553000D01*
X180007000Y-98553000D01*
X180007000Y-98807000D01*
X179987000Y-98807000D01*
X179987000Y-98827000D01*
X179733000Y-98827000D01*
X179733000Y-98807000D01*
X178539845Y-98807000D01*
X178418524Y-99036890D01*
X178588355Y-99446924D01*
X178978642Y-99875183D01*
X179108478Y-99936157D01*
X178789375Y-100149375D01*
X178461161Y-100640582D01*
X178345908Y-101220000D01*
X178461161Y-101799418D01*
X178789375Y-102290625D01*
X179087761Y-102490000D01*
X178789375Y-102689375D01*
X178461161Y-103180582D01*
X178345908Y-103760000D01*
X178461161Y-104339418D01*
X178789375Y-104830625D01*
X179280582Y-105158839D01*
X179713744Y-105245000D01*
X180006256Y-105245000D01*
X180439418Y-105158839D01*
X180930625Y-104830625D01*
X181130000Y-104532239D01*
X181329375Y-104830625D01*
X181820582Y-105158839D01*
X182253744Y-105245000D01*
X182546256Y-105245000D01*
X182979418Y-105158839D01*
X183470625Y-104830625D01*
X183798839Y-104339418D01*
X183914092Y-103760000D01*
X183798839Y-103180582D01*
X183470625Y-102689375D01*
X183172239Y-102490000D01*
X183470625Y-102290625D01*
X183798839Y-101799418D01*
X183914092Y-101220000D01*
X183798839Y-100640582D01*
X183470625Y-100149375D01*
X183172239Y-99950000D01*
X183470625Y-99750625D01*
X183798839Y-99259418D01*
X183914092Y-98680000D01*
X183798839Y-98100582D01*
X183470625Y-97609375D01*
X183172239Y-97410000D01*
X183470625Y-97210625D01*
X183798839Y-96719418D01*
X183914092Y-96140000D01*
X183798839Y-95560582D01*
X183470625Y-95069375D01*
X183172239Y-94870000D01*
X183470625Y-94670625D01*
X183798839Y-94179418D01*
X183914092Y-93600000D01*
X183798839Y-93020582D01*
X183470625Y-92529375D01*
X183172239Y-92330000D01*
X183470625Y-92130625D01*
X183798839Y-91639418D01*
X183914092Y-91060000D01*
X183798839Y-90480582D01*
X183470625Y-89989375D01*
X183172239Y-89790000D01*
X183470625Y-89590625D01*
X183798839Y-89099418D01*
X183914092Y-88520000D01*
X183798839Y-87940582D01*
X183470625Y-87449375D01*
X183172239Y-87250000D01*
X183470625Y-87050625D01*
X183798839Y-86559418D01*
X183914092Y-85980000D01*
X183798839Y-85400582D01*
X183470625Y-84909375D01*
X183172239Y-84710000D01*
X183470625Y-84510625D01*
X183798839Y-84019418D01*
X183914092Y-83440000D01*
X183798839Y-82860582D01*
X183470625Y-82369375D01*
X183452381Y-82357184D01*
X183497765Y-82348157D01*
X183707809Y-82207809D01*
X183848157Y-81997765D01*
X183897440Y-81750000D01*
X183897440Y-80050000D01*
X183848157Y-79802235D01*
X183707809Y-79592191D01*
X183497765Y-79451843D01*
X183250000Y-79402560D01*
X181550000Y-79402560D01*
X181302235Y-79451843D01*
X181092191Y-79592191D01*
X180951843Y-79802235D01*
X180930039Y-79911855D01*
X180741358Y-79704817D01*
X180216892Y-79458514D01*
X179987000Y-79579181D01*
X179987000Y-80773000D01*
X180007000Y-80773000D01*
X180007000Y-81027000D01*
X179987000Y-81027000D01*
X179987000Y-81047000D01*
X179733000Y-81047000D01*
X179733000Y-81027000D01*
X178539845Y-81027000D01*
X178418524Y-81256890D01*
X178588355Y-81666924D01*
X178978642Y-82095183D01*
X179108478Y-82156157D01*
X178789375Y-82369375D01*
X178461161Y-82860582D01*
X178345908Y-83440000D01*
X166214092Y-83440000D01*
X166098839Y-82860582D01*
X165770625Y-82369375D01*
X165752381Y-82357184D01*
X165797765Y-82348157D01*
X166007809Y-82207809D01*
X166148157Y-81997765D01*
X166197440Y-81750000D01*
X166197440Y-80543110D01*
X178418524Y-80543110D01*
X178539845Y-80773000D01*
X179733000Y-80773000D01*
X179733000Y-79579181D01*
X179503108Y-79458514D01*
X178978642Y-79704817D01*
X178588355Y-80133076D01*
X178418524Y-80543110D01*
X166197440Y-80543110D01*
X166197440Y-80050000D01*
X166148157Y-79802235D01*
X166007809Y-79592191D01*
X165797765Y-79451843D01*
X165550000Y-79402560D01*
X163850000Y-79402560D01*
X163602235Y-79451843D01*
X163392191Y-79592191D01*
X163251843Y-79802235D01*
X163230039Y-79911855D01*
X163041358Y-79704817D01*
X162516892Y-79458514D01*
X162287000Y-79579181D01*
X162287000Y-80773000D01*
X162307000Y-80773000D01*
X162307000Y-81027000D01*
X162287000Y-81027000D01*
X162287000Y-81047000D01*
X162033000Y-81047000D01*
X162033000Y-81027000D01*
X160839845Y-81027000D01*
X160718524Y-81256890D01*
X160888355Y-81666924D01*
X161278642Y-82095183D01*
X161408478Y-82156157D01*
X161089375Y-82369375D01*
X160761161Y-82860582D01*
X160645908Y-83440000D01*
X153679346Y-83440000D01*
X153909966Y-83209380D01*
X154235000Y-82424678D01*
X154235000Y-81575322D01*
X153909966Y-80790620D01*
X153662456Y-80543110D01*
X160718524Y-80543110D01*
X160839845Y-80773000D01*
X162033000Y-80773000D01*
X162033000Y-79579181D01*
X161803108Y-79458514D01*
X161278642Y-79704817D01*
X160888355Y-80133076D01*
X160718524Y-80543110D01*
X153662456Y-80543110D01*
X153309380Y-80190034D01*
X152524678Y-79865000D01*
X151675322Y-79865000D01*
X150890620Y-80190034D01*
X150290034Y-80790620D01*
X149965000Y-81575322D01*
X141832374Y-81575322D01*
X141997000Y-81177881D01*
X141997000Y-80622119D01*
X141784320Y-80108663D01*
X141391337Y-79715680D01*
X140877881Y-79503000D01*
X140322119Y-79503000D01*
X139808663Y-79715680D01*
X139415680Y-80108663D01*
X139203000Y-80622119D01*
X133077131Y-80622119D01*
X133085000Y-80614250D01*
X133085000Y-79923690D01*
X132988327Y-79690301D01*
X132809698Y-79511673D01*
X132576309Y-79415000D01*
X131885750Y-79415000D01*
X131727000Y-79573750D01*
X131473000Y-79573750D01*
X131314250Y-79415000D01*
X130623691Y-79415000D01*
X130390302Y-79511673D01*
X130211673Y-79690301D01*
X130145096Y-79851032D01*
X130130625Y-79829375D01*
X129820000Y-79621822D01*
X129820000Y-77254801D01*
X131184473Y-75890329D01*
X131247929Y-75847929D01*
X131415904Y-75596537D01*
X131460000Y-75374852D01*
X131460000Y-75374848D01*
X131474888Y-75300001D01*
X131460000Y-75225154D01*
X131460000Y-71955431D01*
X175565000Y-71955431D01*
X175565000Y-72844569D01*
X175905259Y-73666026D01*
X176533974Y-74294741D01*
X177355431Y-74635000D01*
X178244569Y-74635000D01*
X179066026Y-74294741D01*
X179694741Y-73666026D01*
X180035000Y-72844569D01*
X180035000Y-71955431D01*
X179694741Y-71133974D01*
X179066026Y-70505259D01*
X178244569Y-70165000D01*
X177355431Y-70165000D01*
X176533974Y-70505259D01*
X175905259Y-71133974D01*
X175565000Y-71955431D01*
X131460000Y-71955431D01*
X131460000Y-66003711D01*
X131577431Y-65886280D01*
X131735000Y-65505874D01*
X131735000Y-65094126D01*
X131577431Y-64713720D01*
X131286280Y-64422569D01*
X130905874Y-64265000D01*
X130494126Y-64265000D01*
X130113720Y-64422569D01*
X129822569Y-64713720D01*
X129665000Y-65094126D01*
X129665000Y-65505874D01*
X129822569Y-65886280D01*
X129940000Y-66003711D01*
X129940001Y-74985197D01*
X128575530Y-76349669D01*
X128512071Y-76392071D01*
X128344096Y-76643464D01*
X128300000Y-76865149D01*
X128300000Y-76865153D01*
X128285112Y-76940000D01*
X128300000Y-77014847D01*
X128300001Y-79621822D01*
X127989375Y-79829375D01*
X127661161Y-80320582D01*
X127545908Y-80900000D01*
X127661161Y-81479418D01*
X127989375Y-81970625D01*
X128287761Y-82170000D01*
X127989375Y-82369375D01*
X127661161Y-82860582D01*
X127545908Y-83440000D01*
X127661161Y-84019418D01*
X127989375Y-84510625D01*
X128287761Y-84710000D01*
X127989375Y-84909375D01*
X127661161Y-85400582D01*
X127545908Y-85980000D01*
X127661161Y-86559418D01*
X127989375Y-87050625D01*
X128287761Y-87250000D01*
X127989375Y-87449375D01*
X127938394Y-87525673D01*
X124560000Y-84147280D01*
X124560000Y-73814801D01*
X124639801Y-73735000D01*
X124805874Y-73735000D01*
X125186280Y-73577431D01*
X125477431Y-73286280D01*
X125635000Y-72905874D01*
X125635000Y-72494126D01*
X125477431Y-72113720D01*
X125186280Y-71822569D01*
X124805874Y-71665000D01*
X124394126Y-71665000D01*
X124013720Y-71822569D01*
X123722569Y-72113720D01*
X123565000Y-72494126D01*
X123565000Y-72660199D01*
X123315528Y-72909671D01*
X123252072Y-72952071D01*
X123209672Y-73015527D01*
X123209671Y-73015528D01*
X123084097Y-73203463D01*
X123025112Y-73500000D01*
X117063511Y-73500000D01*
X117335000Y-72844569D01*
X117335000Y-71955431D01*
X116994741Y-71133974D01*
X116366026Y-70505259D01*
X115544569Y-70165000D01*
X114655431Y-70165000D01*
X113833974Y-70505259D01*
X113205259Y-71133974D01*
X112865000Y-71955431D01*
X110111792Y-71955431D01*
X110290941Y-71687316D01*
X110406194Y-71107898D01*
X110290941Y-70528480D01*
X109962727Y-70037273D01*
X109471520Y-69709059D01*
X109038358Y-69622898D01*
X108745846Y-69622898D01*
X108312684Y-69709059D01*
X107821477Y-70037273D01*
X107493263Y-70528480D01*
X107378010Y-71107898D01*
X107448021Y-71459868D01*
X107242307Y-71418949D01*
X106949795Y-71418949D01*
X106516633Y-71505110D01*
X106025426Y-71833324D01*
X105697212Y-72324531D01*
X105581959Y-72903949D01*
X105587041Y-72929496D01*
X105426310Y-72862919D01*
X105173691Y-72862918D01*
X104940302Y-72959591D01*
X104452002Y-73447891D01*
X92345113Y-73447891D01*
X92327087Y-62452979D01*
X94248255Y-60555431D01*
X96265000Y-60555431D01*
X96265000Y-61444569D01*
X96605259Y-62266026D01*
X97233974Y-62894741D01*
X98055431Y-63235000D01*
X98944569Y-63235000D01*
X99766026Y-62894741D01*
X100394741Y-62266026D01*
X100735000Y-61444569D01*
X100735000Y-60555431D01*
X100394741Y-59733974D01*
X99766026Y-59105259D01*
X98944569Y-58765000D01*
X98055431Y-58765000D01*
X97233974Y-59105259D01*
X96605259Y-59733974D01*
X96265000Y-60555431D01*
X94248255Y-60555431D01*
X99308543Y-55557359D01*
X103402168Y-55557359D01*
X103878316Y-57951116D01*
X104891996Y-59468196D01*
X114231803Y-68808004D01*
X115748883Y-69821684D01*
X118142641Y-70297832D01*
X120536399Y-69821684D01*
X122565729Y-68465729D01*
X123921684Y-66436399D01*
X124397832Y-64042641D01*
X123921684Y-61648883D01*
X123257881Y-60655431D01*
X124165000Y-60655431D01*
X124165000Y-61544569D01*
X124505259Y-62366026D01*
X125133974Y-62994741D01*
X125955431Y-63335000D01*
X126844569Y-63335000D01*
X127666026Y-62994741D01*
X128260767Y-62400000D01*
X141852560Y-62400000D01*
X141852560Y-64000000D01*
X141901843Y-64247765D01*
X142042191Y-64457809D01*
X142252235Y-64598157D01*
X142500000Y-64647440D01*
X144100000Y-64647440D01*
X144347765Y-64598157D01*
X144557809Y-64457809D01*
X144698157Y-64247765D01*
X144706117Y-64207745D01*
X144971861Y-64207745D01*
X145045995Y-64453864D01*
X145583223Y-64646965D01*
X146153454Y-64619778D01*
X146554005Y-64453864D01*
X146628139Y-64207745D01*
X146463036Y-64042641D01*
X168402168Y-64042641D01*
X168878316Y-66436398D01*
X170234272Y-68465728D01*
X172263602Y-69821684D01*
X174657359Y-70297832D01*
X177051116Y-69821684D01*
X178568196Y-68808004D01*
X186420769Y-60955431D01*
X191765000Y-60955431D01*
X191765000Y-61844569D01*
X192105259Y-62666026D01*
X192733974Y-63294741D01*
X193555431Y-63635000D01*
X194444569Y-63635000D01*
X195266026Y-63294741D01*
X195894741Y-62666026D01*
X196235000Y-61844569D01*
X196235000Y-60955431D01*
X195894741Y-60133974D01*
X195266026Y-59505259D01*
X194444569Y-59165000D01*
X193555431Y-59165000D01*
X192733974Y-59505259D01*
X192105259Y-60133974D01*
X191765000Y-60955431D01*
X186420769Y-60955431D01*
X187908004Y-59468197D01*
X188921684Y-57951117D01*
X189397832Y-55557359D01*
X188921684Y-53163601D01*
X187565729Y-51134271D01*
X185536399Y-49778316D01*
X183142641Y-49302168D01*
X180748883Y-49778316D01*
X179231803Y-50791996D01*
X169891996Y-60131804D01*
X168878316Y-61648884D01*
X168402168Y-64042641D01*
X146463036Y-64042641D01*
X145800000Y-63379605D01*
X144971861Y-64207745D01*
X144706117Y-64207745D01*
X144744693Y-64013813D01*
X144792255Y-64028139D01*
X145620395Y-63200000D01*
X145979605Y-63200000D01*
X146807745Y-64028139D01*
X147053864Y-63954005D01*
X147246965Y-63416777D01*
X147219778Y-62846546D01*
X147053864Y-62445995D01*
X146807745Y-62371861D01*
X145979605Y-63200000D01*
X145620395Y-63200000D01*
X144792255Y-62371861D01*
X144744693Y-62386187D01*
X144706118Y-62192255D01*
X144971861Y-62192255D01*
X145800000Y-63020395D01*
X146628139Y-62192255D01*
X146554005Y-61946136D01*
X146016777Y-61753035D01*
X145446546Y-61780222D01*
X145045995Y-61946136D01*
X144971861Y-62192255D01*
X144706118Y-62192255D01*
X144698157Y-62152235D01*
X144557809Y-61942191D01*
X144347765Y-61801843D01*
X144100000Y-61752560D01*
X142500000Y-61752560D01*
X142252235Y-61801843D01*
X142042191Y-61942191D01*
X141901843Y-62152235D01*
X141852560Y-62400000D01*
X128260767Y-62400000D01*
X128294741Y-62366026D01*
X128635000Y-61544569D01*
X128635000Y-61000000D01*
X152152560Y-61000000D01*
X152152560Y-63200000D01*
X152201843Y-63447765D01*
X152342191Y-63657809D01*
X152552235Y-63798157D01*
X152800000Y-63847440D01*
X155000000Y-63847440D01*
X155247765Y-63798157D01*
X155457809Y-63657809D01*
X155598157Y-63447765D01*
X155647440Y-63200000D01*
X155647440Y-61000000D01*
X155598157Y-60752235D01*
X155457809Y-60542191D01*
X155327965Y-60455431D01*
X164065000Y-60455431D01*
X164065000Y-61344569D01*
X164405259Y-62166026D01*
X165033974Y-62794741D01*
X165855431Y-63135000D01*
X166744569Y-63135000D01*
X167566026Y-62794741D01*
X168194741Y-62166026D01*
X168535000Y-61344569D01*
X168535000Y-60455431D01*
X168194741Y-59633974D01*
X167566026Y-59005259D01*
X166744569Y-58665000D01*
X165855431Y-58665000D01*
X165033974Y-59005259D01*
X164405259Y-59633974D01*
X164065000Y-60455431D01*
X155327965Y-60455431D01*
X155247765Y-60401843D01*
X155000000Y-60352560D01*
X152800000Y-60352560D01*
X152552235Y-60401843D01*
X152342191Y-60542191D01*
X152201843Y-60752235D01*
X152152560Y-61000000D01*
X128635000Y-61000000D01*
X128635000Y-60655431D01*
X128294741Y-59833974D01*
X127666026Y-59205259D01*
X126844569Y-58865000D01*
X125955431Y-58865000D01*
X125133974Y-59205259D01*
X124505259Y-59833974D01*
X124165000Y-60655431D01*
X123257881Y-60655431D01*
X122908004Y-60131803D01*
X115112324Y-52336123D01*
X152210817Y-52336123D01*
X152490988Y-52952392D01*
X152985668Y-53414534D01*
X153503878Y-53629175D01*
X153773000Y-53511125D01*
X153773000Y-52067000D01*
X154027000Y-52067000D01*
X154027000Y-53511125D01*
X154296122Y-53629175D01*
X154814332Y-53414534D01*
X155309012Y-52952392D01*
X155411206Y-52727603D01*
X162852002Y-52727603D01*
X162852002Y-52952109D01*
X163340302Y-53440409D01*
X163573691Y-53537082D01*
X163826310Y-53537081D01*
X163987041Y-53470504D01*
X163981959Y-53496051D01*
X164097212Y-54075469D01*
X164425426Y-54566676D01*
X164916633Y-54894890D01*
X165349795Y-54981051D01*
X165642307Y-54981051D01*
X165848021Y-54940132D01*
X165778010Y-55292102D01*
X165893263Y-55871520D01*
X166221477Y-56362727D01*
X166712684Y-56690941D01*
X167145846Y-56777102D01*
X167438358Y-56777102D01*
X167871520Y-56690941D01*
X168362727Y-56362727D01*
X168690941Y-55871520D01*
X168806194Y-55292102D01*
X168690941Y-54712684D01*
X168362727Y-54221477D01*
X167871520Y-53893263D01*
X167438358Y-53807102D01*
X167145846Y-53807102D01*
X166940132Y-53848021D01*
X167010143Y-53496051D01*
X166894890Y-52916633D01*
X166566676Y-52425426D01*
X166075469Y-52097212D01*
X165642307Y-52011051D01*
X165460559Y-52011051D01*
X165537081Y-51826310D01*
X165537082Y-51573691D01*
X165440409Y-51340302D01*
X164952109Y-50852002D01*
X164727603Y-50852002D01*
X163879605Y-51700000D01*
X163893748Y-51714143D01*
X163714143Y-51893748D01*
X163700000Y-51879605D01*
X162852002Y-52727603D01*
X155411206Y-52727603D01*
X155589183Y-52336123D01*
X155471604Y-52067000D01*
X154027000Y-52067000D01*
X153773000Y-52067000D01*
X152328396Y-52067000D01*
X152210817Y-52336123D01*
X115112324Y-52336123D01*
X114602510Y-51826309D01*
X161862918Y-51826309D01*
X161959591Y-52059698D01*
X162447891Y-52547998D01*
X162672397Y-52547998D01*
X163520395Y-51700000D01*
X162672397Y-50852002D01*
X162447891Y-50852002D01*
X161959592Y-51340301D01*
X161862919Y-51573690D01*
X161862918Y-51826309D01*
X114602510Y-51826309D01*
X114320078Y-51543877D01*
X152210817Y-51543877D01*
X152328396Y-51813000D01*
X153773000Y-51813000D01*
X153773000Y-50368875D01*
X154027000Y-50368875D01*
X154027000Y-51813000D01*
X155471604Y-51813000D01*
X155589183Y-51543877D01*
X155309012Y-50927608D01*
X154814332Y-50465466D01*
X154771901Y-50447891D01*
X162852002Y-50447891D01*
X162852002Y-50672397D01*
X163700000Y-51520395D01*
X164547998Y-50672397D01*
X164547998Y-50447891D01*
X164059698Y-49959591D01*
X163826309Y-49862918D01*
X163573690Y-49862919D01*
X163340301Y-49959592D01*
X162852002Y-50447891D01*
X154771901Y-50447891D01*
X154296122Y-50250825D01*
X154027000Y-50368875D01*
X153773000Y-50368875D01*
X153503878Y-50250825D01*
X152985668Y-50465466D01*
X152490988Y-50927608D01*
X152210817Y-51543877D01*
X114320078Y-51543877D01*
X113568196Y-50791996D01*
X112051116Y-49778316D01*
X109657359Y-49302168D01*
X107263602Y-49778316D01*
X105234272Y-51134272D01*
X103878316Y-53163602D01*
X103402168Y-55557359D01*
X99308543Y-55557359D01*
X105759466Y-49185750D01*
X142115000Y-49185750D01*
X142115000Y-49876309D01*
X142211673Y-50109698D01*
X142390301Y-50288327D01*
X142623690Y-50385000D01*
X143314250Y-50385000D01*
X143473000Y-50226250D01*
X143473000Y-49027000D01*
X142273750Y-49027000D01*
X142115000Y-49185750D01*
X105759466Y-49185750D01*
X107037235Y-47923691D01*
X142115000Y-47923691D01*
X142115000Y-48614250D01*
X142273750Y-48773000D01*
X143473000Y-48773000D01*
X143473000Y-47573750D01*
X143727000Y-47573750D01*
X143727000Y-48773000D01*
X143747000Y-48773000D01*
X143747000Y-49027000D01*
X143727000Y-49027000D01*
X143727000Y-50226250D01*
X143885750Y-50385000D01*
X144576310Y-50385000D01*
X144809699Y-50288327D01*
X144988327Y-50109698D01*
X145054904Y-49948967D01*
X145069375Y-49970625D01*
X145560582Y-50298839D01*
X145993744Y-50385000D01*
X146286256Y-50385000D01*
X146719418Y-50298839D01*
X147210625Y-49970625D01*
X147410000Y-49672239D01*
X147609375Y-49970625D01*
X148100582Y-50298839D01*
X148533744Y-50385000D01*
X148826256Y-50385000D01*
X149259418Y-50298839D01*
X149750625Y-49970625D01*
X150078839Y-49479418D01*
X150194092Y-48900000D01*
X150078839Y-48320582D01*
X149750625Y-47829375D01*
X149259418Y-47501161D01*
X148826256Y-47415000D01*
X148533744Y-47415000D01*
X148100582Y-47501161D01*
X147609375Y-47829375D01*
X147410000Y-48127761D01*
X147210625Y-47829375D01*
X146719418Y-47501161D01*
X146286256Y-47415000D01*
X145993744Y-47415000D01*
X145560582Y-47501161D01*
X145069375Y-47829375D01*
X145054904Y-47851033D01*
X144988327Y-47690302D01*
X144809699Y-47511673D01*
X144576310Y-47415000D01*
X143885750Y-47415000D01*
X143727000Y-47573750D01*
X143473000Y-47573750D01*
X143314250Y-47415000D01*
X142623690Y-47415000D01*
X142390301Y-47511673D01*
X142211673Y-47690302D01*
X142115000Y-47923691D01*
X107037235Y-47923691D01*
X110852404Y-44155431D01*
X112665000Y-44155431D01*
X112665000Y-45044569D01*
X113005259Y-45866026D01*
X113633974Y-46494741D01*
X114455431Y-46835000D01*
X115344569Y-46835000D01*
X116166026Y-46494741D01*
X116794741Y-45866026D01*
X117135000Y-45044569D01*
X117135000Y-44555431D01*
X175365000Y-44555431D01*
X175365000Y-45444569D01*
X175705259Y-46266026D01*
X176333974Y-46894741D01*
X177155431Y-47235000D01*
X178044569Y-47235000D01*
X178866026Y-46894741D01*
X179494741Y-46266026D01*
X179835000Y-45444569D01*
X179835000Y-44555431D01*
X179494741Y-43733974D01*
X178866026Y-43105259D01*
X178044569Y-42765000D01*
X177155431Y-42765000D01*
X176333974Y-43105259D01*
X175705259Y-43733974D01*
X175365000Y-44555431D01*
X117135000Y-44555431D01*
X117135000Y-44155431D01*
X116794741Y-43333974D01*
X116166026Y-42705259D01*
X115344569Y-42365000D01*
X114455431Y-42365000D01*
X113633974Y-42705259D01*
X113005259Y-43333974D01*
X112665000Y-44155431D01*
X110852404Y-44155431D01*
X116554810Y-38523138D01*
X116582595Y-38482108D01*
X116592563Y-38433568D01*
X116591421Y-38427634D01*
X116599139Y-38427647D01*
X116599466Y-38427582D01*
X116599794Y-38427648D01*
X116599794Y-38427648D01*
G37*
X116599794Y-38427648D02*
X177847309Y-38526915D01*
X201072830Y-61752436D01*
X200873170Y-123547224D01*
X178147394Y-146273000D01*
X115352606Y-146273000D01*
X108635037Y-139555431D01*
X113265000Y-139555431D01*
X113265000Y-140444569D01*
X113605259Y-141266026D01*
X114233974Y-141894741D01*
X115055431Y-142235000D01*
X115944569Y-142235000D01*
X116766026Y-141894741D01*
X117394741Y-141266026D01*
X117735000Y-140444569D01*
X117735000Y-139555431D01*
X117610736Y-139255431D01*
X175765000Y-139255431D01*
X175765000Y-140144569D01*
X176105259Y-140966026D01*
X176733974Y-141594741D01*
X177555431Y-141935000D01*
X178444569Y-141935000D01*
X179266026Y-141594741D01*
X179894741Y-140966026D01*
X180235000Y-140144569D01*
X180235000Y-139255431D01*
X179894741Y-138433974D01*
X179266026Y-137805259D01*
X178444569Y-137465000D01*
X177555431Y-137465000D01*
X176733974Y-137805259D01*
X176105259Y-138433974D01*
X175765000Y-139255431D01*
X117610736Y-139255431D01*
X117394741Y-138733974D01*
X116766026Y-138105259D01*
X115944569Y-137765000D01*
X115055431Y-137765000D01*
X114233974Y-138105259D01*
X113605259Y-138733974D01*
X113265000Y-139555431D01*
X108635037Y-139555431D01*
X97922247Y-128842641D01*
X103502168Y-128842641D01*
X103978316Y-131236398D01*
X105334272Y-133265728D01*
X107363602Y-134621684D01*
X109757359Y-135097832D01*
X112151116Y-134621684D01*
X112291918Y-134527603D01*
X128452002Y-134527603D01*
X128452002Y-134752109D01*
X128940302Y-135240409D01*
X129173691Y-135337082D01*
X129426310Y-135337081D01*
X129659699Y-135240408D01*
X130147998Y-134752109D01*
X130147998Y-134527603D01*
X129300000Y-133679605D01*
X128452002Y-134527603D01*
X112291918Y-134527603D01*
X113668196Y-133608004D01*
X117368302Y-129907898D01*
X124193806Y-129907898D01*
X124309059Y-130487316D01*
X124637273Y-130978523D01*
X125128480Y-131306737D01*
X125561642Y-131392898D01*
X125854154Y-131392898D01*
X126059868Y-131351979D01*
X125989857Y-131703949D01*
X126105110Y-132283367D01*
X126433324Y-132774574D01*
X126924531Y-133102788D01*
X127357693Y-133188949D01*
X127539441Y-133188949D01*
X127462919Y-133373690D01*
X127462918Y-133626309D01*
X127559591Y-133859698D01*
X128047891Y-134347998D01*
X128272397Y-134347998D01*
X129120395Y-133500000D01*
X129479605Y-133500000D01*
X130327603Y-134347998D01*
X130552109Y-134347998D01*
X131040408Y-133859699D01*
X131065449Y-133799244D01*
X157017000Y-133799244D01*
X157017000Y-134391755D01*
X157103161Y-134824917D01*
X157431375Y-135316125D01*
X157922582Y-135644339D01*
X158502000Y-135759592D01*
X159081417Y-135644339D01*
X159559656Y-135324791D01*
X159613673Y-135455199D01*
X159792302Y-135633827D01*
X160025691Y-135730500D01*
X160716250Y-135730500D01*
X160875000Y-135571750D01*
X160875000Y-134222500D01*
X161129000Y-134222500D01*
X161129000Y-135571750D01*
X161287750Y-135730500D01*
X161978309Y-135730500D01*
X162211698Y-135633827D01*
X162390327Y-135455199D01*
X162487000Y-135221810D01*
X162487000Y-134381250D01*
X162328250Y-134222500D01*
X161129000Y-134222500D01*
X160875000Y-134222500D01*
X160855000Y-134222500D01*
X160855000Y-133968500D01*
X160875000Y-133968500D01*
X160875000Y-132619250D01*
X161129000Y-132619250D01*
X161129000Y-133968500D01*
X162328250Y-133968500D01*
X162487000Y-133809750D01*
X162487000Y-133330500D01*
X162847657Y-133330500D01*
X163301571Y-133142482D01*
X163648982Y-132795071D01*
X163837000Y-132341157D01*
X163837000Y-131849843D01*
X163648982Y-131395929D01*
X163301571Y-131048518D01*
X162847657Y-130860500D01*
X162356343Y-130860500D01*
X161902429Y-131048518D01*
X161555018Y-131395929D01*
X161367000Y-131849843D01*
X161367000Y-132341157D01*
X161416434Y-132460500D01*
X161287750Y-132460500D01*
X161129000Y-132619250D01*
X160875000Y-132619250D01*
X160716250Y-132460500D01*
X160025691Y-132460500D01*
X159792302Y-132557173D01*
X159613673Y-132735801D01*
X159559656Y-132866209D01*
X159081418Y-132546661D01*
X158502000Y-132431408D01*
X157922583Y-132546661D01*
X157431375Y-132874875D01*
X157103161Y-133366082D01*
X157017000Y-133799244D01*
X131065449Y-133799244D01*
X131137081Y-133626310D01*
X131137082Y-133373691D01*
X131040409Y-133140302D01*
X130552109Y-132652002D01*
X130327603Y-132652002D01*
X129479605Y-133500000D01*
X129120395Y-133500000D01*
X129106253Y-133485858D01*
X129285858Y-133306253D01*
X129300000Y-133320395D01*
X130147998Y-132472397D01*
X130147998Y-132247891D01*
X129659698Y-131759591D01*
X129426309Y-131662918D01*
X129173690Y-131662919D01*
X129012959Y-131729496D01*
X129018041Y-131703949D01*
X128902788Y-131124531D01*
X128574574Y-130633324D01*
X128083367Y-130305110D01*
X127650205Y-130218949D01*
X127357693Y-130218949D01*
X127151979Y-130259868D01*
X127221990Y-129907898D01*
X127106737Y-129328480D01*
X126778523Y-128837273D01*
X126753948Y-128820853D01*
X132319370Y-123255431D01*
X164565000Y-123255431D01*
X164565000Y-124144569D01*
X164905259Y-124966026D01*
X165533974Y-125594741D01*
X166355431Y-125935000D01*
X167244569Y-125935000D01*
X168066026Y-125594741D01*
X168694741Y-124966026D01*
X169035000Y-124144569D01*
X169035000Y-123255431D01*
X168694741Y-122433974D01*
X168066026Y-121805259D01*
X167244569Y-121465000D01*
X166355431Y-121465000D01*
X165533974Y-121805259D01*
X164905259Y-122433974D01*
X164565000Y-123255431D01*
X132319370Y-123255431D01*
X132539802Y-123035000D01*
X132705874Y-123035000D01*
X133086280Y-122877431D01*
X133377431Y-122586280D01*
X133535000Y-122205874D01*
X133535000Y-121794126D01*
X133377431Y-121413720D01*
X133086280Y-121122569D01*
X132705874Y-120965000D01*
X132294126Y-120965000D01*
X131913720Y-121122569D01*
X131622569Y-121413720D01*
X131465000Y-121794126D01*
X131465000Y-121960198D01*
X128832024Y-124593174D01*
X128935000Y-124344569D01*
X128935000Y-123455431D01*
X128594741Y-122633974D01*
X127966026Y-122005259D01*
X127144569Y-121665000D01*
X126255431Y-121665000D01*
X125433974Y-122005259D01*
X124805259Y-122633974D01*
X124465000Y-123455431D01*
X124465000Y-124344569D01*
X124805259Y-125166026D01*
X125433974Y-125794741D01*
X126255431Y-126135000D01*
X127144569Y-126135000D01*
X127393175Y-126032024D01*
X125223428Y-128201771D01*
X125159969Y-128244173D01*
X124991994Y-128495566D01*
X124967978Y-128616303D01*
X124637273Y-128837273D01*
X124309059Y-129328480D01*
X124193806Y-129907898D01*
X117368302Y-129907898D01*
X123008004Y-124268197D01*
X124021684Y-122751117D01*
X124418267Y-120757359D01*
X168602168Y-120757359D01*
X169078316Y-123151116D01*
X170091996Y-124668196D01*
X179431803Y-134008004D01*
X180948883Y-135021684D01*
X183342641Y-135497832D01*
X185736399Y-135021684D01*
X187765729Y-133665729D01*
X189121684Y-131636399D01*
X189597832Y-129242641D01*
X189121684Y-126848883D01*
X188108004Y-125331803D01*
X185631632Y-122855431D01*
X192165000Y-122855431D01*
X192165000Y-123744569D01*
X192505259Y-124566026D01*
X193133974Y-125194741D01*
X193955431Y-125535000D01*
X194844569Y-125535000D01*
X195666026Y-125194741D01*
X196294741Y-124566026D01*
X196635000Y-123744569D01*
X196635000Y-122855431D01*
X196294741Y-122033974D01*
X195666026Y-121405259D01*
X194844569Y-121065000D01*
X193955431Y-121065000D01*
X193133974Y-121405259D01*
X192505259Y-122033974D01*
X192165000Y-122855431D01*
X185631632Y-122855431D01*
X178768196Y-115991996D01*
X177251116Y-114978316D01*
X174857359Y-114502168D01*
X172463602Y-114978316D01*
X170434272Y-116334272D01*
X169078316Y-118363602D01*
X168602168Y-120757359D01*
X124418267Y-120757359D01*
X124497832Y-120357359D01*
X124021684Y-117963601D01*
X122665729Y-115934271D01*
X120636399Y-114578316D01*
X118242641Y-114102168D01*
X115848883Y-114578316D01*
X114331803Y-115591996D01*
X104991996Y-124931804D01*
X103978316Y-126448884D01*
X103502168Y-128842641D01*
X97922247Y-128842641D01*
X92426914Y-123347308D01*
X92426600Y-123155431D01*
X96865000Y-123155431D01*
X96865000Y-124044569D01*
X97205259Y-124866026D01*
X97833974Y-125494741D01*
X98655431Y-125835000D01*
X99544569Y-125835000D01*
X100366026Y-125494741D01*
X100994741Y-124866026D01*
X101335000Y-124044569D01*
X101335000Y-123155431D01*
X100994741Y-122333974D01*
X100366026Y-121705259D01*
X99544569Y-121365000D01*
X98655431Y-121365000D01*
X97833974Y-121705259D01*
X97205259Y-122333974D01*
X96865000Y-123155431D01*
X92426600Y-123155431D01*
X92408240Y-111955431D01*
X112965000Y-111955431D01*
X112965000Y-112844569D01*
X113305259Y-113666026D01*
X113933974Y-114294741D01*
X114755431Y-114635000D01*
X115644569Y-114635000D01*
X116466026Y-114294741D01*
X117094741Y-113666026D01*
X117435000Y-112844569D01*
X117435000Y-111955431D01*
X117352158Y-111755431D01*
X176065000Y-111755431D01*
X176065000Y-112644569D01*
X176405259Y-113466026D01*
X177033974Y-114094741D01*
X177855431Y-114435000D01*
X178744569Y-114435000D01*
X179566026Y-114094741D01*
X180194741Y-113466026D01*
X180535000Y-112644569D01*
X180535000Y-111755431D01*
X180194741Y-110933974D01*
X179566026Y-110305259D01*
X178744569Y-109965000D01*
X177855431Y-109965000D01*
X177033974Y-110305259D01*
X176405259Y-110933974D01*
X176065000Y-111755431D01*
X117352158Y-111755431D01*
X117094741Y-111133974D01*
X116466026Y-110505259D01*
X115644569Y-110165000D01*
X114755431Y-110165000D01*
X113933974Y-110505259D01*
X113305259Y-111133974D01*
X112965000Y-111955431D01*
X92408240Y-111955431D01*
X92402730Y-108594126D01*
X165565000Y-108594126D01*
X165565000Y-109005874D01*
X165722569Y-109386280D01*
X166013720Y-109677431D01*
X166394126Y-109835000D01*
X166805874Y-109835000D01*
X167186280Y-109677431D01*
X167303711Y-109560000D01*
X179385199Y-109560000D01*
X182620604Y-112795406D01*
X182609059Y-112812684D01*
X182493806Y-113392102D01*
X182609059Y-113971520D01*
X182937273Y-114462727D01*
X183428480Y-114790941D01*
X183861642Y-114877102D01*
X184154154Y-114877102D01*
X184587316Y-114790941D01*
X185078523Y-114462727D01*
X185406737Y-113971520D01*
X185521990Y-113392102D01*
X185451979Y-113040132D01*
X185657693Y-113081051D01*
X185950205Y-113081051D01*
X186383367Y-112994890D01*
X186874574Y-112666676D01*
X187202788Y-112175469D01*
X187318041Y-111596051D01*
X187312959Y-111570504D01*
X187473690Y-111637081D01*
X187726309Y-111637082D01*
X187959698Y-111540409D01*
X188447998Y-111052109D01*
X188447998Y-110827603D01*
X187600000Y-109979605D01*
X187585858Y-109993748D01*
X187406253Y-109814143D01*
X187420395Y-109800000D01*
X187779605Y-109800000D01*
X188627603Y-110647998D01*
X188852109Y-110647998D01*
X189340409Y-110159698D01*
X189437082Y-109926309D01*
X189437081Y-109673690D01*
X189340408Y-109440301D01*
X188852109Y-108952002D01*
X188627603Y-108952002D01*
X187779605Y-109800000D01*
X187420395Y-109800000D01*
X186572397Y-108952002D01*
X186347891Y-108952002D01*
X185859591Y-109440302D01*
X185762918Y-109673691D01*
X185762919Y-109926310D01*
X185839441Y-110111051D01*
X185657693Y-110111051D01*
X185224531Y-110197212D01*
X184733324Y-110525426D01*
X184405110Y-111016633D01*
X184289857Y-111596051D01*
X184359868Y-111948021D01*
X184154154Y-111907102D01*
X183881904Y-111907102D01*
X180522693Y-108547891D01*
X186752002Y-108547891D01*
X186752002Y-108772397D01*
X187600000Y-109620395D01*
X188447998Y-108772397D01*
X188447998Y-108547891D01*
X187959699Y-108059592D01*
X187726310Y-107962919D01*
X187473691Y-107962918D01*
X187240302Y-108059591D01*
X186752002Y-108547891D01*
X180522693Y-108547891D01*
X180290331Y-108315530D01*
X180247929Y-108252071D01*
X179996537Y-108084096D01*
X179774852Y-108040000D01*
X179774847Y-108040000D01*
X179700000Y-108025112D01*
X179625153Y-108040000D01*
X167303711Y-108040000D01*
X167186280Y-107922569D01*
X166805874Y-107765000D01*
X166394126Y-107765000D01*
X166013720Y-107922569D01*
X165722569Y-108213720D01*
X165565000Y-108594126D01*
X92402730Y-108594126D01*
X92392933Y-102618142D01*
X101185347Y-102618142D01*
X101185347Y-103308702D01*
X101282020Y-103542091D01*
X101460649Y-103720719D01*
X101694038Y-103817392D01*
X102384597Y-103817392D01*
X102543347Y-103658642D01*
X102543347Y-102459392D01*
X102797347Y-102459392D01*
X102797347Y-103658642D01*
X102956097Y-103817392D01*
X103646656Y-103817392D01*
X103880045Y-103720719D01*
X104058674Y-103542091D01*
X104155347Y-103308702D01*
X104155347Y-102618142D01*
X103996597Y-102459392D01*
X102797347Y-102459392D01*
X102543347Y-102459392D01*
X101344097Y-102459392D01*
X101185347Y-102618142D01*
X92392933Y-102618142D01*
X92384136Y-97252392D01*
X101156255Y-97252392D01*
X101271508Y-97831810D01*
X101599722Y-98323017D01*
X101898108Y-98522392D01*
X101599722Y-98721767D01*
X101271508Y-99212974D01*
X101156255Y-99792392D01*
X101271508Y-100371810D01*
X101599722Y-100863017D01*
X101621380Y-100877488D01*
X101460649Y-100944065D01*
X101282020Y-101122693D01*
X101185347Y-101356082D01*
X101185347Y-102046642D01*
X101344097Y-102205392D01*
X102543347Y-102205392D01*
X102543347Y-102185392D01*
X102797347Y-102185392D01*
X102797347Y-102205392D01*
X103996597Y-102205392D01*
X104155347Y-102046642D01*
X104155347Y-101356082D01*
X104058674Y-101122693D01*
X103880045Y-100944065D01*
X103719314Y-100877488D01*
X103740972Y-100863017D01*
X104069186Y-100371810D01*
X104184439Y-99792392D01*
X104069186Y-99212974D01*
X103740972Y-98721767D01*
X103442586Y-98522392D01*
X103740972Y-98323017D01*
X104069186Y-97831810D01*
X104184439Y-97252392D01*
X104069186Y-96672974D01*
X103740972Y-96181767D01*
X103678464Y-96140000D01*
X109445908Y-96140000D01*
X109561161Y-96719418D01*
X109889375Y-97210625D01*
X110187761Y-97410000D01*
X109889375Y-97609375D01*
X109561161Y-98100582D01*
X109445908Y-98680000D01*
X109561161Y-99259418D01*
X109889375Y-99750625D01*
X110187761Y-99950000D01*
X109889375Y-100149375D01*
X109561161Y-100640582D01*
X109445908Y-101220000D01*
X109561161Y-101799418D01*
X109889375Y-102290625D01*
X110187761Y-102490000D01*
X109889375Y-102689375D01*
X109561161Y-103180582D01*
X109445908Y-103760000D01*
X109561161Y-104339418D01*
X109889375Y-104830625D01*
X110380582Y-105158839D01*
X110813744Y-105245000D01*
X111106256Y-105245000D01*
X111539418Y-105158839D01*
X112030625Y-104830625D01*
X112230000Y-104532239D01*
X112429375Y-104830625D01*
X112920582Y-105158839D01*
X113353744Y-105245000D01*
X113646256Y-105245000D01*
X114079418Y-105158839D01*
X114570625Y-104830625D01*
X114898839Y-104339418D01*
X115014092Y-103760000D01*
X114898839Y-103180582D01*
X114570625Y-102689375D01*
X114272239Y-102490000D01*
X114570625Y-102290625D01*
X114898839Y-101799418D01*
X115014092Y-101220000D01*
X114898839Y-100640582D01*
X114570625Y-100149375D01*
X114272239Y-99950000D01*
X114570625Y-99750625D01*
X114898839Y-99259418D01*
X115014092Y-98680000D01*
X114898839Y-98100582D01*
X114570625Y-97609375D01*
X114272239Y-97410000D01*
X114570625Y-97210625D01*
X114898839Y-96719418D01*
X115014092Y-96140000D01*
X127545908Y-96140000D01*
X127661161Y-96719418D01*
X127989375Y-97210625D01*
X128287761Y-97410000D01*
X127989375Y-97609375D01*
X127661161Y-98100582D01*
X127545908Y-98680000D01*
X127661161Y-99259418D01*
X127989375Y-99750625D01*
X128287761Y-99950000D01*
X127989375Y-100149375D01*
X127661161Y-100640582D01*
X127545908Y-101220000D01*
X127661161Y-101799418D01*
X127989375Y-102290625D01*
X128287761Y-102490000D01*
X127989375Y-102689375D01*
X127661161Y-103180582D01*
X127545908Y-103760000D01*
X127661161Y-104339418D01*
X127989375Y-104830625D01*
X128480582Y-105158839D01*
X128913744Y-105245000D01*
X129206256Y-105245000D01*
X129639418Y-105158839D01*
X130130625Y-104830625D01*
X130330000Y-104532239D01*
X130529375Y-104830625D01*
X131020582Y-105158839D01*
X131453744Y-105245000D01*
X131746256Y-105245000D01*
X132179418Y-105158839D01*
X132670625Y-104830625D01*
X132998839Y-104339418D01*
X133114092Y-103760000D01*
X132998839Y-103180582D01*
X132670625Y-102689375D01*
X132372239Y-102490000D01*
X132670625Y-102290625D01*
X132998839Y-101799418D01*
X133059565Y-101494126D01*
X134065000Y-101494126D01*
X134065000Y-101905874D01*
X134222569Y-102286280D01*
X134513720Y-102577431D01*
X134894126Y-102735000D01*
X135305874Y-102735000D01*
X135686280Y-102577431D01*
X135977431Y-102286280D01*
X136135000Y-101905874D01*
X136135000Y-101494126D01*
X135977431Y-101113720D01*
X135960000Y-101096289D01*
X135960000Y-97903711D01*
X136077431Y-97786280D01*
X136079289Y-97781794D01*
X136122569Y-97886280D01*
X136240000Y-98003711D01*
X136240001Y-102525148D01*
X136225112Y-102600000D01*
X136240001Y-102674852D01*
X136265000Y-102800530D01*
X136265000Y-103105874D01*
X136422569Y-103486280D01*
X136713720Y-103777431D01*
X137094126Y-103935000D01*
X137505874Y-103935000D01*
X137886280Y-103777431D01*
X138177431Y-103486280D01*
X138335000Y-103105874D01*
X138335000Y-102694126D01*
X138177431Y-102313720D01*
X137886280Y-102022569D01*
X137760000Y-101970262D01*
X137760000Y-98003711D01*
X137877431Y-97886280D01*
X138035000Y-97505874D01*
X138035000Y-97094126D01*
X137877431Y-96713720D01*
X137586280Y-96422569D01*
X137205874Y-96265000D01*
X136794126Y-96265000D01*
X136413720Y-96422569D01*
X136122569Y-96713720D01*
X136120711Y-96718206D01*
X136077431Y-96613720D01*
X135786280Y-96322569D01*
X135405874Y-96165000D01*
X134994126Y-96165000D01*
X134613720Y-96322569D01*
X134322569Y-96613720D01*
X134165000Y-96994126D01*
X134165000Y-97405874D01*
X134322569Y-97786280D01*
X134440000Y-97903711D01*
X134440001Y-100896288D01*
X134222569Y-101113720D01*
X134065000Y-101494126D01*
X133059565Y-101494126D01*
X133114092Y-101220000D01*
X132998839Y-100640582D01*
X132670625Y-100149375D01*
X132372239Y-99950000D01*
X132670625Y-99750625D01*
X132998839Y-99259418D01*
X133114092Y-98680000D01*
X132998839Y-98100582D01*
X132670625Y-97609375D01*
X132372239Y-97410000D01*
X132670625Y-97210625D01*
X132998839Y-96719418D01*
X133114092Y-96140000D01*
X132998839Y-95560582D01*
X132670625Y-95069375D01*
X132351522Y-94856157D01*
X132481358Y-94795183D01*
X132871645Y-94366924D01*
X133041476Y-93956890D01*
X132920155Y-93727000D01*
X131727000Y-93727000D01*
X131727000Y-93747000D01*
X131473000Y-93747000D01*
X131473000Y-93727000D01*
X129187000Y-93727000D01*
X129187000Y-93747000D01*
X128933000Y-93747000D01*
X128933000Y-93727000D01*
X127739845Y-93727000D01*
X127618524Y-93956890D01*
X127788355Y-94366924D01*
X128178642Y-94795183D01*
X128308478Y-94856157D01*
X127989375Y-95069375D01*
X127661161Y-95560582D01*
X127545908Y-96140000D01*
X115014092Y-96140000D01*
X114898839Y-95560582D01*
X114570625Y-95069375D01*
X114251522Y-94856157D01*
X114381358Y-94795183D01*
X114771645Y-94366924D01*
X114941476Y-93956890D01*
X114820155Y-93727000D01*
X113627000Y-93727000D01*
X113627000Y-93747000D01*
X113373000Y-93747000D01*
X113373000Y-93727000D01*
X111087000Y-93727000D01*
X111087000Y-93747000D01*
X110833000Y-93747000D01*
X110833000Y-93727000D01*
X109639845Y-93727000D01*
X109518524Y-93956890D01*
X109688355Y-94366924D01*
X110078642Y-94795183D01*
X110208478Y-94856157D01*
X109889375Y-95069375D01*
X109561161Y-95560582D01*
X109445908Y-96140000D01*
X103678464Y-96140000D01*
X103249765Y-95853553D01*
X102816603Y-95767392D01*
X102524091Y-95767392D01*
X102090929Y-95853553D01*
X101599722Y-96181767D01*
X101271508Y-96672974D01*
X101156255Y-97252392D01*
X92384136Y-97252392D01*
X92368179Y-87518142D01*
X101185347Y-87518142D01*
X101185347Y-88208702D01*
X101282020Y-88442091D01*
X101460649Y-88620719D01*
X101694038Y-88717392D01*
X102384597Y-88717392D01*
X102543347Y-88558642D01*
X102543347Y-87359392D01*
X102797347Y-87359392D01*
X102797347Y-88558642D01*
X102956097Y-88717392D01*
X103646656Y-88717392D01*
X103880045Y-88620719D01*
X104058674Y-88442091D01*
X104155347Y-88208702D01*
X104155347Y-87518142D01*
X103996597Y-87359392D01*
X102797347Y-87359392D01*
X102543347Y-87359392D01*
X101344097Y-87359392D01*
X101185347Y-87518142D01*
X92368179Y-87518142D01*
X92359382Y-82152392D01*
X101156255Y-82152392D01*
X101271508Y-82731810D01*
X101599722Y-83223017D01*
X101898108Y-83422392D01*
X101599722Y-83621767D01*
X101271508Y-84112974D01*
X101156255Y-84692392D01*
X101271508Y-85271810D01*
X101599722Y-85763017D01*
X101621380Y-85777488D01*
X101460649Y-85844065D01*
X101282020Y-86022693D01*
X101185347Y-86256082D01*
X101185347Y-86946642D01*
X101344097Y-87105392D01*
X102543347Y-87105392D01*
X102543347Y-87085392D01*
X102797347Y-87085392D01*
X102797347Y-87105392D01*
X103996597Y-87105392D01*
X104155347Y-86946642D01*
X104155347Y-86256082D01*
X104058674Y-86022693D01*
X103880045Y-85844065D01*
X103719314Y-85777488D01*
X103740972Y-85763017D01*
X104069186Y-85271810D01*
X104184439Y-84692392D01*
X104069186Y-84112974D01*
X103740972Y-83621767D01*
X103442586Y-83422392D01*
X103740972Y-83223017D01*
X104069186Y-82731810D01*
X104184439Y-82152392D01*
X104069186Y-81572974D01*
X103740972Y-81081767D01*
X103468939Y-80900000D01*
X109445908Y-80900000D01*
X109561161Y-81479418D01*
X109889375Y-81970625D01*
X110187761Y-82170000D01*
X109889375Y-82369375D01*
X109561161Y-82860582D01*
X109445908Y-83440000D01*
X109561161Y-84019418D01*
X109889375Y-84510625D01*
X110187761Y-84710000D01*
X109889375Y-84909375D01*
X109561161Y-85400582D01*
X109445908Y-85980000D01*
X109561161Y-86559418D01*
X109889375Y-87050625D01*
X110187761Y-87250000D01*
X109889375Y-87449375D01*
X109561161Y-87940582D01*
X109445908Y-88520000D01*
X109561161Y-89099418D01*
X109889375Y-89590625D01*
X110187761Y-89790000D01*
X109889375Y-89989375D01*
X109561161Y-90480582D01*
X109445908Y-91060000D01*
X109561161Y-91639418D01*
X109889375Y-92130625D01*
X110208478Y-92343843D01*
X110078642Y-92404817D01*
X109688355Y-92833076D01*
X109518524Y-93243110D01*
X109639845Y-93473000D01*
X110833000Y-93473000D01*
X110833000Y-93453000D01*
X111087000Y-93453000D01*
X111087000Y-93473000D01*
X113373000Y-93473000D01*
X113373000Y-93453000D01*
X113627000Y-93453000D01*
X113627000Y-93473000D01*
X114820155Y-93473000D01*
X114941476Y-93243110D01*
X114771645Y-92833076D01*
X114381358Y-92404817D01*
X114251522Y-92343843D01*
X114570625Y-92130625D01*
X114898839Y-91639418D01*
X115014092Y-91060000D01*
X114898839Y-90480582D01*
X114570625Y-89989375D01*
X114251522Y-89776157D01*
X114381358Y-89715183D01*
X114771645Y-89286924D01*
X114941476Y-88876890D01*
X114820155Y-88647000D01*
X113627000Y-88647000D01*
X113627000Y-88667000D01*
X113373000Y-88667000D01*
X113373000Y-88647000D01*
X113353000Y-88647000D01*
X113353000Y-88393000D01*
X113373000Y-88393000D01*
X113373000Y-88373000D01*
X113627000Y-88373000D01*
X113627000Y-88393000D01*
X114820155Y-88393000D01*
X114941476Y-88163110D01*
X114771645Y-87753076D01*
X114381358Y-87324817D01*
X114251522Y-87263843D01*
X114570625Y-87050625D01*
X114898839Y-86559418D01*
X115014092Y-85980000D01*
X114898839Y-85400582D01*
X114570625Y-84909375D01*
X114272239Y-84710000D01*
X114570625Y-84510625D01*
X114898839Y-84019418D01*
X115014092Y-83440000D01*
X114898839Y-82860582D01*
X114570625Y-82369375D01*
X114548967Y-82354904D01*
X114709698Y-82288327D01*
X114888327Y-82109699D01*
X114985000Y-81876310D01*
X114985000Y-81185750D01*
X114826250Y-81027000D01*
X113627000Y-81027000D01*
X113627000Y-81047000D01*
X113373000Y-81047000D01*
X113373000Y-81027000D01*
X113353000Y-81027000D01*
X113353000Y-80773000D01*
X113373000Y-80773000D01*
X113373000Y-79573750D01*
X113627000Y-79573750D01*
X113627000Y-80773000D01*
X114826250Y-80773000D01*
X114985000Y-80614250D01*
X114985000Y-79923690D01*
X114888327Y-79690301D01*
X114709698Y-79511673D01*
X114476309Y-79415000D01*
X113785750Y-79415000D01*
X113627000Y-79573750D01*
X113373000Y-79573750D01*
X113214250Y-79415000D01*
X112523691Y-79415000D01*
X112290302Y-79511673D01*
X112111673Y-79690301D01*
X112045096Y-79851032D01*
X112030625Y-79829375D01*
X111539418Y-79501161D01*
X111106256Y-79415000D01*
X110813744Y-79415000D01*
X110380582Y-79501161D01*
X109889375Y-79829375D01*
X109561161Y-80320582D01*
X109445908Y-80900000D01*
X103468939Y-80900000D01*
X103249765Y-80753553D01*
X102816603Y-80667392D01*
X102524091Y-80667392D01*
X102090929Y-80753553D01*
X101599722Y-81081767D01*
X101271508Y-81572974D01*
X101156255Y-82152392D01*
X92359382Y-82152392D01*
X92348850Y-75727603D01*
X104452002Y-75727603D01*
X104452002Y-75952109D01*
X104940301Y-76440408D01*
X105173690Y-76537081D01*
X105426309Y-76537082D01*
X105659698Y-76440409D01*
X106147998Y-75952109D01*
X106147998Y-75727603D01*
X105300000Y-74879605D01*
X104452002Y-75727603D01*
X92348850Y-75727603D01*
X92346958Y-74573691D01*
X103462918Y-74573691D01*
X103462919Y-74826310D01*
X103559592Y-75059699D01*
X104047891Y-75547998D01*
X104272397Y-75547998D01*
X105120395Y-74700000D01*
X104272397Y-73852002D01*
X104047891Y-73852002D01*
X103559591Y-74340302D01*
X103462918Y-74573691D01*
X92346958Y-74573691D01*
X92345113Y-73447891D01*
X104452002Y-73447891D01*
X104452002Y-73672397D01*
X105300000Y-74520395D01*
X105314143Y-74506253D01*
X105493748Y-74685858D01*
X105479605Y-74700000D01*
X106327603Y-75547998D01*
X106552109Y-75547998D01*
X107040409Y-75059698D01*
X107137082Y-74826309D01*
X107137081Y-74573690D01*
X107060559Y-74388949D01*
X107242307Y-74388949D01*
X107675469Y-74302788D01*
X108166676Y-73974574D01*
X108494890Y-73483367D01*
X108610143Y-72903949D01*
X108540132Y-72551979D01*
X108745846Y-72592898D01*
X109038358Y-72592898D01*
X109471520Y-72506737D01*
X109962727Y-72178523D01*
X110111792Y-71955431D01*
X112865000Y-71955431D01*
X112865000Y-72844569D01*
X113205259Y-73666026D01*
X113833974Y-74294741D01*
X114655431Y-74635000D01*
X115544569Y-74635000D01*
X116366026Y-74294741D01*
X116994741Y-73666026D01*
X117063511Y-73500000D01*
X123025112Y-73500000D01*
X123040001Y-73574852D01*
X123040000Y-84387234D01*
X123025112Y-84462081D01*
X123040000Y-84536928D01*
X123040000Y-84536932D01*
X123084096Y-84758617D01*
X123252071Y-85010010D01*
X123315530Y-85052412D01*
X127267590Y-89004473D01*
X127309990Y-89067929D01*
X127561382Y-89235904D01*
X127781631Y-89279714D01*
X127989375Y-89590625D01*
X128287761Y-89790000D01*
X127989375Y-89989375D01*
X127661161Y-90480582D01*
X127545908Y-91060000D01*
X127661161Y-91639418D01*
X127989375Y-92130625D01*
X128308478Y-92343843D01*
X128178642Y-92404817D01*
X127788355Y-92833076D01*
X127618524Y-93243110D01*
X127739845Y-93473000D01*
X128933000Y-93473000D01*
X128933000Y-93453000D01*
X129187000Y-93453000D01*
X129187000Y-93473000D01*
X131473000Y-93473000D01*
X131473000Y-93453000D01*
X131727000Y-93453000D01*
X131727000Y-93473000D01*
X132920155Y-93473000D01*
X133041476Y-93243110D01*
X132871645Y-92833076D01*
X132481358Y-92404817D01*
X132351522Y-92343843D01*
X132670625Y-92130625D01*
X132998839Y-91639418D01*
X133114092Y-91060000D01*
X132998839Y-90480582D01*
X132670625Y-89989375D01*
X132351522Y-89776157D01*
X132481358Y-89715183D01*
X132871645Y-89286924D01*
X133041476Y-88876890D01*
X132920155Y-88647000D01*
X131727000Y-88647000D01*
X131727000Y-88667000D01*
X131473000Y-88667000D01*
X131473000Y-88647000D01*
X131453000Y-88647000D01*
X131453000Y-88393000D01*
X131473000Y-88393000D01*
X131473000Y-88373000D01*
X131727000Y-88373000D01*
X131727000Y-88393000D01*
X132920155Y-88393000D01*
X133041476Y-88163110D01*
X132871645Y-87753076D01*
X132481358Y-87324817D01*
X132351522Y-87263843D01*
X132670625Y-87050625D01*
X132998839Y-86559418D01*
X133114092Y-85980000D01*
X133058819Y-85702119D01*
X139203000Y-85702119D01*
X139203000Y-86257881D01*
X139415680Y-86771337D01*
X139808663Y-87164320D01*
X140015513Y-87250000D01*
X139808663Y-87335680D01*
X139415680Y-87728663D01*
X139203000Y-88242119D01*
X139203000Y-88797881D01*
X139415680Y-89311337D01*
X139808663Y-89704320D01*
X140015513Y-89790000D01*
X139808663Y-89875680D01*
X139415680Y-90268663D01*
X139203000Y-90782119D01*
X139203000Y-91337881D01*
X139415680Y-91851337D01*
X139808663Y-92244320D01*
X140015513Y-92330000D01*
X139808663Y-92415680D01*
X139415680Y-92808663D01*
X139203000Y-93322119D01*
X139203000Y-93877881D01*
X139415680Y-94391337D01*
X139808663Y-94784320D01*
X140015513Y-94870000D01*
X139808663Y-94955680D01*
X139415680Y-95348663D01*
X139203000Y-95862119D01*
X139203000Y-96417881D01*
X139415680Y-96931337D01*
X139808663Y-97324320D01*
X140015513Y-97410000D01*
X139808663Y-97495680D01*
X139415680Y-97888663D01*
X139203000Y-98402119D01*
X139203000Y-98957881D01*
X139415680Y-99471337D01*
X139808663Y-99864320D01*
X140015513Y-99950000D01*
X139808663Y-100035680D01*
X139415680Y-100428663D01*
X139203000Y-100942119D01*
X139203000Y-101497881D01*
X139415680Y-102011337D01*
X139808663Y-102404320D01*
X140015513Y-102490000D01*
X139808663Y-102575680D01*
X139415680Y-102968663D01*
X139203000Y-103482119D01*
X139203000Y-104037881D01*
X139415680Y-104551337D01*
X139808663Y-104944320D01*
X140322119Y-105157000D01*
X140877881Y-105157000D01*
X141391337Y-104944320D01*
X141784320Y-104551337D01*
X141997000Y-104037881D01*
X141997000Y-103482119D01*
X141784320Y-102968663D01*
X141391337Y-102575680D01*
X141184487Y-102490000D01*
X141391337Y-102404320D01*
X141620335Y-102175322D01*
X149965000Y-102175322D01*
X149965000Y-103024678D01*
X150290034Y-103809380D01*
X150890620Y-104409966D01*
X151675322Y-104735000D01*
X152524678Y-104735000D01*
X153309380Y-104409966D01*
X153909966Y-103809380D01*
X154235000Y-103024678D01*
X154235000Y-102175322D01*
X153909966Y-101390620D01*
X153309380Y-100790034D01*
X152524678Y-100465000D01*
X151675322Y-100465000D01*
X150890620Y-100790034D01*
X150290034Y-101390620D01*
X149965000Y-102175322D01*
X141620335Y-102175322D01*
X141784320Y-102011337D01*
X141997000Y-101497881D01*
X141997000Y-100942119D01*
X141784320Y-100428663D01*
X141391337Y-100035680D01*
X141184487Y-99950000D01*
X141391337Y-99864320D01*
X141784320Y-99471337D01*
X141997000Y-98957881D01*
X141997000Y-98402119D01*
X141784320Y-97888663D01*
X141391337Y-97495680D01*
X141184487Y-97410000D01*
X141391337Y-97324320D01*
X141784320Y-96931337D01*
X141797300Y-96900000D01*
X154085153Y-96900000D01*
X154160000Y-96914888D01*
X154234847Y-96900000D01*
X154234852Y-96900000D01*
X154456537Y-96855904D01*
X154707929Y-96687929D01*
X154750331Y-96624470D01*
X156939802Y-94435000D01*
X157105874Y-94435000D01*
X157486280Y-94277431D01*
X157777431Y-93986280D01*
X157935000Y-93605874D01*
X157935000Y-93194126D01*
X157777431Y-92813720D01*
X157486280Y-92522569D01*
X157105874Y-92365000D01*
X156694126Y-92365000D01*
X156313720Y-92522569D01*
X156022569Y-92813720D01*
X155865000Y-93194126D01*
X155865000Y-93360198D01*
X153845199Y-95380000D01*
X141797300Y-95380000D01*
X141784320Y-95348663D01*
X141391337Y-94955680D01*
X141184487Y-94870000D01*
X141391337Y-94784320D01*
X141784320Y-94391337D01*
X141997000Y-93877881D01*
X141997000Y-93322119D01*
X141784320Y-92808663D01*
X141391337Y-92415680D01*
X141184487Y-92330000D01*
X141391337Y-92244320D01*
X141784320Y-91851337D01*
X141997000Y-91337881D01*
X141997000Y-90782119D01*
X141784320Y-90268663D01*
X141391337Y-89875680D01*
X141184487Y-89790000D01*
X141391337Y-89704320D01*
X141784320Y-89311337D01*
X141997000Y-88797881D01*
X141997000Y-88242119D01*
X141784320Y-87728663D01*
X141391337Y-87335680D01*
X141184487Y-87250000D01*
X141391337Y-87164320D01*
X141784320Y-86771337D01*
X141997000Y-86257881D01*
X141997000Y-85702119D01*
X141784320Y-85188663D01*
X141391337Y-84795680D01*
X141200353Y-84716572D01*
X141331143Y-84662397D01*
X141400608Y-84420213D01*
X140600000Y-83619605D01*
X139799392Y-84420213D01*
X139868857Y-84662397D01*
X140009393Y-84712535D01*
X139808663Y-84795680D01*
X139415680Y-85188663D01*
X139203000Y-85702119D01*
X133058819Y-85702119D01*
X132998839Y-85400582D01*
X132670625Y-84909375D01*
X132372239Y-84710000D01*
X132670625Y-84510625D01*
X132998839Y-84019418D01*
X133114092Y-83440000D01*
X133072779Y-83232302D01*
X139190856Y-83232302D01*
X139218638Y-83787368D01*
X139377603Y-84171143D01*
X139619787Y-84240608D01*
X140420395Y-83440000D01*
X140779605Y-83440000D01*
X141580213Y-84240608D01*
X141822397Y-84171143D01*
X142009144Y-83647698D01*
X141981362Y-83092632D01*
X141822397Y-82708857D01*
X141580213Y-82639392D01*
X140779605Y-83440000D01*
X140420395Y-83440000D01*
X139619787Y-82639392D01*
X139377603Y-82708857D01*
X139190856Y-83232302D01*
X133072779Y-83232302D01*
X132998839Y-82860582D01*
X132670625Y-82369375D01*
X132648967Y-82354904D01*
X132809698Y-82288327D01*
X132988327Y-82109699D01*
X133085000Y-81876310D01*
X133085000Y-81185750D01*
X132926250Y-81027000D01*
X131727000Y-81027000D01*
X131727000Y-81047000D01*
X131473000Y-81047000D01*
X131473000Y-81027000D01*
X131453000Y-81027000D01*
X131453000Y-80773000D01*
X131473000Y-80773000D01*
X131473000Y-79573750D01*
X131727000Y-79573750D01*
X131727000Y-80773000D01*
X132926250Y-80773000D01*
X133077131Y-80622119D01*
X139203000Y-80622119D01*
X139203000Y-81177881D01*
X139415680Y-81691337D01*
X139808663Y-82084320D01*
X139999647Y-82163428D01*
X139868857Y-82217603D01*
X139799392Y-82459787D01*
X140600000Y-83260395D01*
X141400608Y-82459787D01*
X141331143Y-82217603D01*
X141190607Y-82167465D01*
X141391337Y-82084320D01*
X141784320Y-81691337D01*
X141832374Y-81575322D01*
X149965000Y-81575322D01*
X149965000Y-82424678D01*
X150290034Y-83209380D01*
X150890620Y-83809966D01*
X151675322Y-84135000D01*
X152524678Y-84135000D01*
X153309380Y-83809966D01*
X153679346Y-83440000D01*
X160645908Y-83440000D01*
X160761161Y-84019418D01*
X161089375Y-84510625D01*
X161387761Y-84710000D01*
X161089375Y-84909375D01*
X160761161Y-85400582D01*
X160645908Y-85980000D01*
X160761161Y-86559418D01*
X161089375Y-87050625D01*
X161387761Y-87250000D01*
X161089375Y-87449375D01*
X160761161Y-87940582D01*
X160645908Y-88520000D01*
X160761161Y-89099418D01*
X161089375Y-89590625D01*
X161387761Y-89790000D01*
X161089375Y-89989375D01*
X160761161Y-90480582D01*
X160645908Y-91060000D01*
X160761161Y-91639418D01*
X161089375Y-92130625D01*
X161387761Y-92330000D01*
X161089375Y-92529375D01*
X160761161Y-93020582D01*
X160645908Y-93600000D01*
X160761161Y-94179418D01*
X161089375Y-94670625D01*
X161387761Y-94870000D01*
X161089375Y-95069375D01*
X160761161Y-95560582D01*
X160645908Y-96140000D01*
X160761161Y-96719418D01*
X161089375Y-97210625D01*
X161408478Y-97423843D01*
X161278642Y-97484817D01*
X160888355Y-97913076D01*
X160718524Y-98323110D01*
X160839845Y-98553000D01*
X162033000Y-98553000D01*
X162033000Y-98533000D01*
X162287000Y-98533000D01*
X162287000Y-98553000D01*
X162307000Y-98553000D01*
X162307000Y-98807000D01*
X162287000Y-98807000D01*
X162287000Y-98827000D01*
X162033000Y-98827000D01*
X162033000Y-98807000D01*
X160839845Y-98807000D01*
X160718524Y-99036890D01*
X160888355Y-99446924D01*
X161278642Y-99875183D01*
X161408478Y-99936157D01*
X161089375Y-100149375D01*
X160761161Y-100640582D01*
X160645908Y-101220000D01*
X160761161Y-101799418D01*
X161089375Y-102290625D01*
X161387761Y-102490000D01*
X161089375Y-102689375D01*
X160761161Y-103180582D01*
X160645908Y-103760000D01*
X160761161Y-104339418D01*
X161089375Y-104830625D01*
X161580582Y-105158839D01*
X162013744Y-105245000D01*
X162306256Y-105245000D01*
X162739418Y-105158839D01*
X163230625Y-104830625D01*
X163430000Y-104532239D01*
X163629375Y-104830625D01*
X164120582Y-105158839D01*
X164553744Y-105245000D01*
X164846256Y-105245000D01*
X165279418Y-105158839D01*
X165770625Y-104830625D01*
X166098839Y-104339418D01*
X166214092Y-103760000D01*
X166098839Y-103180582D01*
X165770625Y-102689375D01*
X165472239Y-102490000D01*
X165770625Y-102290625D01*
X166098839Y-101799418D01*
X166214092Y-101220000D01*
X166098839Y-100640582D01*
X165770625Y-100149375D01*
X165472239Y-99950000D01*
X165770625Y-99750625D01*
X166098839Y-99259418D01*
X166214092Y-98680000D01*
X166098839Y-98100582D01*
X165770625Y-97609375D01*
X165472239Y-97410000D01*
X165770625Y-97210625D01*
X166098839Y-96719418D01*
X166214092Y-96140000D01*
X166098839Y-95560582D01*
X165770625Y-95069375D01*
X165472239Y-94870000D01*
X165770625Y-94670625D01*
X166098839Y-94179418D01*
X166214092Y-93600000D01*
X166098839Y-93020582D01*
X165770625Y-92529375D01*
X165472239Y-92330000D01*
X165770625Y-92130625D01*
X166098839Y-91639418D01*
X166214092Y-91060000D01*
X166098839Y-90480582D01*
X165770625Y-89989375D01*
X165472239Y-89790000D01*
X165770625Y-89590625D01*
X166098839Y-89099418D01*
X166214092Y-88520000D01*
X166098839Y-87940582D01*
X165770625Y-87449375D01*
X165472239Y-87250000D01*
X165770625Y-87050625D01*
X166098839Y-86559418D01*
X166214092Y-85980000D01*
X166098839Y-85400582D01*
X165770625Y-84909375D01*
X165472239Y-84710000D01*
X165770625Y-84510625D01*
X166098839Y-84019418D01*
X166214092Y-83440000D01*
X178345908Y-83440000D01*
X178461161Y-84019418D01*
X178789375Y-84510625D01*
X179087761Y-84710000D01*
X178789375Y-84909375D01*
X178461161Y-85400582D01*
X178345908Y-85980000D01*
X178461161Y-86559418D01*
X178789375Y-87050625D01*
X179087761Y-87250000D01*
X178789375Y-87449375D01*
X178461161Y-87940582D01*
X178345908Y-88520000D01*
X178461161Y-89099418D01*
X178789375Y-89590625D01*
X179087761Y-89790000D01*
X178789375Y-89989375D01*
X178461161Y-90480582D01*
X178345908Y-91060000D01*
X178461161Y-91639418D01*
X178789375Y-92130625D01*
X179087761Y-92330000D01*
X178789375Y-92529375D01*
X178461161Y-93020582D01*
X178345908Y-93600000D01*
X178461161Y-94179418D01*
X178789375Y-94670625D01*
X179087761Y-94870000D01*
X178789375Y-95069375D01*
X178461161Y-95560582D01*
X178345908Y-96140000D01*
X178461161Y-96719418D01*
X178789375Y-97210625D01*
X179108478Y-97423843D01*
X178978642Y-97484817D01*
X178588355Y-97913076D01*
X178418524Y-98323110D01*
X178539845Y-98553000D01*
X179733000Y-98553000D01*
X179733000Y-98533000D01*
X179987000Y-98533000D01*
X179987000Y-98553000D01*
X180007000Y-98553000D01*
X180007000Y-98807000D01*
X179987000Y-98807000D01*
X179987000Y-98827000D01*
X179733000Y-98827000D01*
X179733000Y-98807000D01*
X178539845Y-98807000D01*
X178418524Y-99036890D01*
X178588355Y-99446924D01*
X178978642Y-99875183D01*
X179108478Y-99936157D01*
X178789375Y-100149375D01*
X178461161Y-100640582D01*
X178345908Y-101220000D01*
X178461161Y-101799418D01*
X178789375Y-102290625D01*
X179087761Y-102490000D01*
X178789375Y-102689375D01*
X178461161Y-103180582D01*
X178345908Y-103760000D01*
X178461161Y-104339418D01*
X178789375Y-104830625D01*
X179280582Y-105158839D01*
X179713744Y-105245000D01*
X180006256Y-105245000D01*
X180439418Y-105158839D01*
X180930625Y-104830625D01*
X181130000Y-104532239D01*
X181329375Y-104830625D01*
X181820582Y-105158839D01*
X182253744Y-105245000D01*
X182546256Y-105245000D01*
X182979418Y-105158839D01*
X183470625Y-104830625D01*
X183798839Y-104339418D01*
X183914092Y-103760000D01*
X183798839Y-103180582D01*
X183470625Y-102689375D01*
X183172239Y-102490000D01*
X183470625Y-102290625D01*
X183798839Y-101799418D01*
X183914092Y-101220000D01*
X183798839Y-100640582D01*
X183470625Y-100149375D01*
X183172239Y-99950000D01*
X183470625Y-99750625D01*
X183798839Y-99259418D01*
X183914092Y-98680000D01*
X183798839Y-98100582D01*
X183470625Y-97609375D01*
X183172239Y-97410000D01*
X183470625Y-97210625D01*
X183798839Y-96719418D01*
X183914092Y-96140000D01*
X183798839Y-95560582D01*
X183470625Y-95069375D01*
X183172239Y-94870000D01*
X183470625Y-94670625D01*
X183798839Y-94179418D01*
X183914092Y-93600000D01*
X183798839Y-93020582D01*
X183470625Y-92529375D01*
X183172239Y-92330000D01*
X183470625Y-92130625D01*
X183798839Y-91639418D01*
X183914092Y-91060000D01*
X183798839Y-90480582D01*
X183470625Y-89989375D01*
X183172239Y-89790000D01*
X183470625Y-89590625D01*
X183798839Y-89099418D01*
X183914092Y-88520000D01*
X183798839Y-87940582D01*
X183470625Y-87449375D01*
X183172239Y-87250000D01*
X183470625Y-87050625D01*
X183798839Y-86559418D01*
X183914092Y-85980000D01*
X183798839Y-85400582D01*
X183470625Y-84909375D01*
X183172239Y-84710000D01*
X183470625Y-84510625D01*
X183798839Y-84019418D01*
X183914092Y-83440000D01*
X183798839Y-82860582D01*
X183470625Y-82369375D01*
X183452381Y-82357184D01*
X183497765Y-82348157D01*
X183707809Y-82207809D01*
X183848157Y-81997765D01*
X183897440Y-81750000D01*
X183897440Y-80050000D01*
X183848157Y-79802235D01*
X183707809Y-79592191D01*
X183497765Y-79451843D01*
X183250000Y-79402560D01*
X181550000Y-79402560D01*
X181302235Y-79451843D01*
X181092191Y-79592191D01*
X180951843Y-79802235D01*
X180930039Y-79911855D01*
X180741358Y-79704817D01*
X180216892Y-79458514D01*
X179987000Y-79579181D01*
X179987000Y-80773000D01*
X180007000Y-80773000D01*
X180007000Y-81027000D01*
X179987000Y-81027000D01*
X179987000Y-81047000D01*
X179733000Y-81047000D01*
X179733000Y-81027000D01*
X178539845Y-81027000D01*
X178418524Y-81256890D01*
X178588355Y-81666924D01*
X178978642Y-82095183D01*
X179108478Y-82156157D01*
X178789375Y-82369375D01*
X178461161Y-82860582D01*
X178345908Y-83440000D01*
X166214092Y-83440000D01*
X166098839Y-82860582D01*
X165770625Y-82369375D01*
X165752381Y-82357184D01*
X165797765Y-82348157D01*
X166007809Y-82207809D01*
X166148157Y-81997765D01*
X166197440Y-81750000D01*
X166197440Y-80543110D01*
X178418524Y-80543110D01*
X178539845Y-80773000D01*
X179733000Y-80773000D01*
X179733000Y-79579181D01*
X179503108Y-79458514D01*
X178978642Y-79704817D01*
X178588355Y-80133076D01*
X178418524Y-80543110D01*
X166197440Y-80543110D01*
X166197440Y-80050000D01*
X166148157Y-79802235D01*
X166007809Y-79592191D01*
X165797765Y-79451843D01*
X165550000Y-79402560D01*
X163850000Y-79402560D01*
X163602235Y-79451843D01*
X163392191Y-79592191D01*
X163251843Y-79802235D01*
X163230039Y-79911855D01*
X163041358Y-79704817D01*
X162516892Y-79458514D01*
X162287000Y-79579181D01*
X162287000Y-80773000D01*
X162307000Y-80773000D01*
X162307000Y-81027000D01*
X162287000Y-81027000D01*
X162287000Y-81047000D01*
X162033000Y-81047000D01*
X162033000Y-81027000D01*
X160839845Y-81027000D01*
X160718524Y-81256890D01*
X160888355Y-81666924D01*
X161278642Y-82095183D01*
X161408478Y-82156157D01*
X161089375Y-82369375D01*
X160761161Y-82860582D01*
X160645908Y-83440000D01*
X153679346Y-83440000D01*
X153909966Y-83209380D01*
X154235000Y-82424678D01*
X154235000Y-81575322D01*
X153909966Y-80790620D01*
X153662456Y-80543110D01*
X160718524Y-80543110D01*
X160839845Y-80773000D01*
X162033000Y-80773000D01*
X162033000Y-79579181D01*
X161803108Y-79458514D01*
X161278642Y-79704817D01*
X160888355Y-80133076D01*
X160718524Y-80543110D01*
X153662456Y-80543110D01*
X153309380Y-80190034D01*
X152524678Y-79865000D01*
X151675322Y-79865000D01*
X150890620Y-80190034D01*
X150290034Y-80790620D01*
X149965000Y-81575322D01*
X141832374Y-81575322D01*
X141997000Y-81177881D01*
X141997000Y-80622119D01*
X141784320Y-80108663D01*
X141391337Y-79715680D01*
X140877881Y-79503000D01*
X140322119Y-79503000D01*
X139808663Y-79715680D01*
X139415680Y-80108663D01*
X139203000Y-80622119D01*
X133077131Y-80622119D01*
X133085000Y-80614250D01*
X133085000Y-79923690D01*
X132988327Y-79690301D01*
X132809698Y-79511673D01*
X132576309Y-79415000D01*
X131885750Y-79415000D01*
X131727000Y-79573750D01*
X131473000Y-79573750D01*
X131314250Y-79415000D01*
X130623691Y-79415000D01*
X130390302Y-79511673D01*
X130211673Y-79690301D01*
X130145096Y-79851032D01*
X130130625Y-79829375D01*
X129820000Y-79621822D01*
X129820000Y-77254801D01*
X131184473Y-75890329D01*
X131247929Y-75847929D01*
X131415904Y-75596537D01*
X131460000Y-75374852D01*
X131460000Y-75374848D01*
X131474888Y-75300001D01*
X131460000Y-75225154D01*
X131460000Y-71955431D01*
X175565000Y-71955431D01*
X175565000Y-72844569D01*
X175905259Y-73666026D01*
X176533974Y-74294741D01*
X177355431Y-74635000D01*
X178244569Y-74635000D01*
X179066026Y-74294741D01*
X179694741Y-73666026D01*
X180035000Y-72844569D01*
X180035000Y-71955431D01*
X179694741Y-71133974D01*
X179066026Y-70505259D01*
X178244569Y-70165000D01*
X177355431Y-70165000D01*
X176533974Y-70505259D01*
X175905259Y-71133974D01*
X175565000Y-71955431D01*
X131460000Y-71955431D01*
X131460000Y-66003711D01*
X131577431Y-65886280D01*
X131735000Y-65505874D01*
X131735000Y-65094126D01*
X131577431Y-64713720D01*
X131286280Y-64422569D01*
X130905874Y-64265000D01*
X130494126Y-64265000D01*
X130113720Y-64422569D01*
X129822569Y-64713720D01*
X129665000Y-65094126D01*
X129665000Y-65505874D01*
X129822569Y-65886280D01*
X129940000Y-66003711D01*
X129940001Y-74985197D01*
X128575530Y-76349669D01*
X128512071Y-76392071D01*
X128344096Y-76643464D01*
X128300000Y-76865149D01*
X128300000Y-76865153D01*
X128285112Y-76940000D01*
X128300000Y-77014847D01*
X128300001Y-79621822D01*
X127989375Y-79829375D01*
X127661161Y-80320582D01*
X127545908Y-80900000D01*
X127661161Y-81479418D01*
X127989375Y-81970625D01*
X128287761Y-82170000D01*
X127989375Y-82369375D01*
X127661161Y-82860582D01*
X127545908Y-83440000D01*
X127661161Y-84019418D01*
X127989375Y-84510625D01*
X128287761Y-84710000D01*
X127989375Y-84909375D01*
X127661161Y-85400582D01*
X127545908Y-85980000D01*
X127661161Y-86559418D01*
X127989375Y-87050625D01*
X128287761Y-87250000D01*
X127989375Y-87449375D01*
X127938394Y-87525673D01*
X124560000Y-84147280D01*
X124560000Y-73814801D01*
X124639801Y-73735000D01*
X124805874Y-73735000D01*
X125186280Y-73577431D01*
X125477431Y-73286280D01*
X125635000Y-72905874D01*
X125635000Y-72494126D01*
X125477431Y-72113720D01*
X125186280Y-71822569D01*
X124805874Y-71665000D01*
X124394126Y-71665000D01*
X124013720Y-71822569D01*
X123722569Y-72113720D01*
X123565000Y-72494126D01*
X123565000Y-72660199D01*
X123315528Y-72909671D01*
X123252072Y-72952071D01*
X123209672Y-73015527D01*
X123209671Y-73015528D01*
X123084097Y-73203463D01*
X123025112Y-73500000D01*
X117063511Y-73500000D01*
X117335000Y-72844569D01*
X117335000Y-71955431D01*
X116994741Y-71133974D01*
X116366026Y-70505259D01*
X115544569Y-70165000D01*
X114655431Y-70165000D01*
X113833974Y-70505259D01*
X113205259Y-71133974D01*
X112865000Y-71955431D01*
X110111792Y-71955431D01*
X110290941Y-71687316D01*
X110406194Y-71107898D01*
X110290941Y-70528480D01*
X109962727Y-70037273D01*
X109471520Y-69709059D01*
X109038358Y-69622898D01*
X108745846Y-69622898D01*
X108312684Y-69709059D01*
X107821477Y-70037273D01*
X107493263Y-70528480D01*
X107378010Y-71107898D01*
X107448021Y-71459868D01*
X107242307Y-71418949D01*
X106949795Y-71418949D01*
X106516633Y-71505110D01*
X106025426Y-71833324D01*
X105697212Y-72324531D01*
X105581959Y-72903949D01*
X105587041Y-72929496D01*
X105426310Y-72862919D01*
X105173691Y-72862918D01*
X104940302Y-72959591D01*
X104452002Y-73447891D01*
X92345113Y-73447891D01*
X92327087Y-62452979D01*
X94248255Y-60555431D01*
X96265000Y-60555431D01*
X96265000Y-61444569D01*
X96605259Y-62266026D01*
X97233974Y-62894741D01*
X98055431Y-63235000D01*
X98944569Y-63235000D01*
X99766026Y-62894741D01*
X100394741Y-62266026D01*
X100735000Y-61444569D01*
X100735000Y-60555431D01*
X100394741Y-59733974D01*
X99766026Y-59105259D01*
X98944569Y-58765000D01*
X98055431Y-58765000D01*
X97233974Y-59105259D01*
X96605259Y-59733974D01*
X96265000Y-60555431D01*
X94248255Y-60555431D01*
X99308543Y-55557359D01*
X103402168Y-55557359D01*
X103878316Y-57951116D01*
X104891996Y-59468196D01*
X114231803Y-68808004D01*
X115748883Y-69821684D01*
X118142641Y-70297832D01*
X120536399Y-69821684D01*
X122565729Y-68465729D01*
X123921684Y-66436399D01*
X124397832Y-64042641D01*
X123921684Y-61648883D01*
X123257881Y-60655431D01*
X124165000Y-60655431D01*
X124165000Y-61544569D01*
X124505259Y-62366026D01*
X125133974Y-62994741D01*
X125955431Y-63335000D01*
X126844569Y-63335000D01*
X127666026Y-62994741D01*
X128260767Y-62400000D01*
X141852560Y-62400000D01*
X141852560Y-64000000D01*
X141901843Y-64247765D01*
X142042191Y-64457809D01*
X142252235Y-64598157D01*
X142500000Y-64647440D01*
X144100000Y-64647440D01*
X144347765Y-64598157D01*
X144557809Y-64457809D01*
X144698157Y-64247765D01*
X144706117Y-64207745D01*
X144971861Y-64207745D01*
X145045995Y-64453864D01*
X145583223Y-64646965D01*
X146153454Y-64619778D01*
X146554005Y-64453864D01*
X146628139Y-64207745D01*
X146463036Y-64042641D01*
X168402168Y-64042641D01*
X168878316Y-66436398D01*
X170234272Y-68465728D01*
X172263602Y-69821684D01*
X174657359Y-70297832D01*
X177051116Y-69821684D01*
X178568196Y-68808004D01*
X186420769Y-60955431D01*
X191765000Y-60955431D01*
X191765000Y-61844569D01*
X192105259Y-62666026D01*
X192733974Y-63294741D01*
X193555431Y-63635000D01*
X194444569Y-63635000D01*
X195266026Y-63294741D01*
X195894741Y-62666026D01*
X196235000Y-61844569D01*
X196235000Y-60955431D01*
X195894741Y-60133974D01*
X195266026Y-59505259D01*
X194444569Y-59165000D01*
X193555431Y-59165000D01*
X192733974Y-59505259D01*
X192105259Y-60133974D01*
X191765000Y-60955431D01*
X186420769Y-60955431D01*
X187908004Y-59468197D01*
X188921684Y-57951117D01*
X189397832Y-55557359D01*
X188921684Y-53163601D01*
X187565729Y-51134271D01*
X185536399Y-49778316D01*
X183142641Y-49302168D01*
X180748883Y-49778316D01*
X179231803Y-50791996D01*
X169891996Y-60131804D01*
X168878316Y-61648884D01*
X168402168Y-64042641D01*
X146463036Y-64042641D01*
X145800000Y-63379605D01*
X144971861Y-64207745D01*
X144706117Y-64207745D01*
X144744693Y-64013813D01*
X144792255Y-64028139D01*
X145620395Y-63200000D01*
X145979605Y-63200000D01*
X146807745Y-64028139D01*
X147053864Y-63954005D01*
X147246965Y-63416777D01*
X147219778Y-62846546D01*
X147053864Y-62445995D01*
X146807745Y-62371861D01*
X145979605Y-63200000D01*
X145620395Y-63200000D01*
X144792255Y-62371861D01*
X144744693Y-62386187D01*
X144706118Y-62192255D01*
X144971861Y-62192255D01*
X145800000Y-63020395D01*
X146628139Y-62192255D01*
X146554005Y-61946136D01*
X146016777Y-61753035D01*
X145446546Y-61780222D01*
X145045995Y-61946136D01*
X144971861Y-62192255D01*
X144706118Y-62192255D01*
X144698157Y-62152235D01*
X144557809Y-61942191D01*
X144347765Y-61801843D01*
X144100000Y-61752560D01*
X142500000Y-61752560D01*
X142252235Y-61801843D01*
X142042191Y-61942191D01*
X141901843Y-62152235D01*
X141852560Y-62400000D01*
X128260767Y-62400000D01*
X128294741Y-62366026D01*
X128635000Y-61544569D01*
X128635000Y-61000000D01*
X152152560Y-61000000D01*
X152152560Y-63200000D01*
X152201843Y-63447765D01*
X152342191Y-63657809D01*
X152552235Y-63798157D01*
X152800000Y-63847440D01*
X155000000Y-63847440D01*
X155247765Y-63798157D01*
X155457809Y-63657809D01*
X155598157Y-63447765D01*
X155647440Y-63200000D01*
X155647440Y-61000000D01*
X155598157Y-60752235D01*
X155457809Y-60542191D01*
X155327965Y-60455431D01*
X164065000Y-60455431D01*
X164065000Y-61344569D01*
X164405259Y-62166026D01*
X165033974Y-62794741D01*
X165855431Y-63135000D01*
X166744569Y-63135000D01*
X167566026Y-62794741D01*
X168194741Y-62166026D01*
X168535000Y-61344569D01*
X168535000Y-60455431D01*
X168194741Y-59633974D01*
X167566026Y-59005259D01*
X166744569Y-58665000D01*
X165855431Y-58665000D01*
X165033974Y-59005259D01*
X164405259Y-59633974D01*
X164065000Y-60455431D01*
X155327965Y-60455431D01*
X155247765Y-60401843D01*
X155000000Y-60352560D01*
X152800000Y-60352560D01*
X152552235Y-60401843D01*
X152342191Y-60542191D01*
X152201843Y-60752235D01*
X152152560Y-61000000D01*
X128635000Y-61000000D01*
X128635000Y-60655431D01*
X128294741Y-59833974D01*
X127666026Y-59205259D01*
X126844569Y-58865000D01*
X125955431Y-58865000D01*
X125133974Y-59205259D01*
X124505259Y-59833974D01*
X124165000Y-60655431D01*
X123257881Y-60655431D01*
X122908004Y-60131803D01*
X115112324Y-52336123D01*
X152210817Y-52336123D01*
X152490988Y-52952392D01*
X152985668Y-53414534D01*
X153503878Y-53629175D01*
X153773000Y-53511125D01*
X153773000Y-52067000D01*
X154027000Y-52067000D01*
X154027000Y-53511125D01*
X154296122Y-53629175D01*
X154814332Y-53414534D01*
X155309012Y-52952392D01*
X155411206Y-52727603D01*
X162852002Y-52727603D01*
X162852002Y-52952109D01*
X163340302Y-53440409D01*
X163573691Y-53537082D01*
X163826310Y-53537081D01*
X163987041Y-53470504D01*
X163981959Y-53496051D01*
X164097212Y-54075469D01*
X164425426Y-54566676D01*
X164916633Y-54894890D01*
X165349795Y-54981051D01*
X165642307Y-54981051D01*
X165848021Y-54940132D01*
X165778010Y-55292102D01*
X165893263Y-55871520D01*
X166221477Y-56362727D01*
X166712684Y-56690941D01*
X167145846Y-56777102D01*
X167438358Y-56777102D01*
X167871520Y-56690941D01*
X168362727Y-56362727D01*
X168690941Y-55871520D01*
X168806194Y-55292102D01*
X168690941Y-54712684D01*
X168362727Y-54221477D01*
X167871520Y-53893263D01*
X167438358Y-53807102D01*
X167145846Y-53807102D01*
X166940132Y-53848021D01*
X167010143Y-53496051D01*
X166894890Y-52916633D01*
X166566676Y-52425426D01*
X166075469Y-52097212D01*
X165642307Y-52011051D01*
X165460559Y-52011051D01*
X165537081Y-51826310D01*
X165537082Y-51573691D01*
X165440409Y-51340302D01*
X164952109Y-50852002D01*
X164727603Y-50852002D01*
X163879605Y-51700000D01*
X163893748Y-51714143D01*
X163714143Y-51893748D01*
X163700000Y-51879605D01*
X162852002Y-52727603D01*
X155411206Y-52727603D01*
X155589183Y-52336123D01*
X155471604Y-52067000D01*
X154027000Y-52067000D01*
X153773000Y-52067000D01*
X152328396Y-52067000D01*
X152210817Y-52336123D01*
X115112324Y-52336123D01*
X114602510Y-51826309D01*
X161862918Y-51826309D01*
X161959591Y-52059698D01*
X162447891Y-52547998D01*
X162672397Y-52547998D01*
X163520395Y-51700000D01*
X162672397Y-50852002D01*
X162447891Y-50852002D01*
X161959592Y-51340301D01*
X161862919Y-51573690D01*
X161862918Y-51826309D01*
X114602510Y-51826309D01*
X114320078Y-51543877D01*
X152210817Y-51543877D01*
X152328396Y-51813000D01*
X153773000Y-51813000D01*
X153773000Y-50368875D01*
X154027000Y-50368875D01*
X154027000Y-51813000D01*
X155471604Y-51813000D01*
X155589183Y-51543877D01*
X155309012Y-50927608D01*
X154814332Y-50465466D01*
X154771901Y-50447891D01*
X162852002Y-50447891D01*
X162852002Y-50672397D01*
X163700000Y-51520395D01*
X164547998Y-50672397D01*
X164547998Y-50447891D01*
X164059698Y-49959591D01*
X163826309Y-49862918D01*
X163573690Y-49862919D01*
X163340301Y-49959592D01*
X162852002Y-50447891D01*
X154771901Y-50447891D01*
X154296122Y-50250825D01*
X154027000Y-50368875D01*
X153773000Y-50368875D01*
X153503878Y-50250825D01*
X152985668Y-50465466D01*
X152490988Y-50927608D01*
X152210817Y-51543877D01*
X114320078Y-51543877D01*
X113568196Y-50791996D01*
X112051116Y-49778316D01*
X109657359Y-49302168D01*
X107263602Y-49778316D01*
X105234272Y-51134272D01*
X103878316Y-53163602D01*
X103402168Y-55557359D01*
X99308543Y-55557359D01*
X105759466Y-49185750D01*
X142115000Y-49185750D01*
X142115000Y-49876309D01*
X142211673Y-50109698D01*
X142390301Y-50288327D01*
X142623690Y-50385000D01*
X143314250Y-50385000D01*
X143473000Y-50226250D01*
X143473000Y-49027000D01*
X142273750Y-49027000D01*
X142115000Y-49185750D01*
X105759466Y-49185750D01*
X107037235Y-47923691D01*
X142115000Y-47923691D01*
X142115000Y-48614250D01*
X142273750Y-48773000D01*
X143473000Y-48773000D01*
X143473000Y-47573750D01*
X143727000Y-47573750D01*
X143727000Y-48773000D01*
X143747000Y-48773000D01*
X143747000Y-49027000D01*
X143727000Y-49027000D01*
X143727000Y-50226250D01*
X143885750Y-50385000D01*
X144576310Y-50385000D01*
X144809699Y-50288327D01*
X144988327Y-50109698D01*
X145054904Y-49948967D01*
X145069375Y-49970625D01*
X145560582Y-50298839D01*
X145993744Y-50385000D01*
X146286256Y-50385000D01*
X146719418Y-50298839D01*
X147210625Y-49970625D01*
X147410000Y-49672239D01*
X147609375Y-49970625D01*
X148100582Y-50298839D01*
X148533744Y-50385000D01*
X148826256Y-50385000D01*
X149259418Y-50298839D01*
X149750625Y-49970625D01*
X150078839Y-49479418D01*
X150194092Y-48900000D01*
X150078839Y-48320582D01*
X149750625Y-47829375D01*
X149259418Y-47501161D01*
X148826256Y-47415000D01*
X148533744Y-47415000D01*
X148100582Y-47501161D01*
X147609375Y-47829375D01*
X147410000Y-48127761D01*
X147210625Y-47829375D01*
X146719418Y-47501161D01*
X146286256Y-47415000D01*
X145993744Y-47415000D01*
X145560582Y-47501161D01*
X145069375Y-47829375D01*
X145054904Y-47851033D01*
X144988327Y-47690302D01*
X144809699Y-47511673D01*
X144576310Y-47415000D01*
X143885750Y-47415000D01*
X143727000Y-47573750D01*
X143473000Y-47573750D01*
X143314250Y-47415000D01*
X142623690Y-47415000D01*
X142390301Y-47511673D01*
X142211673Y-47690302D01*
X142115000Y-47923691D01*
X107037235Y-47923691D01*
X110852404Y-44155431D01*
X112665000Y-44155431D01*
X112665000Y-45044569D01*
X113005259Y-45866026D01*
X113633974Y-46494741D01*
X114455431Y-46835000D01*
X115344569Y-46835000D01*
X116166026Y-46494741D01*
X116794741Y-45866026D01*
X117135000Y-45044569D01*
X117135000Y-44555431D01*
X175365000Y-44555431D01*
X175365000Y-45444569D01*
X175705259Y-46266026D01*
X176333974Y-46894741D01*
X177155431Y-47235000D01*
X178044569Y-47235000D01*
X178866026Y-46894741D01*
X179494741Y-46266026D01*
X179835000Y-45444569D01*
X179835000Y-44555431D01*
X179494741Y-43733974D01*
X178866026Y-43105259D01*
X178044569Y-42765000D01*
X177155431Y-42765000D01*
X176333974Y-43105259D01*
X175705259Y-43733974D01*
X175365000Y-44555431D01*
X117135000Y-44555431D01*
X117135000Y-44155431D01*
X116794741Y-43333974D01*
X116166026Y-42705259D01*
X115344569Y-42365000D01*
X114455431Y-42365000D01*
X113633974Y-42705259D01*
X113005259Y-43333974D01*
X112665000Y-44155431D01*
X110852404Y-44155431D01*
X116554810Y-38523138D01*
X116582595Y-38482108D01*
X116592563Y-38433568D01*
X116591421Y-38427634D01*
X116599139Y-38427647D01*
X116599466Y-38427582D01*
X116599794Y-38427648D01*
G36*
X163629375Y-99750625D02*
X163927761Y-99950000D01*
X163629375Y-100149375D01*
X163430000Y-100447761D01*
X163230625Y-100149375D01*
X162911522Y-99936157D01*
X163041358Y-99875183D01*
X163428647Y-99450214D01*
X163629375Y-99750625D01*
X163629375Y-99750625D01*
G37*
X163629375Y-99750625D02*
X163927761Y-99950000D01*
X163629375Y-100149375D01*
X163430000Y-100447761D01*
X163230625Y-100149375D01*
X162911522Y-99936157D01*
X163041358Y-99875183D01*
X163428647Y-99450214D01*
X163629375Y-99750625D01*
G36*
X112429375Y-92130625D02*
X112748478Y-92343843D01*
X112618642Y-92404817D01*
X112230000Y-92831271D01*
X111841358Y-92404817D01*
X111711522Y-92343843D01*
X112030625Y-92130625D01*
X112230000Y-91832239D01*
X112429375Y-92130625D01*
X112429375Y-92130625D01*
G37*
X112429375Y-92130625D02*
X112748478Y-92343843D01*
X112618642Y-92404817D01*
X112230000Y-92831271D01*
X111841358Y-92404817D01*
X111711522Y-92343843D01*
X112030625Y-92130625D01*
X112230000Y-91832239D01*
X112429375Y-92130625D01*
G36*
X112618642Y-89715183D02*
X112748478Y-89776157D01*
X112429375Y-89989375D01*
X112230000Y-90287761D01*
X112030625Y-89989375D01*
X111732239Y-89790000D01*
X112030625Y-89590625D01*
X112231353Y-89290214D01*
X112618642Y-89715183D01*
X112618642Y-89715183D01*
G37*
X112618642Y-89715183D02*
X112748478Y-89776157D01*
X112429375Y-89989375D01*
X112230000Y-90287761D01*
X112030625Y-89989375D01*
X111732239Y-89790000D01*
X112030625Y-89590625D01*
X112231353Y-89290214D01*
X112618642Y-89715183D01*
G04 #@! TD*
M02*
