M48
;DRILL file {KiCad 5.0.2-bee76a0~70~ubuntu16.04.1} date mer 15 set 2021 08:57:44 CEST
;FORMAT={-:-/ absolute / metric / decimal}
FMAT,2
METRIC,TZ
T1C0.400
T2C0.762
T3C0.800
T4C1.000
T5C1.100
T6C3.000
T7C10.000
%
G90
G05
T1
X124.6Y-72.7
X130.7Y-65.3
X132.5Y-122.
X135.1Y-101.7
X135.2Y-97.2
X137.Y-97.3
X137.3Y-102.9
X156.9Y-93.4
X166.6Y-108.8
T2
X140.6Y-80.9
X140.6Y-83.44
X140.6Y-85.98
X140.6Y-88.52
X140.6Y-91.06
X140.6Y-93.6
X140.6Y-96.14
X140.6Y-98.68
X140.6Y-101.22
X140.6Y-103.76
T3
X143.3Y-63.2
X145.8Y-63.2
T4
X125.708Y-129.908
X127.504Y-131.704
X129.3Y-133.5
X163.7Y-51.7
X165.496Y-53.496
X167.292Y-55.292
X102.67Y-82.152
X102.67Y-84.692
X102.67Y-87.232
X143.6Y-48.9
X146.14Y-48.9
X148.68Y-48.9
X129.06Y-80.9
X129.06Y-83.44
X129.06Y-85.98
X129.06Y-88.52
X129.06Y-91.06
X129.06Y-93.6
X129.06Y-96.14
X129.06Y-98.68
X129.06Y-101.22
X129.06Y-103.76
X131.6Y-80.9
X131.6Y-83.44
X131.6Y-85.98
X131.6Y-88.52
X131.6Y-91.06
X131.6Y-93.6
X131.6Y-96.14
X131.6Y-98.68
X131.6Y-101.22
X131.6Y-103.76
X105.3Y-74.7
X107.096Y-72.904
X108.892Y-71.108
X162.16Y-80.9
X162.16Y-83.44
X162.16Y-85.98
X162.16Y-88.52
X162.16Y-91.06
X162.16Y-93.6
X162.16Y-96.14
X162.16Y-98.68
X162.16Y-101.22
X162.16Y-103.76
X164.7Y-80.9
X164.7Y-83.44
X164.7Y-85.98
X164.7Y-88.52
X164.7Y-91.06
X164.7Y-93.6
X164.7Y-96.14
X164.7Y-98.68
X164.7Y-101.22
X164.7Y-103.76
X184.008Y-113.392
X185.804Y-111.596
X187.6Y-109.8
X110.96Y-80.9
X110.96Y-83.44
X110.96Y-85.98
X110.96Y-88.52
X110.96Y-91.06
X110.96Y-93.6
X110.96Y-96.14
X110.96Y-98.68
X110.96Y-101.22
X110.96Y-103.76
X113.5Y-80.9
X113.5Y-83.44
X113.5Y-85.98
X113.5Y-88.52
X113.5Y-91.06
X113.5Y-93.6
X113.5Y-96.14
X113.5Y-98.68
X113.5Y-101.22
X113.5Y-103.76
X179.86Y-80.9
X179.86Y-83.44
X179.86Y-85.98
X179.86Y-88.52
X179.86Y-91.06
X179.86Y-93.6
X179.86Y-96.14
X179.86Y-98.68
X179.86Y-101.22
X179.86Y-103.76
X182.4Y-80.9
X182.4Y-83.44
X182.4Y-85.98
X182.4Y-88.52
X182.4Y-91.06
X182.4Y-93.6
X182.4Y-96.14
X182.4Y-98.68
X182.4Y-101.22
X182.4Y-103.76
X102.67Y-97.252
X102.67Y-99.792
X102.67Y-102.332
X158.502Y-134.095
X161.002Y-134.095
T5
X153.9Y-51.94
X153.9Y-62.1
T6
X98.5Y-61.
X99.1Y-123.6
X114.9Y-44.6
X115.1Y-72.4
X115.2Y-112.4
X115.5Y-140.
X126.4Y-61.1
X126.7Y-123.9
X166.3Y-60.9
X166.8Y-123.7
X177.6Y-45.
X177.8Y-72.4
X178.Y-139.7
X178.3Y-112.2
X194.Y-61.4
X194.4Y-123.3
X152.1Y-82.
X152.1Y-102.6
T7
X118.143Y-64.043G85X109.657Y-55.557
G05
X118.243Y-120.357G85X109.757Y-128.843
G05
X174.657Y-64.043G85X183.143Y-55.557
G05
X174.857Y-120.757G85X183.343Y-129.243
G05
T0
M30
