G04 #@! TF.GenerationSoftware,KiCad,Pcbnew,5.0.2-bee76a0~70~ubuntu16.04.1*
G04 #@! TF.CreationDate,2021-08-14T16:57:29+02:00*
G04 #@! TF.ProjectId,axis2,61786973-322e-46b6-9963-61645f706362,rev?*
G04 #@! TF.SameCoordinates,Original*
G04 #@! TF.FileFunction,Copper,L2,Bot*
G04 #@! TF.FilePolarity,Positive*
%FSLAX46Y46*%
G04 Gerber Fmt 4.6, Leading zero omitted, Abs format (unit mm)*
G04 Created by KiCad (PCBNEW 5.0.2-bee76a0~70~ubuntu16.04.1) date sab 14 ago 2021 16:57:29 CEST*
%MOMM*%
%LPD*%
G01*
G04 APERTURE LIST*
G04 #@! TA.AperFunction,ComponentPad*
%ADD10C,3.200000*%
G04 #@! TD*
G04 #@! TA.AperFunction,ComponentPad*
%ADD11C,1.600000*%
G04 #@! TD*
G04 #@! TA.AperFunction,ComponentPad*
%ADD12R,1.600000X1.600000*%
G04 #@! TD*
G04 #@! TA.AperFunction,ComponentPad*
%ADD13R,2.200000X2.200000*%
G04 #@! TD*
G04 #@! TA.AperFunction,ComponentPad*
%ADD14O,2.200000X2.200000*%
G04 #@! TD*
G04 #@! TA.AperFunction,ComponentPad*
%ADD15O,1.700000X1.700000*%
G04 #@! TD*
G04 #@! TA.AperFunction,ComponentPad*
%ADD16R,1.700000X1.700000*%
G04 #@! TD*
G04 #@! TA.AperFunction,Conductor*
%ADD17C,0.100000*%
G04 #@! TD*
G04 #@! TA.AperFunction,ComponentPad*
%ADD18C,1.700000*%
G04 #@! TD*
G04 #@! TA.AperFunction,ComponentPad*
%ADD19O,1.700000X2.000000*%
G04 #@! TD*
G04 #@! TA.AperFunction,ComponentPad*
%ADD20O,1.800000X4.000000*%
G04 #@! TD*
G04 #@! TA.AperFunction,ComponentPad*
%ADD21O,4.000000X1.800000*%
G04 #@! TD*
G04 #@! TA.AperFunction,ComponentPad*
%ADD22R,4.400000X1.800000*%
G04 #@! TD*
G04 #@! TA.AperFunction,ComponentPad*
%ADD23C,3.000000*%
G04 #@! TD*
G04 #@! TA.AperFunction,Conductor*
%ADD24C,1.700000*%
G04 #@! TD*
G04 #@! TA.AperFunction,ComponentPad*
%ADD25C,1.524000*%
G04 #@! TD*
G04 #@! TA.AperFunction,ViaPad*
%ADD26C,0.800000*%
G04 #@! TD*
G04 #@! TA.AperFunction,Conductor*
%ADD27C,0.400000*%
G04 #@! TD*
G04 #@! TA.AperFunction,Conductor*
%ADD28C,0.250000*%
G04 #@! TD*
G04 APERTURE END LIST*
D10*
G04 #@! TO.P,U3,14*
G04 #@! TO.N,N/C*
X166400000Y-60900000D03*
G04 #@! TO.P,U3,13*
X177900000Y-72400000D03*
G04 #@! TO.P,U3,16*
X115200000Y-72400000D03*
G04 #@! TO.P,U3,15*
X126500000Y-61100000D03*
G04 #@! TO.P,U3,12*
X178400000Y-112200000D03*
G04 #@! TO.P,U3,11*
X166900000Y-123700000D03*
G04 #@! TO.P,U3,10*
X126800000Y-123900000D03*
G04 #@! TO.P,U3,9*
X115300000Y-112400000D03*
G04 #@! TO.P,U3,7*
X194500000Y-123300000D03*
G04 #@! TO.P,U3,6*
X115000000Y-44600000D03*
G04 #@! TO.P,U3,5*
X98600000Y-61000000D03*
G04 #@! TO.P,U3,8*
X178100000Y-139700000D03*
G04 #@! TO.P,U3,3*
X99200000Y-123600000D03*
G04 #@! TO.P,U3,4*
X115600000Y-140000000D03*
G04 #@! TO.P,U3,2*
X194100000Y-61400000D03*
G04 #@! TO.P,U3,1*
X177700000Y-45000000D03*
G04 #@! TD*
D11*
G04 #@! TO.P,C1,2*
G04 #@! TO.N,GND*
X154500000Y-122300000D03*
D12*
G04 #@! TO.P,C1,1*
G04 #@! TO.N,+12V*
X152000000Y-122300000D03*
G04 #@! TD*
G04 #@! TO.P,C2,1*
G04 #@! TO.N,+5V*
X143300000Y-63200000D03*
D11*
G04 #@! TO.P,C2,2*
G04 #@! TO.N,GND*
X145800000Y-63200000D03*
G04 #@! TD*
D13*
G04 #@! TO.P,D1,1*
G04 #@! TO.N,+5V*
X153900000Y-62100000D03*
D14*
G04 #@! TO.P,D1,2*
G04 #@! TO.N,GND*
X153900000Y-51940000D03*
G04 #@! TD*
D15*
G04 #@! TO.P,J1,20*
G04 #@! TO.N,Net-(J1-Pad20)*
X131700000Y-103760000D03*
G04 #@! TO.P,J1,19*
G04 #@! TO.N,Net-(J1-Pad19)*
X129160000Y-103760000D03*
G04 #@! TO.P,J1,18*
G04 #@! TO.N,Net-(J1-Pad18)*
X131700000Y-101220000D03*
G04 #@! TO.P,J1,17*
G04 #@! TO.N,Net-(J1-Pad17)*
X129160000Y-101220000D03*
G04 #@! TO.P,J1,16*
G04 #@! TO.N,GND*
X131700000Y-98680000D03*
G04 #@! TO.P,J1,15*
G04 #@! TO.N,MOSI*
X129160000Y-98680000D03*
G04 #@! TO.P,J1,14*
G04 #@! TO.N,SCL*
X131700000Y-96140000D03*
G04 #@! TO.P,J1,13*
G04 #@! TO.N,MISO*
X129160000Y-96140000D03*
G04 #@! TO.P,J1,12*
G04 #@! TO.N,Net-(J1-Pad12)*
X131700000Y-93600000D03*
G04 #@! TO.P,J1,11*
G04 #@! TO.N,Net-(J1-Pad11)*
X129160000Y-93600000D03*
G04 #@! TO.P,J1,10*
G04 #@! TO.N,Net-(J1-Pad10)*
X131700000Y-91060000D03*
G04 #@! TO.P,J1,9*
G04 #@! TO.N,Net-(J1-Pad9)*
X129160000Y-91060000D03*
G04 #@! TO.P,J1,8*
G04 #@! TO.N,Net-(J1-Pad8)*
X131700000Y-88520000D03*
G04 #@! TO.P,J1,7*
G04 #@! TO.N,Net-(J1-Pad7)*
X129160000Y-88520000D03*
G04 #@! TO.P,J1,6*
G04 #@! TO.N,Net-(J1-Pad6)*
X131700000Y-85980000D03*
G04 #@! TO.P,J1,5*
G04 #@! TO.N,Net-(J1-Pad5)*
X129160000Y-85980000D03*
G04 #@! TO.P,J1,4*
G04 #@! TO.N,Net-(J1-Pad4)*
X131700000Y-83440000D03*
G04 #@! TO.P,J1,3*
G04 #@! TO.N,Net-(J1-Pad3)*
X129160000Y-83440000D03*
G04 #@! TO.P,J1,2*
G04 #@! TO.N,GND*
X131700000Y-80900000D03*
D16*
G04 #@! TO.P,J1,1*
G04 #@! TO.N,+3V3*
X129160000Y-80900000D03*
G04 #@! TD*
G04 #@! TO.P,J2,1*
G04 #@! TO.N,GND*
X162000000Y-80900000D03*
D15*
G04 #@! TO.P,J2,2*
G04 #@! TO.N,RCS*
X164540000Y-80900000D03*
G04 #@! TO.P,J2,3*
G04 #@! TO.N,M4S*
X162000000Y-83440000D03*
G04 #@! TO.P,J2,4*
G04 #@! TO.N,Net-(J17-Pad4)*
X164540000Y-83440000D03*
G04 #@! TO.P,J2,5*
G04 #@! TO.N,Net-(J17-Pad5)*
X162000000Y-85980000D03*
G04 #@! TO.P,J2,6*
G04 #@! TO.N,M3S*
X164540000Y-85980000D03*
G04 #@! TO.P,J2,7*
G04 #@! TO.N,GND*
X162000000Y-88520000D03*
G04 #@! TO.P,J2,8*
G04 #@! TO.N,M1S*
X164540000Y-88520000D03*
G04 #@! TO.P,J2,9*
G04 #@! TO.N,M2S*
X162000000Y-91060000D03*
G04 #@! TO.P,J2,10*
G04 #@! TO.N,M6S*
X164540000Y-91060000D03*
G04 #@! TO.P,J2,11*
G04 #@! TO.N,GND*
X162000000Y-93600000D03*
G04 #@! TO.P,J2,12*
X164540000Y-93600000D03*
G04 #@! TO.P,J2,13*
G04 #@! TO.N,M5S*
X162000000Y-96140000D03*
G04 #@! TO.P,J2,14*
G04 #@! TO.N,Net-(J17-Pad14)*
X164540000Y-96140000D03*
G04 #@! TO.P,J2,15*
G04 #@! TO.N,INT*
X162000000Y-98680000D03*
G04 #@! TO.P,J2,16*
G04 #@! TO.N,NCS*
X164540000Y-98680000D03*
G04 #@! TO.P,J2,17*
G04 #@! TO.N,Net-(J17-Pad17)*
X162000000Y-101220000D03*
G04 #@! TO.P,J2,18*
G04 #@! TO.N,Net-(J17-Pad18)*
X164540000Y-101220000D03*
G04 #@! TO.P,J2,19*
G04 #@! TO.N,Net-(J17-Pad19)*
X162000000Y-103760000D03*
G04 #@! TO.P,J2,20*
G04 #@! TO.N,+5V*
X164540000Y-103760000D03*
G04 #@! TD*
D17*
G04 #@! TO.N,+5V*
G04 #@! TO.C,J3*
G36*
X140424504Y-121101204D02*
X140448773Y-121104804D01*
X140472571Y-121110765D01*
X140495671Y-121119030D01*
X140517849Y-121129520D01*
X140538893Y-121142133D01*
X140558598Y-121156747D01*
X140576777Y-121173223D01*
X140593253Y-121191402D01*
X140607867Y-121211107D01*
X140620480Y-121232151D01*
X140630970Y-121254329D01*
X140639235Y-121277429D01*
X140645196Y-121301227D01*
X140648796Y-121325496D01*
X140650000Y-121350000D01*
X140650000Y-122850000D01*
X140648796Y-122874504D01*
X140645196Y-122898773D01*
X140639235Y-122922571D01*
X140630970Y-122945671D01*
X140620480Y-122967849D01*
X140607867Y-122988893D01*
X140593253Y-123008598D01*
X140576777Y-123026777D01*
X140558598Y-123043253D01*
X140538893Y-123057867D01*
X140517849Y-123070480D01*
X140495671Y-123080970D01*
X140472571Y-123089235D01*
X140448773Y-123095196D01*
X140424504Y-123098796D01*
X140400000Y-123100000D01*
X139200000Y-123100000D01*
X139175496Y-123098796D01*
X139151227Y-123095196D01*
X139127429Y-123089235D01*
X139104329Y-123080970D01*
X139082151Y-123070480D01*
X139061107Y-123057867D01*
X139041402Y-123043253D01*
X139023223Y-123026777D01*
X139006747Y-123008598D01*
X138992133Y-122988893D01*
X138979520Y-122967849D01*
X138969030Y-122945671D01*
X138960765Y-122922571D01*
X138954804Y-122898773D01*
X138951204Y-122874504D01*
X138950000Y-122850000D01*
X138950000Y-121350000D01*
X138951204Y-121325496D01*
X138954804Y-121301227D01*
X138960765Y-121277429D01*
X138969030Y-121254329D01*
X138979520Y-121232151D01*
X138992133Y-121211107D01*
X139006747Y-121191402D01*
X139023223Y-121173223D01*
X139041402Y-121156747D01*
X139061107Y-121142133D01*
X139082151Y-121129520D01*
X139104329Y-121119030D01*
X139127429Y-121110765D01*
X139151227Y-121104804D01*
X139175496Y-121101204D01*
X139200000Y-121100000D01*
X140400000Y-121100000D01*
X140424504Y-121101204D01*
X140424504Y-121101204D01*
G37*
D18*
G04 #@! TD*
G04 #@! TO.P,J3,1*
G04 #@! TO.N,+5V*
X139800000Y-122100000D03*
D19*
G04 #@! TO.P,J3,2*
G04 #@! TO.N,GND*
X142300000Y-122100000D03*
G04 #@! TD*
D20*
G04 #@! TO.P,J4,3*
G04 #@! TO.N,N/C*
X151700000Y-134800000D03*
D21*
G04 #@! TO.P,J4,2*
G04 #@! TO.N,GND*
X146900000Y-137600000D03*
D22*
G04 #@! TO.P,J4,1*
G04 #@! TO.N,+12V*
X146900000Y-131800000D03*
G04 #@! TD*
D23*
G04 #@! TO.P,J5,2*
G04 #@! TO.N,GND*
X181914214Y-58206030D03*
D17*
G04 #@! TD*
G04 #@! TO.N,GND*
G04 #@! TO.C,J5*
G36*
X182798097Y-55200826D02*
X184919418Y-57322147D01*
X181030331Y-61211234D01*
X178909010Y-59089913D01*
X182798097Y-55200826D01*
X182798097Y-55200826D01*
G37*
D23*
G04 #@! TO.P,J5,1*
G04 #@! TO.N,+12V*
X176734656Y-62282501D03*
D17*
G04 #@! TD*
G04 #@! TO.N,+12V*
G04 #@! TO.C,J5*
G36*
X173729452Y-61398618D02*
X175850773Y-59277297D01*
X179739860Y-63166384D01*
X177618539Y-65287705D01*
X173729452Y-61398618D01*
X173729452Y-61398618D01*
G37*
D23*
G04 #@! TO.P,J6,1*
G04 #@! TO.N,+12V*
X116376471Y-62079558D03*
D17*
G04 #@! TD*
G04 #@! TO.N,+12V*
G04 #@! TO.C,J6*
G36*
X115492588Y-65084762D02*
X113371267Y-62963441D01*
X117260354Y-59074354D01*
X119381675Y-61195675D01*
X115492588Y-65084762D01*
X115492588Y-65084762D01*
G37*
D23*
G04 #@! TO.P,J6,2*
G04 #@! TO.N,GND*
X112300000Y-56900000D03*
D17*
G04 #@! TD*
G04 #@! TO.N,GND*
G04 #@! TO.C,J6*
G36*
X109294796Y-56016117D02*
X111416117Y-53894796D01*
X115305204Y-57783883D01*
X113183883Y-59905204D01*
X109294796Y-56016117D01*
X109294796Y-56016117D01*
G37*
D18*
G04 #@! TO.P,J7,1*
G04 #@! TO.N,GND*
X167500000Y-54500000D03*
D17*
G04 #@! TD*
G04 #@! TO.N,GND*
G04 #@! TO.C,J7*
G36*
X167500000Y-55702082D02*
X166297918Y-54500000D01*
X167500000Y-53297918D01*
X168702082Y-54500000D01*
X167500000Y-55702082D01*
X167500000Y-55702082D01*
G37*
D18*
G04 #@! TO.P,J7,2*
G04 #@! TO.N,+5V*
X169296051Y-56296051D03*
D24*
G04 #@! TD*
G04 #@! TO.N,+5V*
G04 #@! TO.C,J7*
X169296051Y-56296051D02*
X169296051Y-56296051D01*
D18*
G04 #@! TO.P,J7,3*
G04 #@! TO.N,M1S*
X171092102Y-58092102D03*
D24*
G04 #@! TD*
G04 #@! TO.N,M1S*
G04 #@! TO.C,J7*
X171092102Y-58092102D02*
X171092102Y-58092102D01*
D18*
G04 #@! TO.P,J8,3*
G04 #@! TO.N,M2S*
X111692102Y-68107898D03*
D24*
G04 #@! TD*
G04 #@! TO.N,M2S*
G04 #@! TO.C,J8*
X111692102Y-68107898D02*
X111692102Y-68107898D01*
D18*
G04 #@! TO.P,J8,2*
G04 #@! TO.N,+5V*
X109896051Y-69903949D03*
D24*
G04 #@! TD*
G04 #@! TO.N,+5V*
G04 #@! TO.C,J8*
X109896051Y-69903949D02*
X109896051Y-69903949D01*
D18*
G04 #@! TO.P,J8,1*
G04 #@! TO.N,GND*
X108100000Y-71700000D03*
D17*
G04 #@! TD*
G04 #@! TO.N,GND*
G04 #@! TO.C,J8*
G36*
X109302082Y-71700000D02*
X108100000Y-72902082D01*
X106897918Y-71700000D01*
X108100000Y-70497918D01*
X109302082Y-71700000D01*
X109302082Y-71700000D01*
G37*
D16*
G04 #@! TO.P,J9,1*
G04 #@! TO.N,GND*
X143600000Y-48900000D03*
D15*
G04 #@! TO.P,J9,2*
G04 #@! TO.N,+5V*
X146140000Y-48900000D03*
G04 #@! TO.P,J9,3*
G04 #@! TO.N,RCS*
X148680000Y-48900000D03*
G04 #@! TD*
D23*
G04 #@! TO.P,J10,2*
G04 #@! TO.N,GND*
X180900000Y-127400000D03*
D17*
G04 #@! TD*
G04 #@! TO.N,GND*
G04 #@! TO.C,J10*
G36*
X183905204Y-128283883D02*
X181783883Y-130405204D01*
X177894796Y-126516117D01*
X180016117Y-124394796D01*
X183905204Y-128283883D01*
X183905204Y-128283883D01*
G37*
D23*
G04 #@! TO.P,J10,1*
G04 #@! TO.N,+12V*
X176823529Y-122220442D03*
D17*
G04 #@! TD*
G04 #@! TO.N,+12V*
G04 #@! TO.C,J10*
G36*
X177707412Y-119215238D02*
X179828733Y-121336559D01*
X175939646Y-125225646D01*
X173818325Y-123104325D01*
X177707412Y-119215238D01*
X177707412Y-119215238D01*
G37*
D23*
G04 #@! TO.P,J11,1*
G04 #@! TO.N,+12V*
X115865344Y-122217499D03*
D17*
G04 #@! TD*
G04 #@! TO.N,+12V*
G04 #@! TO.C,J11*
G36*
X118870548Y-123101382D02*
X116749227Y-125222703D01*
X112860140Y-121333616D01*
X114981461Y-119212295D01*
X118870548Y-123101382D01*
X118870548Y-123101382D01*
G37*
D23*
G04 #@! TO.P,J11,2*
G04 #@! TO.N,GND*
X110685786Y-126293970D03*
D17*
G04 #@! TD*
G04 #@! TO.N,GND*
G04 #@! TO.C,J11*
G36*
X109801903Y-129299174D02*
X107680582Y-127177853D01*
X111569669Y-123288766D01*
X113690990Y-125410087D01*
X109801903Y-129299174D01*
X109801903Y-129299174D01*
G37*
D18*
G04 #@! TO.P,J12,3*
G04 #@! TO.N,M3S*
X122107898Y-126807898D03*
D24*
G04 #@! TD*
G04 #@! TO.N,M3S*
G04 #@! TO.C,J12*
X122107898Y-126807898D02*
X122107898Y-126807898D01*
D18*
G04 #@! TO.P,J12,2*
G04 #@! TO.N,+5V*
X123903949Y-128603949D03*
D24*
G04 #@! TD*
G04 #@! TO.N,+5V*
G04 #@! TO.C,J12*
X123903949Y-128603949D02*
X123903949Y-128603949D01*
D18*
G04 #@! TO.P,J12,1*
G04 #@! TO.N,GND*
X125700000Y-130400000D03*
D17*
G04 #@! TD*
G04 #@! TO.N,GND*
G04 #@! TO.C,J12*
G36*
X125700000Y-129197918D02*
X126902082Y-130400000D01*
X125700000Y-131602082D01*
X124497918Y-130400000D01*
X125700000Y-129197918D01*
X125700000Y-129197918D01*
G37*
D15*
G04 #@! TO.P,J13,3*
G04 #@! TO.N,M5S*
X190400000Y-86680000D03*
G04 #@! TO.P,J13,2*
G04 #@! TO.N,+5V*
X190400000Y-84140000D03*
D16*
G04 #@! TO.P,J13,1*
G04 #@! TO.N,GND*
X190400000Y-81600000D03*
G04 #@! TD*
D18*
G04 #@! TO.P,J14,3*
G04 #@! TO.N,M4S*
X181507898Y-116692102D03*
D24*
G04 #@! TD*
G04 #@! TO.N,M4S*
G04 #@! TO.C,J14*
X181507898Y-116692102D02*
X181507898Y-116692102D01*
D18*
G04 #@! TO.P,J14,2*
G04 #@! TO.N,+5V*
X183303949Y-114896051D03*
D24*
G04 #@! TD*
G04 #@! TO.N,+5V*
G04 #@! TO.C,J14*
X183303949Y-114896051D02*
X183303949Y-114896051D01*
D18*
G04 #@! TO.P,J14,1*
G04 #@! TO.N,GND*
X185100000Y-113100000D03*
D17*
G04 #@! TD*
G04 #@! TO.N,GND*
G04 #@! TO.C,J14*
G36*
X183897918Y-113100000D02*
X185100000Y-111897918D01*
X186302082Y-113100000D01*
X185100000Y-114302082D01*
X183897918Y-113100000D01*
X183897918Y-113100000D01*
G37*
D16*
G04 #@! TO.P,J15,1*
G04 #@! TO.N,GND*
X190400000Y-96700000D03*
D15*
G04 #@! TO.P,J15,2*
G04 #@! TO.N,+5V*
X190400000Y-99240000D03*
G04 #@! TO.P,J15,3*
G04 #@! TO.N,M6S*
X190400000Y-101780000D03*
G04 #@! TD*
G04 #@! TO.P,J16,20*
G04 #@! TO.N,Net-(J1-Pad20)*
X113340000Y-103760000D03*
G04 #@! TO.P,J16,19*
G04 #@! TO.N,Net-(J1-Pad19)*
X110800000Y-103760000D03*
G04 #@! TO.P,J16,18*
G04 #@! TO.N,Net-(J1-Pad18)*
X113340000Y-101220000D03*
G04 #@! TO.P,J16,17*
G04 #@! TO.N,Net-(J1-Pad17)*
X110800000Y-101220000D03*
G04 #@! TO.P,J16,16*
G04 #@! TO.N,GND*
X113340000Y-98680000D03*
G04 #@! TO.P,J16,15*
G04 #@! TO.N,MOSI*
X110800000Y-98680000D03*
G04 #@! TO.P,J16,14*
G04 #@! TO.N,SCL*
X113340000Y-96140000D03*
G04 #@! TO.P,J16,13*
G04 #@! TO.N,MISO*
X110800000Y-96140000D03*
G04 #@! TO.P,J16,12*
G04 #@! TO.N,Net-(J1-Pad12)*
X113340000Y-93600000D03*
G04 #@! TO.P,J16,11*
G04 #@! TO.N,Net-(J1-Pad11)*
X110800000Y-93600000D03*
G04 #@! TO.P,J16,10*
G04 #@! TO.N,Net-(J1-Pad10)*
X113340000Y-91060000D03*
G04 #@! TO.P,J16,9*
G04 #@! TO.N,Net-(J1-Pad9)*
X110800000Y-91060000D03*
G04 #@! TO.P,J16,8*
G04 #@! TO.N,Net-(J1-Pad8)*
X113340000Y-88520000D03*
G04 #@! TO.P,J16,7*
G04 #@! TO.N,Net-(J1-Pad7)*
X110800000Y-88520000D03*
G04 #@! TO.P,J16,6*
G04 #@! TO.N,Net-(J1-Pad6)*
X113340000Y-85980000D03*
G04 #@! TO.P,J16,5*
G04 #@! TO.N,Net-(J1-Pad5)*
X110800000Y-85980000D03*
G04 #@! TO.P,J16,4*
G04 #@! TO.N,Net-(J1-Pad4)*
X113340000Y-83440000D03*
G04 #@! TO.P,J16,3*
G04 #@! TO.N,Net-(J1-Pad3)*
X110800000Y-83440000D03*
G04 #@! TO.P,J16,2*
G04 #@! TO.N,GND*
X113340000Y-80900000D03*
D16*
G04 #@! TO.P,J16,1*
G04 #@! TO.N,+3V3*
X110800000Y-80900000D03*
G04 #@! TD*
D15*
G04 #@! TO.P,J17,20*
G04 #@! TO.N,+5V*
X182340000Y-103760000D03*
G04 #@! TO.P,J17,19*
G04 #@! TO.N,Net-(J17-Pad19)*
X179800000Y-103760000D03*
G04 #@! TO.P,J17,18*
G04 #@! TO.N,Net-(J17-Pad18)*
X182340000Y-101220000D03*
G04 #@! TO.P,J17,17*
G04 #@! TO.N,Net-(J17-Pad17)*
X179800000Y-101220000D03*
G04 #@! TO.P,J17,16*
G04 #@! TO.N,NCS*
X182340000Y-98680000D03*
G04 #@! TO.P,J17,15*
G04 #@! TO.N,INT*
X179800000Y-98680000D03*
G04 #@! TO.P,J17,14*
G04 #@! TO.N,Net-(J17-Pad14)*
X182340000Y-96140000D03*
G04 #@! TO.P,J17,13*
G04 #@! TO.N,M5S*
X179800000Y-96140000D03*
G04 #@! TO.P,J17,12*
G04 #@! TO.N,GND*
X182340000Y-93600000D03*
G04 #@! TO.P,J17,11*
X179800000Y-93600000D03*
G04 #@! TO.P,J17,10*
G04 #@! TO.N,M6S*
X182340000Y-91060000D03*
G04 #@! TO.P,J17,9*
G04 #@! TO.N,M2S*
X179800000Y-91060000D03*
G04 #@! TO.P,J17,8*
G04 #@! TO.N,M1S*
X182340000Y-88520000D03*
G04 #@! TO.P,J17,7*
G04 #@! TO.N,GND*
X179800000Y-88520000D03*
G04 #@! TO.P,J17,6*
G04 #@! TO.N,M3S*
X182340000Y-85980000D03*
G04 #@! TO.P,J17,5*
G04 #@! TO.N,Net-(J17-Pad5)*
X179800000Y-85980000D03*
G04 #@! TO.P,J17,4*
G04 #@! TO.N,Net-(J17-Pad4)*
X182340000Y-83440000D03*
G04 #@! TO.P,J17,3*
G04 #@! TO.N,M4S*
X179800000Y-83440000D03*
G04 #@! TO.P,J17,2*
G04 #@! TO.N,RCS*
X182340000Y-80900000D03*
D16*
G04 #@! TO.P,J17,1*
G04 #@! TO.N,GND*
X179800000Y-80900000D03*
G04 #@! TD*
D25*
G04 #@! TO.P,U1,1*
G04 #@! TO.N,+3V3*
X140600000Y-80950000D03*
G04 #@! TO.P,U1,2*
G04 #@! TO.N,GND*
X140600000Y-83490000D03*
G04 #@! TO.P,U1,3*
G04 #@! TO.N,SCL*
X140600000Y-86030000D03*
G04 #@! TO.P,U1,4*
G04 #@! TO.N,MOSI*
X140600000Y-88570000D03*
G04 #@! TO.P,U1,5*
G04 #@! TO.N,Net-(U1-Pad5)*
X140600000Y-91110000D03*
G04 #@! TO.P,U1,6*
G04 #@! TO.N,Net-(U1-Pad6)*
X140600000Y-93650000D03*
G04 #@! TO.P,U1,7*
G04 #@! TO.N,MISO*
X140600000Y-96190000D03*
G04 #@! TO.P,U1,8*
G04 #@! TO.N,INT*
X140600000Y-98730000D03*
G04 #@! TO.P,U1,9*
G04 #@! TO.N,NCS*
X140600000Y-101270000D03*
G04 #@! TO.P,U1,10*
G04 #@! TO.N,Net-(U1-Pad10)*
X140600000Y-103810000D03*
D23*
G04 #@! TO.P,U1,11*
G04 #@! TO.N,N/C*
X152100000Y-82050000D03*
G04 #@! TO.P,U1,12*
X152100000Y-102650000D03*
G04 #@! TD*
D26*
G04 #@! TO.N,+5V*
X185600000Y-106200000D03*
X190200000Y-106200000D03*
X137700000Y-130200000D03*
X141900000Y-133125001D03*
G04 #@! TO.N,RCS*
X159500000Y-62300000D03*
X159800000Y-68100000D03*
G04 #@! TO.N,M4S*
X185600000Y-98900000D03*
X184900000Y-104200000D03*
G04 #@! TO.N,Net-(J17-Pad4)*
X173500000Y-83400000D03*
G04 #@! TO.N,M3S*
X157400000Y-88200000D03*
G04 #@! TO.N,M1S*
X169900000Y-89159999D03*
G04 #@! TO.N,M2S*
X119500000Y-73200000D03*
G04 #@! TO.N,M6S*
X185700000Y-92400000D03*
X188152102Y-92400000D03*
G04 #@! TO.N,M5S*
X185000000Y-97600000D03*
G04 #@! TO.N,INT*
X158800000Y-98700000D03*
G04 #@! TD*
D27*
G04 #@! TO.N,GND*
X190400000Y-96700000D02*
X190400000Y-95400000D01*
G04 #@! TO.N,+12V*
X117507841Y-63210928D02*
X116376471Y-62079558D01*
X173417158Y-65599999D02*
X119896912Y-65599999D01*
X119896912Y-65599999D02*
X117507841Y-63210928D01*
X176734656Y-62282501D02*
X173417158Y-65599999D01*
X113850091Y-120202246D02*
X115865344Y-122217499D01*
X186802092Y-113307112D02*
X186802092Y-72349937D01*
X186802092Y-72349937D02*
X178749909Y-64297754D01*
X178838782Y-120205189D02*
X179904015Y-120205189D01*
X178749909Y-64297754D02*
X176734656Y-62282501D01*
X176823529Y-122220442D02*
X178838782Y-120205189D01*
X131591998Y-131800000D02*
X144300000Y-131800000D01*
X124024750Y-124232752D02*
X131591998Y-131800000D01*
X144300000Y-131800000D02*
X146900000Y-131800000D01*
X117880597Y-124232752D02*
X124024750Y-124232752D01*
X115865344Y-122217499D02*
X117880597Y-124232752D01*
X150800000Y-122300000D02*
X152000000Y-122300000D01*
X146900000Y-126200000D02*
X150800000Y-122300000D01*
X146900000Y-131800000D02*
X146900000Y-126200000D01*
X179904015Y-120205189D02*
X186802092Y-113307112D01*
X173243970Y-125800001D02*
X174808276Y-124235695D01*
X174808276Y-124235695D02*
X176823529Y-122220442D01*
X154300001Y-125800001D02*
X173243970Y-125800001D01*
X152000000Y-123500000D02*
X154300001Y-125800001D01*
X152000000Y-122300000D02*
X152000000Y-123500000D01*
D28*
G04 #@! TO.N,+5V*
X149440001Y-133125001D02*
X152005003Y-130559999D01*
X152005003Y-130559999D02*
X171206350Y-130559999D01*
X127512051Y-128603949D02*
X132033103Y-133125001D01*
X123903949Y-128603949D02*
X127512051Y-128603949D01*
X171206350Y-130559999D02*
X187427102Y-114339247D01*
X176026820Y-58852287D02*
X175674726Y-58852287D01*
X175674726Y-58852287D02*
X169552024Y-64974989D01*
X109896051Y-68701868D02*
X109896051Y-69903949D01*
X109896051Y-65837600D02*
X109896051Y-68701868D01*
X117084307Y-58649344D02*
X109896051Y-65837600D01*
X117436401Y-58649344D02*
X117084307Y-58649344D01*
X143400000Y-64974989D02*
X143300000Y-64874989D01*
X143300000Y-64874989D02*
X143300000Y-63200000D01*
X143400000Y-64974989D02*
X123762046Y-64974989D01*
X152200000Y-64974989D02*
X152300000Y-64874989D01*
X152200000Y-64974989D02*
X143400000Y-64974989D01*
X173470584Y-56296051D02*
X176574533Y-59400000D01*
X176574533Y-59400000D02*
X176026820Y-58852287D01*
X169296051Y-56296051D02*
X173470584Y-56296051D01*
X187427102Y-70252569D02*
X176574533Y-59400000D01*
X187832898Y-81500000D02*
X187500000Y-81500000D01*
X190400000Y-84140000D02*
X187760000Y-81500000D01*
X187427102Y-81500000D02*
X187427102Y-70252569D01*
X191249999Y-100089999D02*
X190400000Y-99240000D01*
X192400000Y-101240000D02*
X191249999Y-100089999D01*
X192400000Y-104000000D02*
X192400000Y-101240000D01*
X183303949Y-106303949D02*
X183303949Y-114896051D01*
X181297919Y-106200000D02*
X183200000Y-106200000D01*
X183200000Y-106200000D02*
X183303949Y-106303949D01*
X183200000Y-106200000D02*
X185600000Y-106200000D01*
X190200000Y-106200000D02*
X192400000Y-104000000D01*
X190200000Y-106200000D02*
X187427102Y-106200000D01*
X187427102Y-106200000D02*
X187427102Y-81500000D01*
X187427102Y-114339247D02*
X187427102Y-106200000D01*
X139800000Y-122100000D02*
X136200000Y-122100000D01*
X136200000Y-128700000D02*
X137700000Y-130200000D01*
X136200000Y-122100000D02*
X136200000Y-128700000D01*
X132033103Y-133125001D02*
X141900000Y-133125001D01*
X141900000Y-133125001D02*
X149440001Y-133125001D01*
X130587944Y-47624999D02*
X118500000Y-59712943D01*
X144864999Y-47624999D02*
X130587944Y-47624999D01*
X146140000Y-48900000D02*
X144864999Y-47624999D01*
X123762046Y-64974989D02*
X118500000Y-59712943D01*
X118500000Y-59712943D02*
X117436401Y-58649344D01*
X153900000Y-63450000D02*
X153900000Y-62100000D01*
X152350000Y-64974989D02*
X152375011Y-64974989D01*
X152350000Y-64974989D02*
X152200000Y-64974989D01*
X152375011Y-64974989D02*
X153900000Y-63450000D01*
X169552024Y-64974989D02*
X152350000Y-64974989D01*
G04 #@! TO.N,MISO*
X140700000Y-96140000D02*
X140750000Y-96190000D01*
G04 #@! TO.N,+3V3*
X140700000Y-80900000D02*
X140750000Y-80950000D01*
G04 #@! TO.N,RCS*
X148680000Y-51480000D02*
X159500000Y-62300000D01*
X148680000Y-48900000D02*
X148680000Y-51480000D01*
X159800000Y-68100000D02*
X162260000Y-70560000D01*
G04 #@! TO.N,M4S*
X185600000Y-103500000D02*
X184900000Y-104200000D01*
X185600000Y-98900000D02*
X185600000Y-103500000D01*
G04 #@! TO.N,+5V*
X181490001Y-104609999D02*
X182340000Y-103760000D01*
X181164999Y-104935001D02*
X181490001Y-104609999D01*
X168184262Y-104935001D02*
X181164999Y-104935001D01*
X167009261Y-103760000D02*
X168184262Y-104935001D01*
X164540000Y-103760000D02*
X167009261Y-103760000D01*
X181164999Y-106067080D02*
X181297919Y-106200000D01*
X181164999Y-104935001D02*
X181164999Y-106067080D01*
G04 #@! TO.N,Net-(J1-Pad20)*
X130850001Y-104609999D02*
X131700000Y-103760000D01*
X130524999Y-104935001D02*
X130850001Y-104609999D01*
X115782181Y-104935001D02*
X130524999Y-104935001D01*
X114607180Y-103760000D02*
X115782181Y-104935001D01*
X113340000Y-103760000D02*
X114607180Y-103760000D01*
G04 #@! TO.N,Net-(J1-Pad19)*
X127957919Y-103760000D02*
X129160000Y-103760000D01*
X115243590Y-103760000D02*
X127957919Y-103760000D01*
X111975001Y-102584999D02*
X114068589Y-102584999D01*
X114068589Y-102584999D02*
X115243590Y-103760000D01*
X110800000Y-103760000D02*
X111975001Y-102584999D01*
G04 #@! TO.N,Net-(J1-Pad18)*
X130850001Y-102069999D02*
X131700000Y-101220000D01*
X130524999Y-102395001D02*
X130850001Y-102069999D01*
X114515001Y-102395001D02*
X130524999Y-102395001D01*
X113340000Y-101220000D02*
X114515001Y-102395001D01*
G04 #@! TO.N,Net-(J1-Pad17)*
X127984999Y-100044999D02*
X128310001Y-100370001D01*
X128310001Y-100370001D02*
X129160000Y-101220000D01*
X111975001Y-100044999D02*
X127984999Y-100044999D01*
X110800000Y-101220000D02*
X111975001Y-100044999D01*
G04 #@! TO.N,MOSI*
X127957919Y-98680000D02*
X129160000Y-98680000D01*
X115243590Y-98680000D02*
X127957919Y-98680000D01*
X112164999Y-97315001D02*
X113878591Y-97315001D01*
X113878591Y-97315001D02*
X115243590Y-98680000D01*
X110800000Y-98680000D02*
X112164999Y-97315001D01*
X139838001Y-89331999D02*
X140600000Y-88570000D01*
X139838001Y-89741001D02*
X139838001Y-89331999D01*
X132264001Y-97315001D02*
X139838001Y-89741001D01*
X130662997Y-97830001D02*
X131177997Y-97315001D01*
X130009999Y-97830001D02*
X130662997Y-97830001D01*
X131177997Y-97315001D02*
X132264001Y-97315001D01*
X129160000Y-98680000D02*
X130009999Y-97830001D01*
G04 #@! TO.N,SCL*
X130524999Y-97315001D02*
X130850001Y-96989999D01*
X114515001Y-97315001D02*
X130524999Y-97315001D01*
X130850001Y-96989999D02*
X131700000Y-96140000D01*
X113340000Y-96140000D02*
X114515001Y-97315001D01*
X132875001Y-93754999D02*
X139838001Y-86791999D01*
X139838001Y-86791999D02*
X140600000Y-86030000D01*
X132875001Y-94964999D02*
X132875001Y-93754999D01*
X131700000Y-96140000D02*
X132875001Y-94964999D01*
G04 #@! TO.N,MISO*
X127957919Y-96140000D02*
X129160000Y-96140000D01*
X115243590Y-96140000D02*
X127957919Y-96140000D01*
X114068589Y-94964999D02*
X115243590Y-96140000D01*
X111975001Y-94964999D02*
X114068589Y-94964999D01*
X110800000Y-96140000D02*
X111975001Y-94964999D01*
G04 #@! TO.N,Net-(J1-Pad12)*
X130335001Y-94964999D02*
X130850001Y-94449999D01*
X114704999Y-94964999D02*
X130335001Y-94964999D01*
X130850001Y-94449999D02*
X131700000Y-93600000D01*
X113340000Y-93600000D02*
X114704999Y-94964999D01*
G04 #@! TO.N,Net-(J1-Pad11)*
X127957919Y-93600000D02*
X129160000Y-93600000D01*
X115243590Y-93600000D02*
X127957919Y-93600000D01*
X114068589Y-92424999D02*
X115243590Y-93600000D01*
X111975001Y-92424999D02*
X114068589Y-92424999D01*
X110800000Y-93600000D02*
X111975001Y-92424999D01*
G04 #@! TO.N,Net-(J1-Pad10)*
X130850001Y-91909999D02*
X131700000Y-91060000D01*
X130335001Y-92424999D02*
X130850001Y-91909999D01*
X114704999Y-92424999D02*
X130335001Y-92424999D01*
X113340000Y-91060000D02*
X114704999Y-92424999D01*
G04 #@! TO.N,Net-(J1-Pad9)*
X127957919Y-91060000D02*
X129160000Y-91060000D01*
X115270670Y-89884999D02*
X116445671Y-91060000D01*
X111975001Y-89884999D02*
X115270670Y-89884999D01*
X116445671Y-91060000D02*
X127957919Y-91060000D01*
X110800000Y-91060000D02*
X111975001Y-89884999D01*
G04 #@! TO.N,Net-(J1-Pad8)*
X130850001Y-89369999D02*
X131700000Y-88520000D01*
X115717082Y-89695001D02*
X130524999Y-89695001D01*
X130524999Y-89695001D02*
X130850001Y-89369999D01*
X114542081Y-88520000D02*
X115717082Y-89695001D01*
X113340000Y-88520000D02*
X114542081Y-88520000D01*
G04 #@! TO.N,Net-(J1-Pad7)*
X127957919Y-88520000D02*
X129160000Y-88520000D01*
X115243590Y-88520000D02*
X127957919Y-88520000D01*
X114068589Y-87344999D02*
X115243590Y-88520000D01*
X111975001Y-87344999D02*
X114068589Y-87344999D01*
X110800000Y-88520000D02*
X111975001Y-87344999D01*
G04 #@! TO.N,Net-(J1-Pad6)*
X130850001Y-86829999D02*
X131700000Y-85980000D01*
X130524999Y-87155001D02*
X130850001Y-86829999D01*
X114515001Y-87155001D02*
X130524999Y-87155001D01*
X113340000Y-85980000D02*
X114515001Y-87155001D01*
G04 #@! TO.N,Net-(J1-Pad5)*
X127957919Y-85980000D02*
X129160000Y-85980000D01*
X115270670Y-84804999D02*
X116445671Y-85980000D01*
X111975001Y-84804999D02*
X115270670Y-84804999D01*
X116445671Y-85980000D02*
X127957919Y-85980000D01*
X110800000Y-85980000D02*
X111975001Y-84804999D01*
G04 #@! TO.N,Net-(J1-Pad4)*
X130850001Y-84289999D02*
X131700000Y-83440000D01*
X130524999Y-84615001D02*
X130850001Y-84289999D01*
X115717082Y-84615001D02*
X130524999Y-84615001D01*
X114542081Y-83440000D02*
X115717082Y-84615001D01*
X113340000Y-83440000D02*
X114542081Y-83440000D01*
G04 #@! TO.N,Net-(J1-Pad3)*
X128310001Y-82590001D02*
X129160000Y-83440000D01*
X127895001Y-82175001D02*
X128310001Y-82590001D01*
X112064999Y-82175001D02*
X127895001Y-82175001D01*
X110800000Y-83440000D02*
X112064999Y-82175001D01*
G04 #@! TO.N,+3V3*
X128060000Y-80900000D02*
X129160000Y-80900000D01*
X126884999Y-79724999D02*
X128060000Y-80900000D01*
X110800000Y-80900000D02*
X110800000Y-79800000D01*
X126624999Y-79724999D02*
X126884999Y-79724999D01*
X110800000Y-79800000D02*
X112900000Y-77700000D01*
X112900000Y-77700000D02*
X124600000Y-77700000D01*
X124600000Y-77700000D02*
X126624999Y-79724999D01*
X129160000Y-80900000D02*
X129160000Y-78340000D01*
X129160000Y-78340000D02*
X129220000Y-78400000D01*
X138050000Y-78400000D02*
X140600000Y-80950000D01*
X129220000Y-78400000D02*
X138050000Y-78400000D01*
G04 #@! TO.N,RCS*
X181490001Y-80050001D02*
X182340000Y-80900000D01*
X180840000Y-79400000D02*
X181490001Y-80050001D01*
X166040000Y-79400000D02*
X180840000Y-79400000D01*
X164540000Y-80900000D02*
X166040000Y-79400000D01*
X162260000Y-70560000D02*
X162260000Y-75460000D01*
X166040000Y-79240000D02*
X166040000Y-79400000D01*
X162260000Y-75460000D02*
X166040000Y-79240000D01*
G04 #@! TO.N,M4S*
X180649999Y-84289999D02*
X179800000Y-83440000D01*
X180975001Y-84615001D02*
X180649999Y-84289999D01*
X183515001Y-85415999D02*
X182714003Y-84615001D01*
X183515001Y-91288003D02*
X183515001Y-85415999D01*
X185999999Y-93773001D02*
X183515001Y-91288003D01*
X185999999Y-98500001D02*
X185999999Y-93773001D01*
X182714003Y-84615001D02*
X180975001Y-84615001D01*
X185600000Y-98900000D02*
X185999999Y-98500001D01*
X178950001Y-82590001D02*
X179800000Y-83440000D01*
X178624999Y-82264999D02*
X178950001Y-82590001D01*
X163175001Y-82264999D02*
X178624999Y-82264999D01*
X162000000Y-83440000D02*
X163175001Y-82264999D01*
G04 #@! TO.N,Net-(J17-Pad4)*
X173460000Y-83440000D02*
X173500000Y-83400000D01*
X164540000Y-83440000D02*
X173460000Y-83440000D01*
G04 #@! TO.N,Net-(J17-Pad5)*
X178950001Y-85130001D02*
X179800000Y-85980000D01*
X178624999Y-84804999D02*
X178950001Y-85130001D01*
X163175001Y-84804999D02*
X178624999Y-84804999D01*
X162000000Y-85980000D02*
X163175001Y-84804999D01*
G04 #@! TO.N,M3S*
X163364999Y-87155001D02*
X163690001Y-86829999D01*
X163690001Y-86829999D02*
X164540000Y-85980000D01*
X158444999Y-87155001D02*
X163364999Y-87155001D01*
X157400000Y-88200000D02*
X158444999Y-87155001D01*
X181490001Y-86829999D02*
X182340000Y-85980000D01*
X181164999Y-87155001D02*
X181490001Y-86829999D01*
X165715001Y-87155001D02*
X181164999Y-87155001D01*
X164540000Y-85980000D02*
X165715001Y-87155001D01*
G04 #@! TO.N,M1S*
X169260001Y-88520000D02*
X169900000Y-89159999D01*
X164540000Y-88520000D02*
X169260001Y-88520000D01*
X181064999Y-89795001D02*
X181490001Y-89369999D01*
X170535002Y-89795001D02*
X181064999Y-89795001D01*
X181490001Y-89369999D02*
X182340000Y-88520000D01*
X169900000Y-89159999D02*
X170535002Y-89795001D01*
G04 #@! TO.N,M2S*
X178597919Y-91060000D02*
X179800000Y-91060000D01*
X171163591Y-91060000D02*
X178597919Y-91060000D01*
X169988590Y-89884999D02*
X171163591Y-91060000D01*
X163175001Y-89884999D02*
X169988590Y-89884999D01*
X162000000Y-91060000D02*
X163175001Y-89884999D01*
X163175001Y-89884999D02*
X155984999Y-89884999D01*
X155984999Y-89884999D02*
X155900000Y-89800000D01*
X155900000Y-89800000D02*
X155900000Y-73100000D01*
X146300000Y-73100000D02*
X146200000Y-73200000D01*
X155900000Y-73100000D02*
X146300000Y-73100000D01*
X146200000Y-73200000D02*
X146329000Y-73200000D01*
X119500000Y-73200000D02*
X146200000Y-73200000D01*
G04 #@! TO.N,M6S*
X188152102Y-99532102D02*
X190400000Y-101780000D01*
X188152102Y-92400000D02*
X188152102Y-99532102D01*
X181490001Y-91909999D02*
X182340000Y-91060000D01*
X181164999Y-92235001D02*
X181490001Y-91909999D01*
X165715001Y-92235001D02*
X181164999Y-92235001D01*
X164540000Y-91060000D02*
X165715001Y-92235001D01*
G04 #@! TO.N,M5S*
X178950001Y-95290001D02*
X179800000Y-96140000D01*
X178624999Y-94964999D02*
X178950001Y-95290001D01*
X163175001Y-94964999D02*
X178624999Y-94964999D01*
X162000000Y-96140000D02*
X163175001Y-94964999D01*
X185000000Y-97034315D02*
X185000000Y-97600000D01*
X182930684Y-94964999D02*
X185000000Y-97034315D01*
X180975001Y-94964999D02*
X182930684Y-94964999D01*
X179800000Y-96140000D02*
X180975001Y-94964999D01*
G04 #@! TO.N,Net-(J17-Pad14)*
X181490001Y-96989999D02*
X182340000Y-96140000D01*
X181164999Y-97315001D02*
X181490001Y-96989999D01*
X165715001Y-97315001D02*
X181164999Y-97315001D01*
X164540000Y-96140000D02*
X165715001Y-97315001D01*
G04 #@! TO.N,INT*
X158770000Y-98730000D02*
X158800000Y-98700000D01*
X140600000Y-98730000D02*
X158770000Y-98730000D01*
G04 #@! TO.N,NCS*
X163690001Y-99529999D02*
X164540000Y-98680000D01*
X163364999Y-99855001D02*
X163690001Y-99529999D01*
X143092629Y-99855001D02*
X163364999Y-99855001D01*
X141677630Y-101270000D02*
X143092629Y-99855001D01*
X140600000Y-101270000D02*
X141677630Y-101270000D01*
X181164999Y-99855001D02*
X181490001Y-99529999D01*
X181490001Y-99529999D02*
X182340000Y-98680000D01*
X165715001Y-99855001D02*
X181164999Y-99855001D01*
X164540000Y-98680000D02*
X165715001Y-99855001D01*
G04 #@! TO.N,Net-(J17-Pad17)*
X178597919Y-101220000D02*
X179800000Y-101220000D01*
X165268589Y-100044999D02*
X166443590Y-101220000D01*
X163975999Y-100044999D02*
X165268589Y-100044999D01*
X163650997Y-100370001D02*
X163975999Y-100044999D01*
X166443590Y-101220000D02*
X178597919Y-101220000D01*
X162849999Y-100370001D02*
X163650997Y-100370001D01*
X162000000Y-101220000D02*
X162849999Y-100370001D01*
G04 #@! TO.N,Net-(J17-Pad18)*
X181490001Y-102069999D02*
X182340000Y-101220000D01*
X181164999Y-102395001D02*
X181490001Y-102069999D01*
X166917082Y-102395001D02*
X181164999Y-102395001D01*
X165742081Y-101220000D02*
X166917082Y-102395001D01*
X164540000Y-101220000D02*
X165742081Y-101220000D01*
G04 #@! TO.N,Net-(J17-Pad19)*
X178597919Y-103760000D02*
X179800000Y-103760000D01*
X167645671Y-103760000D02*
X178597919Y-103760000D01*
X166285671Y-102400000D02*
X167645671Y-103760000D01*
X163360000Y-102400000D02*
X166285671Y-102400000D01*
X162000000Y-103760000D02*
X163360000Y-102400000D01*
G04 #@! TD*
M02*
